M48
; DRILL file {KiCad 9.0.8} date 2026-05-11T22:24:00-0700
; FORMAT={-:-/ absolute / metric / decimal}
; #@! TF.CreationDate,2026-05-11T22:24:00-07:00
; #@! TF.GenerationSoftware,Kicad,Pcbnew,9.0.8
; #@! TF.FileFunction,Plated,1,2,PTH
FMAT,2
METRIC
; #@! TA.AperFunction,Plated,PTH,ViaDrill
T1C0.300
; #@! TA.AperFunction,Plated,PTH,ComponentDrill
T2C0.600
; #@! TA.AperFunction,Plated,PTH,ComponentDrill
T3C0.800
; #@! TA.AperFunction,Plated,PTH,ComponentDrill
T4C1.000
; #@! TA.AperFunction,Plated,PTH,ComponentDrill
T5C1.020
; #@! TA.AperFunction,Plated,PTH,ComponentDrill
T6C1.100
; #@! TA.AperFunction,Plated,PTH,ComponentDrill
T7C1.500
%
G90
G05
T1
X19.0Y-60.75
X23.28Y-67.2
X25.487Y-60.917
X34.755Y-47.25
X39.497Y-46.65
X42.281Y-18.781
X49.007Y-16.922
X52.432Y-41.929
X53.701Y-17.799
X53.721Y-40.64
X55.207Y-49.967
X55.35Y-20.675
X58.25Y-47.25
X59.943Y-47.245
X63.4Y-31.115
T3
X18.21Y-52.75
X18.21Y-60.37
X24.71Y-52.75
X24.71Y-60.37
X31.96Y-62.705
X31.96Y-64.705
X38.005Y-55.0
X40.005Y-55.0
X54.498Y-20.93
X56.998Y-20.93
T4
X17.72Y-16.25
X20.26Y-16.25
X22.8Y-16.25
X25.34Y-16.25
X27.88Y-16.25
X30.42Y-16.25
X32.96Y-16.25
X35.5Y-16.25
X38.04Y-16.25
X40.58Y-16.25
X43.12Y-16.25
X44.67Y-53.5
X45.66Y-16.25
X47.21Y-53.5
X48.2Y-16.25
X49.75Y-53.5
X50.74Y-16.25
X52.29Y-53.5
X57.71Y-16.25
X58.67Y-53.5
X60.25Y-16.25
X61.21Y-53.5
X62.79Y-16.25
X63.75Y-53.5
X65.33Y-16.25
T5
X21.455Y-23.8
X21.455Y-49.2
X23.995Y-23.8
X23.995Y-49.2
X26.535Y-23.8
X26.535Y-49.2
X29.075Y-23.8
X29.075Y-49.2
X31.615Y-23.8
X31.615Y-49.2
X34.155Y-23.8
X34.155Y-49.2
X36.695Y-23.8
X36.695Y-49.2
X39.235Y-23.8
X39.235Y-49.2
X41.775Y-23.8
X41.775Y-49.2
X44.315Y-23.8
X44.315Y-49.2
X46.855Y-23.8
X46.855Y-49.2
X49.395Y-23.8
X49.395Y-49.2
X51.935Y-23.8
X51.935Y-49.2
X54.475Y-23.8
X54.475Y-49.2
X57.015Y-23.8
X57.015Y-49.2
T6
X36.982Y-63.856
X47.142Y-63.856
T7
X60.485Y-57.86
X63.025Y-57.86
T2
G00X17.14Y-63.63
M15
G01X17.14Y-64.73
M16
G05
G00X17.14Y-68.06
M15
G01X17.14Y-68.66
M16
G05
G00X25.78Y-63.63
M15
G01X25.78Y-64.73
M16
G05
G00X25.78Y-68.06
M15
G01X25.78Y-68.66
M16
G05
M30
