%TF.GenerationSoftware,KiCad,Pcbnew,9.0.8*%
%TF.CreationDate,2026-05-11T22:23:55-07:00*%
%TF.ProjectId,FlowState,466c6f77-5374-4617-9465-2e6b69636164,rev?*%
%TF.SameCoordinates,Original*%
%TF.FileFunction,Legend,Top*%
%TF.FilePolarity,Positive*%
%FSLAX46Y46*%
G04 Gerber Fmt 4.6, Leading zero omitted, Abs format (unit mm)*
G04 Created by KiCad (PCBNEW 9.0.8) date 2026-05-11 22:23:55*
%MOMM*%
%LPD*%
G01*
G04 APERTURE LIST*
%ADD10C,0.150000*%
%ADD11C,0.120000*%
%ADD12C,0.127000*%
%ADD13C,0.200000*%
G04 APERTURE END LIST*
D10*
X55744819Y-53833333D02*
X56459104Y-53833333D01*
X56459104Y-53833333D02*
X56601961Y-53880952D01*
X56601961Y-53880952D02*
X56697200Y-53976190D01*
X56697200Y-53976190D02*
X56744819Y-54119047D01*
X56744819Y-54119047D02*
X56744819Y-54214285D01*
X56078152Y-52928571D02*
X56744819Y-52928571D01*
X55697200Y-53166666D02*
X56411485Y-53404761D01*
X56411485Y-53404761D02*
X56411485Y-52785714D01*
X54784819Y-16583333D02*
X55499104Y-16583333D01*
X55499104Y-16583333D02*
X55641961Y-16630952D01*
X55641961Y-16630952D02*
X55737200Y-16726190D01*
X55737200Y-16726190D02*
X55784819Y-16869047D01*
X55784819Y-16869047D02*
X55784819Y-16964285D01*
X54784819Y-15630952D02*
X54784819Y-16107142D01*
X54784819Y-16107142D02*
X55261009Y-16154761D01*
X55261009Y-16154761D02*
X55213390Y-16107142D01*
X55213390Y-16107142D02*
X55165771Y-16011904D01*
X55165771Y-16011904D02*
X55165771Y-15773809D01*
X55165771Y-15773809D02*
X55213390Y-15678571D01*
X55213390Y-15678571D02*
X55261009Y-15630952D01*
X55261009Y-15630952D02*
X55356247Y-15583333D01*
X55356247Y-15583333D02*
X55594342Y-15583333D01*
X55594342Y-15583333D02*
X55689580Y-15630952D01*
X55689580Y-15630952D02*
X55737200Y-15678571D01*
X55737200Y-15678571D02*
X55784819Y-15773809D01*
X55784819Y-15773809D02*
X55784819Y-16011904D01*
X55784819Y-16011904D02*
X55737200Y-16107142D01*
X55737200Y-16107142D02*
X55689580Y-16154761D01*
X57559819Y-58193333D02*
X58274104Y-58193333D01*
X58274104Y-58193333D02*
X58416961Y-58240952D01*
X58416961Y-58240952D02*
X58512200Y-58336190D01*
X58512200Y-58336190D02*
X58559819Y-58479047D01*
X58559819Y-58479047D02*
X58559819Y-58574285D01*
X57559819Y-57288571D02*
X57559819Y-57479047D01*
X57559819Y-57479047D02*
X57607438Y-57574285D01*
X57607438Y-57574285D02*
X57655057Y-57621904D01*
X57655057Y-57621904D02*
X57797914Y-57717142D01*
X57797914Y-57717142D02*
X57988390Y-57764761D01*
X57988390Y-57764761D02*
X58369342Y-57764761D01*
X58369342Y-57764761D02*
X58464580Y-57717142D01*
X58464580Y-57717142D02*
X58512200Y-57669523D01*
X58512200Y-57669523D02*
X58559819Y-57574285D01*
X58559819Y-57574285D02*
X58559819Y-57383809D01*
X58559819Y-57383809D02*
X58512200Y-57288571D01*
X58512200Y-57288571D02*
X58464580Y-57240952D01*
X58464580Y-57240952D02*
X58369342Y-57193333D01*
X58369342Y-57193333D02*
X58131247Y-57193333D01*
X58131247Y-57193333D02*
X58036009Y-57240952D01*
X58036009Y-57240952D02*
X57988390Y-57288571D01*
X57988390Y-57288571D02*
X57940771Y-57383809D01*
X57940771Y-57383809D02*
X57940771Y-57574285D01*
X57940771Y-57574285D02*
X57988390Y-57669523D01*
X57988390Y-57669523D02*
X58036009Y-57717142D01*
X58036009Y-57717142D02*
X58131247Y-57764761D01*
X55580933Y-23339179D02*
X55533314Y-23386799D01*
X55533314Y-23386799D02*
X55390457Y-23434418D01*
X55390457Y-23434418D02*
X55295219Y-23434418D01*
X55295219Y-23434418D02*
X55152362Y-23386799D01*
X55152362Y-23386799D02*
X55057124Y-23291560D01*
X55057124Y-23291560D02*
X55009505Y-23196322D01*
X55009505Y-23196322D02*
X54961886Y-23005846D01*
X54961886Y-23005846D02*
X54961886Y-22862989D01*
X54961886Y-22862989D02*
X55009505Y-22672513D01*
X55009505Y-22672513D02*
X55057124Y-22577275D01*
X55057124Y-22577275D02*
X55152362Y-22482037D01*
X55152362Y-22482037D02*
X55295219Y-22434418D01*
X55295219Y-22434418D02*
X55390457Y-22434418D01*
X55390457Y-22434418D02*
X55533314Y-22482037D01*
X55533314Y-22482037D02*
X55580933Y-22529656D01*
X55914267Y-22434418D02*
X56533314Y-22434418D01*
X56533314Y-22434418D02*
X56199981Y-22815370D01*
X56199981Y-22815370D02*
X56342838Y-22815370D01*
X56342838Y-22815370D02*
X56438076Y-22862989D01*
X56438076Y-22862989D02*
X56485695Y-22910608D01*
X56485695Y-22910608D02*
X56533314Y-23005846D01*
X56533314Y-23005846D02*
X56533314Y-23243941D01*
X56533314Y-23243941D02*
X56485695Y-23339179D01*
X56485695Y-23339179D02*
X56438076Y-23386799D01*
X56438076Y-23386799D02*
X56342838Y-23434418D01*
X56342838Y-23434418D02*
X56057124Y-23434418D01*
X56057124Y-23434418D02*
X55961886Y-23386799D01*
X55961886Y-23386799D02*
X55914267Y-23339179D01*
X41744819Y-53833333D02*
X42459104Y-53833333D01*
X42459104Y-53833333D02*
X42601961Y-53880952D01*
X42601961Y-53880952D02*
X42697200Y-53976190D01*
X42697200Y-53976190D02*
X42744819Y-54119047D01*
X42744819Y-54119047D02*
X42744819Y-54214285D01*
X41840057Y-53404761D02*
X41792438Y-53357142D01*
X41792438Y-53357142D02*
X41744819Y-53261904D01*
X41744819Y-53261904D02*
X41744819Y-53023809D01*
X41744819Y-53023809D02*
X41792438Y-52928571D01*
X41792438Y-52928571D02*
X41840057Y-52880952D01*
X41840057Y-52880952D02*
X41935295Y-52833333D01*
X41935295Y-52833333D02*
X42030533Y-52833333D01*
X42030533Y-52833333D02*
X42173390Y-52880952D01*
X42173390Y-52880952D02*
X42744819Y-53452380D01*
X42744819Y-53452380D02*
X42744819Y-52833333D01*
X16294819Y-56726666D02*
X15818628Y-57059999D01*
X16294819Y-57298094D02*
X15294819Y-57298094D01*
X15294819Y-57298094D02*
X15294819Y-56917142D01*
X15294819Y-56917142D02*
X15342438Y-56821904D01*
X15342438Y-56821904D02*
X15390057Y-56774285D01*
X15390057Y-56774285D02*
X15485295Y-56726666D01*
X15485295Y-56726666D02*
X15628152Y-56726666D01*
X15628152Y-56726666D02*
X15723390Y-56774285D01*
X15723390Y-56774285D02*
X15771009Y-56821904D01*
X15771009Y-56821904D02*
X15818628Y-56917142D01*
X15818628Y-56917142D02*
X15818628Y-57298094D01*
X16294819Y-55774285D02*
X16294819Y-56345713D01*
X16294819Y-56059999D02*
X15294819Y-56059999D01*
X15294819Y-56059999D02*
X15437676Y-56155237D01*
X15437676Y-56155237D02*
X15532914Y-56250475D01*
X15532914Y-56250475D02*
X15580533Y-56345713D01*
X28569580Y-63871778D02*
X28617200Y-63919397D01*
X28617200Y-63919397D02*
X28664819Y-64062254D01*
X28664819Y-64062254D02*
X28664819Y-64157492D01*
X28664819Y-64157492D02*
X28617200Y-64300349D01*
X28617200Y-64300349D02*
X28521961Y-64395587D01*
X28521961Y-64395587D02*
X28426723Y-64443206D01*
X28426723Y-64443206D02*
X28236247Y-64490825D01*
X28236247Y-64490825D02*
X28093390Y-64490825D01*
X28093390Y-64490825D02*
X27902914Y-64443206D01*
X27902914Y-64443206D02*
X27807676Y-64395587D01*
X27807676Y-64395587D02*
X27712438Y-64300349D01*
X27712438Y-64300349D02*
X27664819Y-64157492D01*
X27664819Y-64157492D02*
X27664819Y-64062254D01*
X27664819Y-64062254D02*
X27712438Y-63919397D01*
X27712438Y-63919397D02*
X27760057Y-63871778D01*
X28664819Y-62919397D02*
X28664819Y-63490825D01*
X28664819Y-63205111D02*
X27664819Y-63205111D01*
X27664819Y-63205111D02*
X27807676Y-63300349D01*
X27807676Y-63300349D02*
X27902914Y-63395587D01*
X27902914Y-63395587D02*
X27950533Y-63490825D01*
X40958419Y-37261704D02*
X41767942Y-37261704D01*
X41767942Y-37261704D02*
X41863180Y-37214085D01*
X41863180Y-37214085D02*
X41910800Y-37166466D01*
X41910800Y-37166466D02*
X41958419Y-37071228D01*
X41958419Y-37071228D02*
X41958419Y-36880752D01*
X41958419Y-36880752D02*
X41910800Y-36785514D01*
X41910800Y-36785514D02*
X41863180Y-36737895D01*
X41863180Y-36737895D02*
X41767942Y-36690276D01*
X41767942Y-36690276D02*
X40958419Y-36690276D01*
X41053657Y-36261704D02*
X41006038Y-36214085D01*
X41006038Y-36214085D02*
X40958419Y-36118847D01*
X40958419Y-36118847D02*
X40958419Y-35880752D01*
X40958419Y-35880752D02*
X41006038Y-35785514D01*
X41006038Y-35785514D02*
X41053657Y-35737895D01*
X41053657Y-35737895D02*
X41148895Y-35690276D01*
X41148895Y-35690276D02*
X41244133Y-35690276D01*
X41244133Y-35690276D02*
X41386990Y-35737895D01*
X41386990Y-35737895D02*
X41958419Y-36309323D01*
X41958419Y-36309323D02*
X41958419Y-35690276D01*
X21126666Y-61119819D02*
X21126666Y-61834104D01*
X21126666Y-61834104D02*
X21079047Y-61976961D01*
X21079047Y-61976961D02*
X20983809Y-62072200D01*
X20983809Y-62072200D02*
X20840952Y-62119819D01*
X20840952Y-62119819D02*
X20745714Y-62119819D01*
X22126666Y-62119819D02*
X21555238Y-62119819D01*
X21840952Y-62119819D02*
X21840952Y-61119819D01*
X21840952Y-61119819D02*
X21745714Y-61262676D01*
X21745714Y-61262676D02*
X21650476Y-61357914D01*
X21650476Y-61357914D02*
X21555238Y-61405533D01*
X41324305Y-61840419D02*
X41324305Y-60840419D01*
X41324305Y-60840419D02*
X41562400Y-60840419D01*
X41562400Y-60840419D02*
X41705257Y-60888038D01*
X41705257Y-60888038D02*
X41800495Y-60983276D01*
X41800495Y-60983276D02*
X41848114Y-61078514D01*
X41848114Y-61078514D02*
X41895733Y-61268990D01*
X41895733Y-61268990D02*
X41895733Y-61411847D01*
X41895733Y-61411847D02*
X41848114Y-61602323D01*
X41848114Y-61602323D02*
X41800495Y-61697561D01*
X41800495Y-61697561D02*
X41705257Y-61792800D01*
X41705257Y-61792800D02*
X41562400Y-61840419D01*
X41562400Y-61840419D02*
X41324305Y-61840419D01*
X42848114Y-61840419D02*
X42276686Y-61840419D01*
X42562400Y-61840419D02*
X42562400Y-60840419D01*
X42562400Y-60840419D02*
X42467162Y-60983276D01*
X42467162Y-60983276D02*
X42371924Y-61078514D01*
X42371924Y-61078514D02*
X42276686Y-61126133D01*
X36720495Y-62210419D02*
X36720495Y-61210419D01*
X37291923Y-62210419D02*
X36863352Y-61638990D01*
X37291923Y-61210419D02*
X36720495Y-61781847D01*
X22794819Y-56726666D02*
X22318628Y-57059999D01*
X22794819Y-57298094D02*
X21794819Y-57298094D01*
X21794819Y-57298094D02*
X21794819Y-56917142D01*
X21794819Y-56917142D02*
X21842438Y-56821904D01*
X21842438Y-56821904D02*
X21890057Y-56774285D01*
X21890057Y-56774285D02*
X21985295Y-56726666D01*
X21985295Y-56726666D02*
X22128152Y-56726666D01*
X22128152Y-56726666D02*
X22223390Y-56774285D01*
X22223390Y-56774285D02*
X22271009Y-56821904D01*
X22271009Y-56821904D02*
X22318628Y-56917142D01*
X22318628Y-56917142D02*
X22318628Y-57298094D01*
X21890057Y-56345713D02*
X21842438Y-56298094D01*
X21842438Y-56298094D02*
X21794819Y-56202856D01*
X21794819Y-56202856D02*
X21794819Y-55964761D01*
X21794819Y-55964761D02*
X21842438Y-55869523D01*
X21842438Y-55869523D02*
X21890057Y-55821904D01*
X21890057Y-55821904D02*
X21985295Y-55774285D01*
X21985295Y-55774285D02*
X22080533Y-55774285D01*
X22080533Y-55774285D02*
X22223390Y-55821904D01*
X22223390Y-55821904D02*
X22794819Y-56393332D01*
X22794819Y-56393332D02*
X22794819Y-55774285D01*
X27164818Y-57011904D02*
X27974341Y-57011904D01*
X27974341Y-57011904D02*
X28069579Y-56964285D01*
X28069579Y-56964285D02*
X28117199Y-56916666D01*
X28117199Y-56916666D02*
X28164818Y-56821428D01*
X28164818Y-56821428D02*
X28164818Y-56630952D01*
X28164818Y-56630952D02*
X28117199Y-56535714D01*
X28117199Y-56535714D02*
X28069579Y-56488095D01*
X28069579Y-56488095D02*
X27974341Y-56440476D01*
X27974341Y-56440476D02*
X27164818Y-56440476D01*
X28164818Y-55440476D02*
X28164818Y-56011904D01*
X28164818Y-55726190D02*
X27164818Y-55726190D01*
X27164818Y-55726190D02*
X27307675Y-55821428D01*
X27307675Y-55821428D02*
X27402913Y-55916666D01*
X27402913Y-55916666D02*
X27450532Y-56011904D01*
X38838221Y-51609580D02*
X38790602Y-51657200D01*
X38790602Y-51657200D02*
X38647745Y-51704819D01*
X38647745Y-51704819D02*
X38552507Y-51704819D01*
X38552507Y-51704819D02*
X38409650Y-51657200D01*
X38409650Y-51657200D02*
X38314412Y-51561961D01*
X38314412Y-51561961D02*
X38266793Y-51466723D01*
X38266793Y-51466723D02*
X38219174Y-51276247D01*
X38219174Y-51276247D02*
X38219174Y-51133390D01*
X38219174Y-51133390D02*
X38266793Y-50942914D01*
X38266793Y-50942914D02*
X38314412Y-50847676D01*
X38314412Y-50847676D02*
X38409650Y-50752438D01*
X38409650Y-50752438D02*
X38552507Y-50704819D01*
X38552507Y-50704819D02*
X38647745Y-50704819D01*
X38647745Y-50704819D02*
X38790602Y-50752438D01*
X38790602Y-50752438D02*
X38838221Y-50800057D01*
X39219174Y-50800057D02*
X39266793Y-50752438D01*
X39266793Y-50752438D02*
X39362031Y-50704819D01*
X39362031Y-50704819D02*
X39600126Y-50704819D01*
X39600126Y-50704819D02*
X39695364Y-50752438D01*
X39695364Y-50752438D02*
X39742983Y-50800057D01*
X39742983Y-50800057D02*
X39790602Y-50895295D01*
X39790602Y-50895295D02*
X39790602Y-50990533D01*
X39790602Y-50990533D02*
X39742983Y-51133390D01*
X39742983Y-51133390D02*
X39171555Y-51704819D01*
X39171555Y-51704819D02*
X39790602Y-51704819D01*
X52574819Y-16583333D02*
X53289104Y-16583333D01*
X53289104Y-16583333D02*
X53431961Y-16630952D01*
X53431961Y-16630952D02*
X53527200Y-16726190D01*
X53527200Y-16726190D02*
X53574819Y-16869047D01*
X53574819Y-16869047D02*
X53574819Y-16964285D01*
X52574819Y-16202380D02*
X52574819Y-15583333D01*
X52574819Y-15583333D02*
X52955771Y-15916666D01*
X52955771Y-15916666D02*
X52955771Y-15773809D01*
X52955771Y-15773809D02*
X53003390Y-15678571D01*
X53003390Y-15678571D02*
X53051009Y-15630952D01*
X53051009Y-15630952D02*
X53146247Y-15583333D01*
X53146247Y-15583333D02*
X53384342Y-15583333D01*
X53384342Y-15583333D02*
X53479580Y-15630952D01*
X53479580Y-15630952D02*
X53527200Y-15678571D01*
X53527200Y-15678571D02*
X53574819Y-15773809D01*
X53574819Y-15773809D02*
X53574819Y-16059523D01*
X53574819Y-16059523D02*
X53527200Y-16154761D01*
X53527200Y-16154761D02*
X53479580Y-16202380D01*
D11*
%TO.C,J4*%
X57290000Y-54880000D02*
X57290001Y-53500000D01*
X58670000Y-54879999D02*
X57290000Y-54880000D01*
X59940000Y-52120000D02*
X65130000Y-52120000D01*
X59940000Y-54880000D02*
X59940000Y-52120000D01*
X59940000Y-54880000D02*
X65130000Y-54880000D01*
X65130000Y-54880000D02*
X65130000Y-52120000D01*
%TO.C,J5*%
X56330000Y-17630000D02*
X56330001Y-16250000D01*
X57710000Y-17629999D02*
X56330000Y-17630000D01*
X58980000Y-14870000D02*
X66710000Y-14870001D01*
X58980000Y-17630000D02*
X58980000Y-14870000D01*
X58980000Y-17630000D02*
X66710000Y-17629999D01*
X66710000Y-17629999D02*
X66710000Y-14870001D01*
%TO.C,J6*%
X59105000Y-59240000D02*
X59105001Y-57860000D01*
X60485000Y-59239999D02*
X59105000Y-59240000D01*
X61755000Y-56480000D02*
X64405000Y-56480000D01*
X61755000Y-59240000D02*
X61755000Y-56480000D01*
X61755000Y-59240000D02*
X64405000Y-59240000D01*
X64405000Y-59240000D02*
X64405000Y-56480000D01*
%TO.C,C3*%
X54982600Y-20009600D02*
X56512600Y-20009600D01*
X56512600Y-21849600D02*
X54982600Y-21849600D01*
%TO.C,J2*%
X43290000Y-54880000D02*
X43290001Y-53500000D01*
X44670000Y-54879999D02*
X43290000Y-54880000D01*
X45940000Y-52120000D02*
X53670000Y-52120001D01*
X45940000Y-54880000D02*
X45940000Y-52120000D01*
X45940000Y-54880000D02*
X53670000Y-54879999D01*
X53670000Y-54879999D02*
X53670000Y-52120001D01*
%TO.C,R1*%
X16840000Y-53290000D02*
X17170000Y-53290000D01*
X16840000Y-59830000D02*
X16840000Y-53290000D01*
X17170000Y-59830000D02*
X16840000Y-59830000D01*
X19250000Y-59830000D02*
X19580000Y-59830000D01*
X19580000Y-53290000D02*
X19250000Y-53290000D01*
X19580000Y-59830000D02*
X19580000Y-53290000D01*
%TO.C,C1*%
X29380000Y-63665111D02*
X30920000Y-63665112D01*
X29380000Y-63705112D02*
X30920000Y-63705112D01*
X29381000Y-63625112D02*
X30920000Y-63625112D01*
X29383000Y-63585112D02*
X30920000Y-63585111D01*
X29385000Y-63545112D02*
X30920000Y-63545112D01*
X29387999Y-63505112D02*
X30920000Y-63505112D01*
X29391000Y-63465112D02*
X30920000Y-63465113D01*
X29395000Y-63425112D02*
X30920000Y-63425112D01*
X29400001Y-63385112D02*
X30920000Y-63385112D01*
X29405000Y-63345112D02*
X30920000Y-63345112D01*
X29411000Y-63305112D02*
X30919999Y-63305112D01*
X29417000Y-63265112D02*
X30920000Y-63265112D01*
X29424000Y-63225112D02*
X30920000Y-63225112D01*
X29432000Y-63185112D02*
X30920000Y-63185112D01*
X29441000Y-63145111D02*
X30920000Y-63145111D01*
X29450000Y-63105112D02*
X30920000Y-63105112D01*
X29459000Y-63065112D02*
X30920000Y-63065112D01*
X29470001Y-63025112D02*
X30920000Y-63025113D01*
X29481000Y-62985112D02*
X30920000Y-62985112D01*
X29493001Y-62945112D02*
X30920000Y-62945112D01*
X29505000Y-62905112D02*
X30920000Y-62905112D01*
X29518000Y-62865112D02*
X30919999Y-62865112D01*
X29532000Y-62825112D02*
X30920000Y-62825112D01*
X29547000Y-62785112D02*
X30920000Y-62785112D01*
X29562000Y-62745112D02*
X30920000Y-62745112D01*
X29578000Y-62705112D02*
X30920000Y-62705111D01*
X29595000Y-62665112D02*
X30920000Y-62665112D01*
X29612999Y-62625112D02*
X30920000Y-62625112D01*
X29631000Y-62585112D02*
X30920000Y-62585113D01*
X29651000Y-62545112D02*
X30920000Y-62545112D01*
X29671000Y-62505113D02*
X30920000Y-62505112D01*
X29692000Y-62465112D02*
X30920000Y-62465112D01*
X29714000Y-62425112D02*
X30919999Y-62425112D01*
X29737000Y-62385112D02*
X30920000Y-62385112D01*
X29761000Y-62345112D02*
X30920000Y-62345112D01*
X29785000Y-62305112D02*
X30920000Y-62305112D01*
X29811000Y-62265112D02*
X30919999Y-62265112D01*
X29838000Y-62225112D02*
X30920000Y-62225112D01*
X29865999Y-62185112D02*
X30920000Y-62185112D01*
X29895000Y-62145112D02*
X30920000Y-62145113D01*
X29925000Y-62105112D02*
X30920000Y-62105111D01*
X29957000Y-62065112D02*
X30920000Y-62065112D01*
X29990000Y-62025112D02*
X30920000Y-62025112D01*
X30024000Y-61985112D02*
X30920000Y-61985113D01*
X30059000Y-61945112D02*
X30920000Y-61945112D01*
X30096000Y-61905112D02*
X30920000Y-61905112D01*
X30135000Y-61865112D02*
X30920000Y-61865112D01*
X30175000Y-61825112D02*
X30919999Y-61825112D01*
X30217000Y-61785112D02*
X30920000Y-61785112D01*
X30235000Y-66259887D02*
X30735000Y-66259887D01*
X30261001Y-61745112D02*
X30920000Y-61745112D01*
X30308000Y-61705112D02*
X30920000Y-61705112D01*
X30356000Y-61665112D02*
X33564000Y-61665112D01*
X30407000Y-61625112D02*
X33513000Y-61625112D01*
X30461000Y-61585112D02*
X33459000Y-61585112D01*
X30485000Y-66509887D02*
X30485000Y-66009887D01*
X30516999Y-61545112D02*
X33403001Y-61545112D01*
X30577000Y-61505112D02*
X33343000Y-61505112D01*
X30641000Y-61465112D02*
X33279000Y-61465112D01*
X30709000Y-61425112D02*
X33211000Y-61425112D01*
X30783000Y-61385112D02*
X33137000Y-61385112D01*
X30862000Y-61345112D02*
X33058000Y-61345112D01*
X30949000Y-61305112D02*
X32971000Y-61305112D01*
X31046000Y-61265112D02*
X32874000Y-61265112D01*
X31155000Y-61225111D02*
X32765000Y-61225111D01*
X31283000Y-61185112D02*
X32637000Y-61185112D01*
X31443000Y-61145112D02*
X32477000Y-61145112D01*
X31677000Y-61105112D02*
X32243000Y-61105112D01*
X33000000Y-61705112D02*
X33612000Y-61705112D01*
X33000000Y-61745112D02*
X33658999Y-61745112D01*
X33000000Y-61785112D02*
X33703000Y-61785112D01*
X33000000Y-61865112D02*
X33785000Y-61865112D01*
X33000000Y-61905112D02*
X33824000Y-61905112D01*
X33000000Y-61945112D02*
X33861000Y-61945112D01*
X33000000Y-61985113D02*
X33896000Y-61985112D01*
X33000000Y-62025112D02*
X33930000Y-62025112D01*
X33000000Y-62065112D02*
X33963000Y-62065112D01*
X33000000Y-62105111D02*
X33995000Y-62105112D01*
X33000000Y-62145113D02*
X34025000Y-62145112D01*
X33000000Y-62185112D02*
X34054001Y-62185112D01*
X33000000Y-62225112D02*
X34082000Y-62225112D01*
X33000000Y-62305112D02*
X34135000Y-62305112D01*
X33000000Y-62345112D02*
X34159000Y-62345112D01*
X33000000Y-62385112D02*
X34183000Y-62385112D01*
X33000000Y-62465112D02*
X34228000Y-62465112D01*
X33000000Y-62505112D02*
X34249000Y-62505113D01*
X33000000Y-62545112D02*
X34269000Y-62545112D01*
X33000000Y-62585113D02*
X34289000Y-62585112D01*
X33000000Y-62625112D02*
X34307001Y-62625112D01*
X33000000Y-62665112D02*
X34325000Y-62665112D01*
X33000000Y-62705111D02*
X34342000Y-62705112D01*
X33000000Y-62745112D02*
X34358000Y-62745112D01*
X33000000Y-62785112D02*
X34373000Y-62785112D01*
X33000000Y-62825112D02*
X34388000Y-62825112D01*
X33000000Y-62905112D02*
X34415000Y-62905112D01*
X33000000Y-62945112D02*
X34426999Y-62945112D01*
X33000000Y-62985112D02*
X34439000Y-62985112D01*
X33000000Y-63025113D02*
X34449999Y-63025112D01*
X33000000Y-63065112D02*
X34461000Y-63065112D01*
X33000000Y-63105112D02*
X34470000Y-63105112D01*
X33000000Y-63145111D02*
X34479000Y-63145111D01*
X33000000Y-63185112D02*
X34488000Y-63185112D01*
X33000000Y-63225112D02*
X34496000Y-63225112D01*
X33000000Y-63265112D02*
X34503000Y-63265112D01*
X33000000Y-63345112D02*
X34515000Y-63345112D01*
X33000000Y-63385112D02*
X34519999Y-63385112D01*
X33000000Y-63425112D02*
X34525000Y-63425112D01*
X33000000Y-63465113D02*
X34529000Y-63465112D01*
X33000000Y-63505112D02*
X34532001Y-63505112D01*
X33000000Y-63545112D02*
X34535000Y-63545112D01*
X33000000Y-63585111D02*
X34537000Y-63585112D01*
X33000000Y-63625112D02*
X34539000Y-63625112D01*
X33000000Y-63665112D02*
X34540000Y-63665111D01*
X33000000Y-63705112D02*
X34540000Y-63705112D01*
X33000001Y-61825112D02*
X33745000Y-61825112D01*
X33000001Y-62265112D02*
X34109000Y-62265112D01*
X33000001Y-62425112D02*
X34206000Y-62425112D01*
X33000001Y-62865112D02*
X34402000Y-62865112D01*
X33000001Y-63305112D02*
X34509000Y-63305112D01*
X34580001Y-63705112D02*
G75*
G02*
X29339999Y-63705112I-2620001J0D01*
G01*
X29339999Y-63705112D02*
G75*
G02*
X34580001Y-63705112I2620001J0D01*
G01*
D12*
%TO.C,U2*%
X16025000Y-22220000D02*
X16025000Y-27590000D01*
X16025000Y-22220000D02*
X66975000Y-22220000D01*
X16025000Y-22220000D02*
X66975000Y-22220000D01*
X16025000Y-27590000D02*
X16025000Y-45280000D01*
X16025000Y-45280000D02*
X16025000Y-50730000D01*
X16025000Y-50730000D02*
X16025000Y-22220000D01*
X66975000Y-22220000D02*
X66975000Y-33289000D01*
X66975000Y-22220000D02*
X66975000Y-50730000D01*
X66975000Y-33289000D02*
X66975000Y-40000000D01*
X66975000Y-40000000D02*
X66975000Y-50730000D01*
X66975000Y-50730000D02*
X16025000Y-50730000D01*
X66975000Y-50730000D02*
X16025000Y-50730000D01*
D13*
X57115000Y-21650000D02*
G75*
G02*
X56915000Y-21650000I-100000J0D01*
G01*
X56915000Y-21650000D02*
G75*
G02*
X57115000Y-21650000I100000J0D01*
G01*
D11*
%TO.C,J1*%
X16760000Y-65410000D02*
X16760000Y-67410000D01*
X16760000Y-69310000D02*
X16760000Y-71210000D01*
X16760000Y-71210000D02*
X26160000Y-71210000D01*
X26160000Y-65410000D02*
X26160000Y-67410000D01*
X26160000Y-69310000D02*
X26160000Y-71210000D01*
%TO.C,D1*%
X38322400Y-63855600D02*
X39342400Y-63855600D01*
X40122400Y-62385600D02*
X40122400Y-65325600D01*
X40242400Y-62385600D02*
X40242400Y-65325600D01*
X40362400Y-62385600D02*
X40362400Y-65325600D01*
X45802400Y-63855600D02*
X44782400Y-63855600D01*
X39342400Y-62385600D02*
X44782400Y-62385600D01*
X44782400Y-65325600D01*
X39342400Y-65325600D01*
X39342400Y-62385600D01*
%TO.C,R2*%
X23340000Y-53290000D02*
X23670000Y-53290000D01*
X23340000Y-59830000D02*
X23340000Y-53290000D01*
X23670000Y-59830000D02*
X23340000Y-59830000D01*
X25750000Y-59830000D02*
X26080000Y-59830000D01*
X26080000Y-53290000D02*
X25750000Y-53290000D01*
X26080000Y-59830000D02*
X26080000Y-53290000D01*
%TO.C,U1*%
X28799999Y-58100000D02*
X28800000Y-54340000D01*
X28800000Y-54340000D02*
X30059999Y-54340000D01*
X35620000Y-54340000D02*
X34360001Y-54340000D01*
X35620001Y-58100000D02*
X35620000Y-54340000D01*
X28900000Y-59380000D02*
X28570000Y-59620000D01*
X28570000Y-59140000D01*
X28900000Y-59380000D01*
G36*
X28900000Y-59380000D02*
G01*
X28570000Y-59620000D01*
X28570000Y-59140000D01*
X28900000Y-59380000D01*
G37*
%TO.C,C2*%
X36200113Y-53525000D02*
X36700113Y-53525000D01*
X36450113Y-53275000D02*
X36450113Y-53775000D01*
X39004888Y-52420000D02*
X39004888Y-53960000D01*
X39004888Y-56040000D02*
X39004888Y-57580000D01*
X39044888Y-56040000D02*
X39044889Y-57580000D01*
X39044889Y-52420000D02*
X39044888Y-53960000D01*
X39084888Y-52421000D02*
X39084888Y-53960000D01*
X39084888Y-56040000D02*
X39084888Y-57579000D01*
X39124888Y-52423000D02*
X39124889Y-53960000D01*
X39124889Y-56040000D02*
X39124888Y-57577000D01*
X39164888Y-52425000D02*
X39164888Y-53960000D01*
X39164888Y-56040000D02*
X39164888Y-57575000D01*
X39204888Y-52427999D02*
X39204888Y-53960000D01*
X39204888Y-56040000D02*
X39204888Y-57572001D01*
X39244887Y-56040000D02*
X39244888Y-57569000D01*
X39244888Y-52431000D02*
X39244887Y-53960000D01*
X39284888Y-52435000D02*
X39284888Y-53960000D01*
X39284888Y-56040000D02*
X39284888Y-57565000D01*
X39324888Y-52440001D02*
X39324888Y-53960000D01*
X39324888Y-56040000D02*
X39324888Y-57559999D01*
X39364888Y-52445000D02*
X39364888Y-53960000D01*
X39364888Y-56040000D02*
X39364888Y-57555000D01*
X39404888Y-52451000D02*
X39404888Y-53959999D01*
X39404888Y-56040001D02*
X39404888Y-57549000D01*
X39444888Y-52457000D02*
X39444888Y-53960000D01*
X39444888Y-56040000D02*
X39444888Y-57543000D01*
X39484888Y-52464000D02*
X39484888Y-53960000D01*
X39484888Y-56040000D02*
X39484888Y-57536000D01*
X39524888Y-52472000D02*
X39524888Y-53960000D01*
X39524888Y-56040000D02*
X39524888Y-57528000D01*
X39564889Y-52481000D02*
X39564889Y-53960000D01*
X39564889Y-56040000D02*
X39564889Y-57519000D01*
X39604888Y-52490000D02*
X39604888Y-53960000D01*
X39604888Y-56040000D02*
X39604888Y-57510000D01*
X39644888Y-52499000D02*
X39644888Y-53960000D01*
X39644888Y-56040000D02*
X39644888Y-57501000D01*
X39684887Y-56040000D02*
X39684888Y-57489999D01*
X39684888Y-52510001D02*
X39684887Y-53960000D01*
X39724888Y-52521000D02*
X39724888Y-53960000D01*
X39724888Y-56040000D02*
X39724888Y-57479000D01*
X39764888Y-52533001D02*
X39764888Y-53960000D01*
X39764888Y-56040000D02*
X39764888Y-57466999D01*
X39804888Y-52545000D02*
X39804888Y-53960000D01*
X39804888Y-56040000D02*
X39804888Y-57455000D01*
X39844888Y-52558000D02*
X39844888Y-53959999D01*
X39844888Y-56040001D02*
X39844888Y-57442000D01*
X39884888Y-52572000D02*
X39884888Y-53960000D01*
X39884888Y-56040000D02*
X39884888Y-57428000D01*
X39924888Y-52587000D02*
X39924888Y-53960000D01*
X39924888Y-56040000D02*
X39924888Y-57413000D01*
X39964888Y-52602000D02*
X39964888Y-53960000D01*
X39964888Y-56040000D02*
X39964888Y-57398000D01*
X40004888Y-52618000D02*
X40004889Y-53960000D01*
X40004889Y-56040000D02*
X40004888Y-57382000D01*
X40044888Y-52635000D02*
X40044888Y-53960000D01*
X40044888Y-56040000D02*
X40044888Y-57365000D01*
X40084888Y-52652999D02*
X40084888Y-53960000D01*
X40084888Y-56040000D02*
X40084888Y-57347001D01*
X40124887Y-56040000D02*
X40124888Y-57329000D01*
X40124888Y-52671000D02*
X40124887Y-53960000D01*
X40164888Y-52691000D02*
X40164888Y-53960000D01*
X40164888Y-56040000D02*
X40164888Y-57309000D01*
X40204887Y-52711000D02*
X40204888Y-53960000D01*
X40204888Y-56040000D02*
X40204887Y-57289000D01*
X40244888Y-52732000D02*
X40244888Y-53960000D01*
X40244888Y-56040000D02*
X40244888Y-57268000D01*
X40284888Y-52754000D02*
X40284888Y-53959999D01*
X40284888Y-56040001D02*
X40284888Y-57246000D01*
X40324888Y-52777000D02*
X40324888Y-53960000D01*
X40324888Y-56040000D02*
X40324888Y-57223000D01*
X40364888Y-52801000D02*
X40364888Y-53960000D01*
X40364888Y-56040000D02*
X40364888Y-57199000D01*
X40404888Y-52825000D02*
X40404888Y-53960000D01*
X40404888Y-56040000D02*
X40404888Y-57175000D01*
X40444888Y-52851000D02*
X40444888Y-53959999D01*
X40444888Y-56040001D02*
X40444888Y-57149000D01*
X40484888Y-52878000D02*
X40484888Y-53960000D01*
X40484888Y-56040000D02*
X40484888Y-57122000D01*
X40524888Y-52905999D02*
X40524888Y-53960000D01*
X40524888Y-56040000D02*
X40524888Y-57094001D01*
X40564887Y-56040000D02*
X40564888Y-57065000D01*
X40564888Y-52935000D02*
X40564887Y-53960000D01*
X40604888Y-52965000D02*
X40604889Y-53960000D01*
X40604889Y-56040000D02*
X40604888Y-57035000D01*
X40644888Y-52997000D02*
X40644888Y-53960000D01*
X40644888Y-56040000D02*
X40644888Y-57003000D01*
X40684888Y-53030000D02*
X40684888Y-53960000D01*
X40684888Y-56040000D02*
X40684888Y-56970000D01*
X40724887Y-56040000D02*
X40724888Y-56936000D01*
X40724888Y-53064000D02*
X40724887Y-53960000D01*
X40764888Y-53099000D02*
X40764888Y-53960000D01*
X40764888Y-56040000D02*
X40764888Y-56901000D01*
X40804888Y-53136000D02*
X40804888Y-53960000D01*
X40804888Y-56040000D02*
X40804888Y-56864000D01*
X40844888Y-53175000D02*
X40844888Y-53960000D01*
X40844888Y-56040000D02*
X40844888Y-56825000D01*
X40884888Y-53215000D02*
X40884888Y-53959999D01*
X40884888Y-56040001D02*
X40884888Y-56785000D01*
X40924888Y-53257000D02*
X40924888Y-53960000D01*
X40924888Y-56040000D02*
X40924888Y-56743000D01*
X40964888Y-53301001D02*
X40964888Y-53960000D01*
X40964888Y-56040000D02*
X40964888Y-56698999D01*
X41004888Y-53348000D02*
X41004888Y-53960000D01*
X41004888Y-56040000D02*
X41004888Y-56652000D01*
X41044888Y-53396000D02*
X41044888Y-56604000D01*
X41084888Y-53447000D02*
X41084888Y-56553000D01*
X41124888Y-53501000D02*
X41124888Y-56499000D01*
X41164888Y-53556999D02*
X41164888Y-56443001D01*
X41204888Y-53617000D02*
X41204888Y-56383000D01*
X41244888Y-53681000D02*
X41244888Y-56319000D01*
X41284888Y-53749000D02*
X41284888Y-56251000D01*
X41324888Y-53823000D02*
X41324888Y-56177000D01*
X41364888Y-53902000D02*
X41364888Y-56098000D01*
X41404888Y-53989000D02*
X41404888Y-56011000D01*
X41444888Y-54086000D02*
X41444888Y-55914000D01*
X41484889Y-54195000D02*
X41484889Y-55805000D01*
X41524888Y-54323000D02*
X41524888Y-55677000D01*
X41564888Y-54483000D02*
X41564888Y-55517000D01*
X41604888Y-54717000D02*
X41604888Y-55283000D01*
X41624889Y-55000000D02*
G75*
G02*
X36384887Y-55000000I-2620001J0D01*
G01*
X36384887Y-55000000D02*
G75*
G02*
X41624889Y-55000000I2620001J0D01*
G01*
%TO.C,J3*%
X16340000Y-14870000D02*
X16340000Y-17630000D01*
X49470000Y-14870000D02*
X16340000Y-14870000D01*
X49470000Y-14870000D02*
X49470000Y-17630000D01*
X49470000Y-17630000D02*
X16340000Y-17630000D01*
X50740000Y-14870001D02*
X52120000Y-14870000D01*
X52120000Y-14870000D02*
X52119999Y-16250000D01*
%TD*%
M02*
