%TF.GenerationSoftware,KiCad,Pcbnew,9.0.8*%
%TF.CreationDate,2026-05-11T22:23:55-07:00*%
%TF.ProjectId,FlowState,466c6f77-5374-4617-9465-2e6b69636164,rev?*%
%TF.SameCoordinates,Original*%
%TF.FileFunction,Copper,L1,Top*%
%TF.FilePolarity,Positive*%
%FSLAX46Y46*%
G04 Gerber Fmt 4.6, Leading zero omitted, Abs format (unit mm)*
G04 Created by KiCad (PCBNEW 9.0.8) date 2026-05-11 22:23:55*
%MOMM*%
%LPD*%
G01*
G04 APERTURE LIST*
G04 Aperture macros list*
%AMRoundRect*
0 Rectangle with rounded corners*
0 $1 Rounding radius*
0 $2 $3 $4 $5 $6 $7 $8 $9 X,Y pos of 4 corners*
0 Add a 4 corners polygon primitive as box body*
4,1,4,$2,$3,$4,$5,$6,$7,$8,$9,$2,$3,0*
0 Add four circle primitives for the rounded corners*
1,1,$1+$1,$2,$3*
1,1,$1+$1,$4,$5*
1,1,$1+$1,$6,$7*
1,1,$1+$1,$8,$9*
0 Add four rect primitives between the rounded corners*
20,1,$1+$1,$2,$3,$4,$5,0*
20,1,$1+$1,$4,$5,$6,$7,0*
20,1,$1+$1,$6,$7,$8,$9,0*
20,1,$1+$1,$8,$9,$2,$3,0*%
G04 Aperture macros list end*
%TA.AperFunction,ComponentPad*%
%ADD10R,1.700000X1.700000*%
%TD*%
%TA.AperFunction,ComponentPad*%
%ADD11C,1.700000*%
%TD*%
%TA.AperFunction,ComponentPad*%
%ADD12C,1.600000*%
%TD*%
%TA.AperFunction,ComponentPad*%
%ADD13RoundRect,0.250000X0.550000X-0.550000X0.550000X0.550000X-0.550000X0.550000X-0.550000X-0.550000X0*%
%TD*%
%TA.AperFunction,ComponentPad*%
%ADD14R,2.000000X2.000000*%
%TD*%
%TA.AperFunction,ComponentPad*%
%ADD15C,2.000000*%
%TD*%
%TA.AperFunction,SMDPad,CuDef*%
%ADD16R,0.600000X1.450000*%
%TD*%
%TA.AperFunction,SMDPad,CuDef*%
%ADD17R,0.300000X1.450000*%
%TD*%
%TA.AperFunction,HeatsinkPad*%
%ADD18O,1.000000X2.100000*%
%TD*%
%TA.AperFunction,HeatsinkPad*%
%ADD19O,1.000000X1.600000*%
%TD*%
%TA.AperFunction,ComponentPad*%
%ADD20RoundRect,0.249999X-0.850001X-0.850001X0.850001X-0.850001X0.850001X0.850001X-0.850001X0.850001X0*%
%TD*%
%TA.AperFunction,ComponentPad*%
%ADD21C,2.200000*%
%TD*%
%TA.AperFunction,SMDPad,CuDef*%
%ADD22RoundRect,0.375000X0.375000X-0.625000X0.375000X0.625000X-0.375000X0.625000X-0.375000X-0.625000X0*%
%TD*%
%TA.AperFunction,SMDPad,CuDef*%
%ADD23RoundRect,0.500000X1.400000X-0.500000X1.400000X0.500000X-1.400000X0.500000X-1.400000X-0.500000X0*%
%TD*%
%TA.AperFunction,ComponentPad*%
%ADD24RoundRect,0.250000X-0.550000X-0.550000X0.550000X-0.550000X0.550000X0.550000X-0.550000X0.550000X0*%
%TD*%
%TA.AperFunction,ViaPad*%
%ADD25C,0.600000*%
%TD*%
%TA.AperFunction,Conductor*%
%ADD26C,0.200000*%
%TD*%
%TA.AperFunction,Conductor*%
%ADD27C,0.400000*%
%TD*%
G04 APERTURE END LIST*
D10*
%TO.P,J4,1,Pin_1*%
%TO.N,GND*%
X58670000Y-53500000D03*
D11*
%TO.P,J4,2,Pin_2*%
%TO.N,+3V3*%
X61210000Y-53500000D03*
%TO.P,J4,3,Pin_3*%
%TO.N,SOIL_SIG*%
X63749999Y-53500000D03*
%TD*%
D10*
%TO.P,J5,1,Pin_1*%
%TO.N,SD_CS*%
X57710000Y-16250000D03*
D11*
%TO.P,J5,2,Pin_2*%
%TO.N,MOSI*%
X60250000Y-16250000D03*
%TO.P,J5,3,Pin_3*%
%TO.N,MISO*%
X62789999Y-16250000D03*
%TO.P,J5,4,Pin_4*%
%TO.N,SCK*%
X65330000Y-16250000D03*
%TD*%
D10*
%TO.P,J6,1,Pin_1*%
%TO.N,USB_5V*%
X60485000Y-57860000D03*
D11*
%TO.P,J6,2,Pin_2*%
%TO.N,VCC_5V*%
X63025000Y-57860000D03*
%TD*%
D12*
%TO.P,C3,1*%
%TO.N,+3V3*%
X56997600Y-20929600D03*
%TO.P,C3,2*%
%TO.N,GND*%
X54497600Y-20929600D03*
%TD*%
D10*
%TO.P,J2,1,Pin_1*%
%TO.N,GND*%
X44670000Y-53500000D03*
D11*
%TO.P,J2,2,Pin_2*%
%TO.N,+3V3*%
X47210000Y-53500000D03*
%TO.P,J2,3,Pin_3*%
%TO.N,I2C_SCL*%
X49749999Y-53500000D03*
%TO.P,J2,4,Pin_4*%
%TO.N,I2C_SDA*%
X52290000Y-53500000D03*
%TD*%
D12*
%TO.P,R1,1*%
%TO.N,GND*%
X18210000Y-60370000D03*
%TO.P,R1,2*%
%TO.N,USB_CC1*%
X18210000Y-52750000D03*
%TD*%
D13*
%TO.P,C1,1*%
%TO.N,VCC_5V*%
X31960000Y-64705112D03*
D12*
%TO.P,C1,2*%
%TO.N,GND*%
X31960000Y-62705111D03*
%TD*%
D14*
%TO.P,U2,1,3V3*%
%TO.N,+3V3*%
X57015000Y-23800000D03*
D15*
%TO.P,U2,2,GND*%
%TO.N,GND*%
X54475000Y-23799999D03*
%TO.P,U2,3,D15*%
%TO.N,SD_CS*%
X51935000Y-23800000D03*
%TO.P,U2,4,D2*%
%TO.N,LCD_DC*%
X49395000Y-23800000D03*
%TO.P,U2,5,D4*%
%TO.N,LCD_RESET*%
X46855000Y-23800000D03*
%TO.P,U2,6,RX2*%
%TO.N,unconnected-(U2-RX2-Pad6)*%
X44315000Y-23799999D03*
%TO.P,U2,7,TX2*%
%TO.N,unconnected-(U2-TX2-Pad7)*%
X41774999Y-23800000D03*
%TO.P,U2,8,D5*%
%TO.N,unconnected-(U2-D5-Pad8)*%
X39235000Y-23800000D03*
%TO.P,U2,9,D18*%
%TO.N,SCK*%
X36695000Y-23800000D03*
%TO.P,U2,10,D19*%
%TO.N,MISO*%
X34155000Y-23800000D03*
%TO.P,U2,11,D21*%
%TO.N,I2C_SDA*%
X31615000Y-23799999D03*
%TO.P,U2,12,RX0*%
%TO.N,unconnected-(U2-RX0-Pad12)*%
X29075000Y-23800000D03*
%TO.P,U2,13,TX0*%
%TO.N,unconnected-(U2-TX0-Pad13)*%
X26535000Y-23800000D03*
%TO.P,U2,14,D22*%
%TO.N,I2C_SCL*%
X23995000Y-23800000D03*
%TO.P,U2,15,D23*%
%TO.N,MOSI*%
X21455000Y-23799999D03*
%TO.P,U2,16,EN*%
%TO.N,unconnected-(U2-EN-Pad16)*%
X21455000Y-49200001D03*
%TO.P,U2,17,VP*%
%TO.N,unconnected-(U2-VP-Pad17)*%
X23995000Y-49200000D03*
%TO.P,U2,18,VN*%
%TO.N,unconnected-(U2-VN-Pad18)*%
X26535000Y-49200000D03*
%TO.P,U2,19,D34*%
%TO.N,SOIL_SIG*%
X29075000Y-49200000D03*
%TO.P,U2,20,D35*%
%TO.N,unconnected-(U2-D35-Pad20)*%
X31615000Y-49200001D03*
%TO.P,U2,21,D32*%
%TO.N,T_IRQ*%
X34155000Y-49200000D03*
%TO.P,U2,22,D33*%
%TO.N,T_CS*%
X36695000Y-49200000D03*
%TO.P,U2,23,D25*%
%TO.N,LCD_CS*%
X39235000Y-49200000D03*
%TO.P,U2,24,D26*%
%TO.N,unconnected-(U2-D26-Pad24)*%
X41774999Y-49200000D03*
%TO.P,U2,25,D27*%
%TO.N,unconnected-(U2-D27-Pad25)*%
X44315000Y-49200001D03*
%TO.P,U2,26,D14*%
%TO.N,unconnected-(U2-D14-Pad26)*%
X46855000Y-49200000D03*
%TO.P,U2,27,D12*%
%TO.N,unconnected-(U2-D12-Pad27)*%
X49395000Y-49200000D03*
%TO.P,U2,28,D13*%
%TO.N,unconnected-(U2-D13-Pad28)*%
X51935000Y-49200000D03*
%TO.P,U2,29,GND*%
%TO.N,GND*%
X54475000Y-49200001D03*
%TO.P,U2,30,VIN*%
%TO.N,unconnected-(U2-VIN-Pad30)*%
X57015000Y-49200000D03*
%TD*%
D16*
%TO.P,J1,A1,GND*%
%TO.N,GND*%
X18210000Y-63265000D03*
%TO.P,J1,A4,VBUS*%
%TO.N,USB_5V*%
X19010000Y-63265000D03*
D17*
%TO.P,J1,A5,CC1*%
%TO.N,USB_CC1*%
X20210000Y-63265000D03*
%TO.P,J1,A6,D+*%
%TO.N,unconnected-(J1-D+-PadA6)*%
X21210000Y-63265000D03*
%TO.P,J1,A7,D-*%
%TO.N,unconnected-(J1-D--PadA7)*%
X21710000Y-63265000D03*
%TO.P,J1,A8,SBU1*%
%TO.N,unconnected-(J1-SBU1-PadA8)*%
X22710000Y-63265000D03*
D16*
%TO.P,J1,A9,VBUS*%
%TO.N,USB_5V*%
X23910000Y-63265000D03*
%TO.P,J1,A12,GND*%
%TO.N,GND*%
X24710000Y-63265000D03*
%TO.P,J1,B1,GND*%
X24710000Y-63265000D03*
%TO.P,J1,B4,VBUS*%
%TO.N,USB_5V*%
X23910000Y-63265000D03*
D17*
%TO.P,J1,B5,CC2*%
%TO.N,USB_CC2*%
X23210000Y-63265000D03*
%TO.P,J1,B6,D+*%
%TO.N,unconnected-(J1-D+-PadB6)*%
X22210000Y-63265000D03*
%TO.P,J1,B7,D-*%
%TO.N,unconnected-(J1-D--PadB7)*%
X20710000Y-63265000D03*
%TO.P,J1,B8,SBU2*%
%TO.N,unconnected-(J1-SBU2-PadB8)*%
X19710000Y-63265000D03*
D16*
%TO.P,J1,B9,VBUS*%
%TO.N,USB_5V*%
X19010000Y-63265000D03*
%TO.P,J1,B12,GND*%
%TO.N,GND*%
X18210000Y-63265000D03*
D18*
%TO.P,J1,S1,SHIELD*%
X17140000Y-64180000D03*
D19*
X17140000Y-68360000D03*
D18*
X25780000Y-64180000D03*
D19*
X25780000Y-68360000D03*
%TD*%
D20*
%TO.P,D1,1,K*%
%TO.N,VCC_5V*%
X36982400Y-63855600D03*
D21*
%TO.P,D1,2,A*%
%TO.N,USB_5V*%
X47142400Y-63855600D03*
%TD*%
D12*
%TO.P,R2,1*%
%TO.N,GND*%
X24710000Y-60370000D03*
%TO.P,R2,2*%
%TO.N,USB_CC2*%
X24710000Y-52750000D03*
%TD*%
D22*
%TO.P,U1,1,GND*%
%TO.N,GND*%
X29910000Y-59400000D03*
%TO.P,U1,2,VO*%
%TO.N,+3V3*%
X32210000Y-59399999D03*
D23*
X32210000Y-53100001D03*
D22*
%TO.P,U1,3,VI*%
%TO.N,VCC_5V*%
X34510000Y-59400000D03*
%TD*%
D24*
%TO.P,C2,1*%
%TO.N,+3V3*%
X38004888Y-55000000D03*
D12*
%TO.P,C2,2*%
%TO.N,GND*%
X40004889Y-55000000D03*
%TD*%
D10*
%TO.P,J3,1,Pin_1*%
%TO.N,VCC_5V*%
X50740000Y-16250000D03*
D11*
%TO.P,J3,2,Pin_2*%
%TO.N,GND*%
X48200000Y-16250000D03*
%TO.P,J3,3,Pin_3*%
%TO.N,LCD_CS*%
X45660001Y-16250000D03*
%TO.P,J3,4,Pin_4*%
%TO.N,LCD_RESET*%
X43120000Y-16250000D03*
%TO.P,J3,5,Pin_5*%
%TO.N,LCD_DC*%
X40580000Y-16250000D03*
%TO.P,J3,6,Pin_6*%
%TO.N,MOSI*%
X38040000Y-16250000D03*
%TO.P,J3,7,Pin_7*%
%TO.N,SCK*%
X35500000Y-16250000D03*
%TO.P,J3,8,Pin_8*%
%TO.N,+3V3*%
X32959999Y-16250000D03*
%TO.P,J3,9,Pin_9*%
%TO.N,MISO*%
X30420000Y-16250000D03*
%TO.P,J3,10,Pin_10*%
%TO.N,SCK*%
X27880000Y-16250000D03*
%TO.P,J3,11,Pin_11*%
%TO.N,T_CS*%
X25340000Y-16250000D03*
%TO.P,J3,12,Pin_12*%
%TO.N,MOSI*%
X22800001Y-16250000D03*
%TO.P,J3,13,Pin_13*%
%TO.N,MISO*%
X20260000Y-16250000D03*
%TO.P,J3,14,Pin_14*%
%TO.N,T_IRQ*%
X17720000Y-16250000D03*
%TD*%
D25*
%TO.N,GND*%
X55206905Y-49966758D03*
X49006633Y-16922194D03*
X19000000Y-60750000D03*
X25486916Y-60916719D03*
X55349706Y-20674853D03*
%TO.N,LCD_CS*%
X39497000Y-46650000D03*
X52431504Y-41929496D03*
X63400000Y-31115000D03*
X53721000Y-40640000D03*
%TO.N,SOIL_SIG*%
X58250000Y-47250000D03*
X59942529Y-47245471D03*
X34755000Y-47250000D03*
%TO.N,USB_5V*%
X23280000Y-67200000D03*
%TO.N,SD_CS*%
X53700735Y-17799265D03*
%TO.N,LCD_RESET*%
X42280736Y-18780735D03*
%TD*%
D26*
%TO.N,GND*%
X58670000Y-53500000D02*
X58779694Y-53500000D01*
X54475000Y-49200001D02*
X54475000Y-49234853D01*
X48334439Y-16250000D02*
X49006633Y-16922194D01*
X24940197Y-60370000D02*
X25486916Y-60916719D01*
X31960000Y-61450000D02*
X29910000Y-59400000D01*
X48200000Y-16250000D02*
X48334439Y-16250000D01*
X50312345Y-54650000D02*
X51140000Y-53822345D01*
X18210000Y-60370000D02*
X18620000Y-60370000D01*
X26305111Y-68360000D02*
X25780000Y-68360000D01*
X25780000Y-68360000D02*
X25780000Y-64180000D01*
X17295000Y-64180000D02*
X18210000Y-63265000D01*
X58779694Y-53500000D02*
X59465281Y-54185587D01*
X18620000Y-60370000D02*
X19000000Y-60750000D01*
X17140000Y-68360000D02*
X17140000Y-64180000D01*
X18210000Y-61540000D02*
X19000000Y-60750000D01*
X25625000Y-64180000D02*
X24710000Y-63265000D01*
X17140000Y-64180000D02*
X17295000Y-64180000D01*
X54497600Y-20929600D02*
X54497600Y-20830400D01*
X24710000Y-60370000D02*
X24940197Y-60370000D01*
X18210000Y-63265000D02*
X18210000Y-61540000D01*
X45820000Y-54650000D02*
X50312345Y-54650000D01*
X31960000Y-62705111D02*
X31960000Y-61450000D01*
X51140000Y-53822345D02*
X51140000Y-52535001D01*
X54497600Y-20830400D02*
X54653147Y-20674853D01*
X31960000Y-62705111D02*
X26305111Y-68360000D01*
X54653147Y-20674853D02*
X55349706Y-20674853D01*
X24710000Y-61693635D02*
X25486916Y-60916719D01*
X51140000Y-52535001D02*
X54475000Y-49200001D01*
X24710000Y-63265000D02*
X24710000Y-61693635D01*
X54475000Y-49234853D02*
X55206905Y-49966758D01*
X44670000Y-53500000D02*
X45820000Y-54650000D01*
X25780000Y-64180000D02*
X25625000Y-64180000D01*
D27*
%TO.N,VCC_5V*%
X62011981Y-18499265D02*
X66929000Y-23416284D01*
X66929000Y-53956000D02*
X63025000Y-57860000D01*
X61335000Y-56170000D02*
X43890000Y-56170000D01*
X36982400Y-63855600D02*
X32809512Y-63855600D01*
X50740000Y-16250000D02*
X52989265Y-18499265D01*
X63025000Y-57860000D02*
X61335000Y-56170000D01*
X31960000Y-64705112D02*
X34510000Y-62155112D01*
X52989265Y-18499265D02*
X62011981Y-18499265D01*
X34510000Y-62155112D02*
X34510000Y-59400000D01*
X43890000Y-56170000D02*
X40660000Y-59400000D01*
X40660000Y-59400000D02*
X34510000Y-59400000D01*
X32809512Y-63855600D02*
X31960000Y-64705112D01*
X66929000Y-23416284D02*
X66929000Y-53956000D01*
D26*
%TO.N,LCD_CS*%
X45660001Y-16250000D02*
X48560001Y-19150000D01*
X48560001Y-19150000D02*
X57455635Y-19150000D01*
X39235000Y-46912000D02*
X39235000Y-49200000D01*
X63125000Y-24819365D02*
X63125000Y-24986295D01*
X53721000Y-40640000D02*
X52431504Y-41929496D01*
X39497000Y-46650000D02*
X39235000Y-46912000D01*
X57455635Y-19150000D02*
X63125000Y-24819365D01*
X63400000Y-25261295D02*
X63400000Y-31115000D01*
X63125000Y-24986295D02*
X63400000Y-25261295D01*
%TO.N,SOIL_SIG*%
X31025000Y-47250000D02*
X29075000Y-49200000D01*
X34755000Y-47250000D02*
X31025000Y-47250000D01*
X58254529Y-47245471D02*
X58250000Y-47250000D01*
X59942529Y-47245471D02*
X58254529Y-47245471D01*
%TO.N,I2C_SDA*%
X52290000Y-53500000D02*
X54553478Y-53500000D01*
X58315000Y-48661522D02*
X34753478Y-25100000D01*
X32915001Y-25100000D02*
X31615000Y-23799999D01*
X54553478Y-53500000D02*
X58315000Y-49738478D01*
X34753478Y-25100000D02*
X32915001Y-25100000D01*
X58315000Y-49738478D02*
X58315000Y-48661522D01*
%TO.N,USB_CC1*%
X20210000Y-63265000D02*
X20210000Y-54750000D01*
X20210000Y-54750000D02*
X18210000Y-52750000D01*
%TO.N,USB_CC2*%
X23210000Y-54250000D02*
X24710000Y-52750000D01*
X23210000Y-63265000D02*
X23210000Y-54250000D01*
D27*
%TO.N,USB_5V*%
X23910000Y-64053984D02*
X23575000Y-64388984D01*
X23280000Y-67200000D02*
X22900000Y-66820000D01*
X23575000Y-64388984D02*
X23575000Y-64643000D01*
X19599016Y-64643000D02*
X22900000Y-64643000D01*
X19010000Y-63265000D02*
X19010000Y-64053984D01*
X54489400Y-63855600D02*
X60485000Y-57860000D01*
X23910000Y-63265000D02*
X23910000Y-64053984D01*
X22900000Y-64643000D02*
X23575000Y-64643000D01*
X47142400Y-63855600D02*
X54489400Y-63855600D01*
X19010000Y-64053984D02*
X19599016Y-64643000D01*
X22900000Y-66820000D02*
X22900000Y-64643000D01*
%TO.N,+3V3*%
X61210000Y-53500000D02*
X62700000Y-52010000D01*
X61210000Y-53500000D02*
X59560000Y-55150000D01*
X43420000Y-52264000D02*
X43434000Y-52250000D01*
X59560000Y-55150000D02*
X43820000Y-55150000D01*
X36104889Y-53100001D02*
X38004888Y-55000000D01*
X40754888Y-52250000D02*
X43434000Y-52250000D01*
X43434000Y-52250000D02*
X45960000Y-52250000D01*
X32210000Y-59399999D02*
X32210000Y-53100001D01*
X57015000Y-23800000D02*
X57015000Y-20947000D01*
X62700000Y-52010000D02*
X62700000Y-29485000D01*
X43420000Y-54750000D02*
X43420000Y-52264000D01*
X32210000Y-53100001D02*
X36104889Y-53100001D01*
X43820000Y-55150000D02*
X43420000Y-54750000D01*
X62700000Y-29485000D02*
X57015000Y-23800000D01*
X38004888Y-55000000D02*
X40754888Y-52250000D01*
X45960000Y-52250000D02*
X47210000Y-53500000D01*
X57015000Y-20947000D02*
X56997600Y-20929600D01*
D26*
%TO.N,SD_CS*%
X54000000Y-17500000D02*
X54750000Y-17500000D01*
X53700735Y-17799265D02*
X54000000Y-17500000D01*
X56000000Y-16250000D02*
X57710000Y-16250000D01*
X54750000Y-17500000D02*
X56000000Y-16250000D01*
%TO.N,T_CS*%
X25340000Y-16250000D02*
X20155000Y-21435000D01*
X35855422Y-27490000D02*
X36695000Y-28329578D01*
X20155000Y-21435000D02*
X20155000Y-24338477D01*
X23306523Y-27490000D02*
X35855422Y-27490000D01*
X36695000Y-28329578D02*
X36695000Y-49200000D01*
X20155000Y-24338477D02*
X23306523Y-27490000D01*
%TO.N,LCD_RESET*%
X43120000Y-17941471D02*
X42280736Y-18780735D01*
X43120000Y-16250000D02*
X43120000Y-17941471D01*
%TO.N,SCK*%
X34350000Y-17400000D02*
X35500000Y-16250000D01*
X35500000Y-16250000D02*
X36695000Y-17445000D01*
X27880000Y-16250000D02*
X29030000Y-17400000D01*
X29030000Y-17400000D02*
X34350000Y-17400000D01*
X36695000Y-17445000D02*
X36695000Y-23800000D01*
%TO.N,MOSI*%
X23950001Y-15100000D02*
X36890000Y-15100000D01*
X59100000Y-15100000D02*
X60250000Y-16250000D01*
X38040000Y-16250000D02*
X39190000Y-15100000D01*
X36890000Y-15100000D02*
X38040000Y-16250000D01*
X22800001Y-16250000D02*
X23950001Y-15100000D01*
X39190000Y-15100000D02*
X59100000Y-15100000D01*
%TD*%
%TA.AperFunction,Conductor*%
%TO.N,+3V3*%
G36*
X36114611Y-51158968D02*
G01*
X36117979Y-51167100D01*
X36117978Y-51167258D01*
X36020769Y-58256258D01*
X36017289Y-58264342D01*
X36009270Y-58267600D01*
X35166170Y-58267600D01*
X35161769Y-58266725D01*
X35035236Y-58214313D01*
X35035238Y-58214313D01*
X34922721Y-58199500D01*
X34922720Y-58199500D01*
X34097280Y-58199500D01*
X34097278Y-58199500D01*
X33984762Y-58214313D01*
X33858231Y-58266725D01*
X33853830Y-58267600D01*
X30566170Y-58267600D01*
X30561769Y-58266725D01*
X30435236Y-58214313D01*
X30435238Y-58214313D01*
X30322721Y-58199500D01*
X30322720Y-58199500D01*
X29497280Y-58199500D01*
X29497278Y-58199500D01*
X29384762Y-58214313D01*
X29258231Y-58266725D01*
X29253830Y-58267600D01*
X27138204Y-58267600D01*
X27130072Y-58264232D01*
X27126704Y-58256100D01*
X27126705Y-58255936D01*
X27227976Y-51166936D01*
X27231460Y-51158853D01*
X27239475Y-51155600D01*
X36106479Y-51155600D01*
X36114611Y-51158968D01*
G37*
%TD.AperFunction*%
%TD*%
M02*
