%TF.GenerationSoftware,KiCad,Pcbnew,9.0.8*%
%TF.CreationDate,2026-05-11T22:23:55-07:00*%
%TF.ProjectId,FlowState,466c6f77-5374-4617-9465-2e6b69636164,rev?*%
%TF.SameCoordinates,Original*%
%TF.FileFunction,Soldermask,Bot*%
%TF.FilePolarity,Negative*%
%FSLAX46Y46*%
G04 Gerber Fmt 4.6, Leading zero omitted, Abs format (unit mm)*
G04 Created by KiCad (PCBNEW 9.0.8) date 2026-05-11 22:23:55*
%MOMM*%
%LPD*%
G01*
G04 APERTURE LIST*
G04 Aperture macros list*
%AMRoundRect*
0 Rectangle with rounded corners*
0 $1 Rounding radius*
0 $2 $3 $4 $5 $6 $7 $8 $9 X,Y pos of 4 corners*
0 Add a 4 corners polygon primitive as box body*
4,1,4,$2,$3,$4,$5,$6,$7,$8,$9,$2,$3,0*
0 Add four circle primitives for the rounded corners*
1,1,$1+$1,$2,$3*
1,1,$1+$1,$4,$5*
1,1,$1+$1,$6,$7*
1,1,$1+$1,$8,$9*
0 Add four rect primitives between the rounded corners*
20,1,$1+$1,$2,$3,$4,$5,0*
20,1,$1+$1,$4,$5,$6,$7,0*
20,1,$1+$1,$6,$7,$8,$9,0*
20,1,$1+$1,$8,$9,$2,$3,0*%
G04 Aperture macros list end*
%ADD10R,1.700000X1.700000*%
%ADD11C,1.700000*%
%ADD12C,1.600000*%
%ADD13RoundRect,0.250000X0.550000X-0.550000X0.550000X0.550000X-0.550000X0.550000X-0.550000X-0.550000X0*%
%ADD14C,3.000000*%
%ADD15RoundRect,0.102000X-1.000000X1.000000X-1.000000X-1.000000X1.000000X-1.000000X1.000000X1.000000X0*%
%ADD16C,2.204000*%
%ADD17C,0.650000*%
%ADD18O,1.000000X2.100000*%
%ADD19O,1.000000X1.600000*%
%ADD20RoundRect,0.249999X-0.850001X-0.850001X0.850001X-0.850001X0.850001X0.850001X-0.850001X0.850001X0*%
%ADD21C,2.200000*%
%ADD22RoundRect,0.250000X-0.550000X-0.550000X0.550000X-0.550000X0.550000X0.550000X-0.550000X0.550000X0*%
G04 APERTURE END LIST*
D10*
%TO.C,J4*%
X58670000Y-53500000D03*
D11*
X61210000Y-53500000D03*
X63749999Y-53500000D03*
%TD*%
D10*
%TO.C,J5*%
X57710000Y-16250000D03*
D11*
X60250000Y-16250000D03*
X62789999Y-16250000D03*
X65330000Y-16250000D03*
%TD*%
D10*
%TO.C,J6*%
X60485000Y-57860000D03*
D11*
X63025000Y-57860000D03*
%TD*%
D12*
%TO.C,C3*%
X56997600Y-20929600D03*
X54497600Y-20929600D03*
%TD*%
D10*
%TO.C,J2*%
X44670000Y-53500000D03*
D11*
X47210000Y-53500000D03*
X49749999Y-53500000D03*
X52290000Y-53500000D03*
%TD*%
D12*
%TO.C,R1*%
X18210000Y-60370000D03*
X18210000Y-52750000D03*
%TD*%
D13*
%TO.C,C1*%
X31960000Y-64705112D03*
D12*
X31960000Y-62705111D03*
%TD*%
D14*
%TO.C,U2*%
X64975000Y-24220000D03*
X18025000Y-24220000D03*
X64975000Y-48730000D03*
X18025000Y-48730000D03*
D15*
X57015000Y-23800000D03*
D16*
X54475000Y-23799999D03*
X51935000Y-23800000D03*
X49395000Y-23800000D03*
X46855000Y-23800000D03*
X44315000Y-23799999D03*
X41774999Y-23800000D03*
X39235000Y-23800000D03*
X36695000Y-23800000D03*
X34155000Y-23800000D03*
X31615000Y-23799999D03*
X29075000Y-23800000D03*
X26535000Y-23800000D03*
X23995000Y-23800000D03*
X21455000Y-23799999D03*
X21455000Y-49200001D03*
X23995000Y-49200000D03*
X26535000Y-49200000D03*
X29075000Y-49200000D03*
X31615000Y-49200001D03*
X34155000Y-49200000D03*
X36695000Y-49200000D03*
X39235000Y-49200000D03*
X41774999Y-49200000D03*
X44315000Y-49200001D03*
X46855000Y-49200000D03*
X49395000Y-49200000D03*
X51935000Y-49200000D03*
X54475000Y-49200001D03*
X57015000Y-49200000D03*
%TD*%
D17*
%TO.C,J1*%
X18570000Y-64710000D03*
X24350000Y-64710000D03*
D18*
X17140000Y-64180000D03*
D19*
X17140000Y-68360000D03*
D18*
X25780000Y-64180000D03*
D19*
X25780000Y-68360000D03*
%TD*%
D20*
%TO.C,D1*%
X36982400Y-63855600D03*
D21*
X47142400Y-63855600D03*
%TD*%
D12*
%TO.C,R2*%
X24710000Y-60370000D03*
X24710000Y-52750000D03*
%TD*%
D22*
%TO.C,C2*%
X38004888Y-55000000D03*
D12*
X40004889Y-55000000D03*
%TD*%
D10*
%TO.C,J3*%
X50740000Y-16250000D03*
D11*
X48200000Y-16250000D03*
X45660001Y-16250000D03*
X43120000Y-16250000D03*
X40580000Y-16250000D03*
X38040000Y-16250000D03*
X35500000Y-16250000D03*
X32959999Y-16250000D03*
X30420000Y-16250000D03*
X27880000Y-16250000D03*
X25340000Y-16250000D03*
X22800001Y-16250000D03*
X20260000Y-16250000D03*
X17720000Y-16250000D03*
%TD*%
M02*
