%TF.GenerationSoftware,KiCad,Pcbnew,9.0.8*%
%TF.CreationDate,2026-05-11T22:23:55-07:00*%
%TF.ProjectId,FlowState,466c6f77-5374-4617-9465-2e6b69636164,rev?*%
%TF.SameCoordinates,Original*%
%TF.FileFunction,Copper,L2,Bot*%
%TF.FilePolarity,Positive*%
%FSLAX46Y46*%
G04 Gerber Fmt 4.6, Leading zero omitted, Abs format (unit mm)*
G04 Created by KiCad (PCBNEW 9.0.8) date 2026-05-11 22:23:55*
%MOMM*%
%LPD*%
G01*
G04 APERTURE LIST*
G04 Aperture macros list*
%AMRoundRect*
0 Rectangle with rounded corners*
0 $1 Rounding radius*
0 $2 $3 $4 $5 $6 $7 $8 $9 X,Y pos of 4 corners*
0 Add a 4 corners polygon primitive as box body*
4,1,4,$2,$3,$4,$5,$6,$7,$8,$9,$2,$3,0*
0 Add four circle primitives for the rounded corners*
1,1,$1+$1,$2,$3*
1,1,$1+$1,$4,$5*
1,1,$1+$1,$6,$7*
1,1,$1+$1,$8,$9*
0 Add four rect primitives between the rounded corners*
20,1,$1+$1,$2,$3,$4,$5,0*
20,1,$1+$1,$4,$5,$6,$7,0*
20,1,$1+$1,$6,$7,$8,$9,0*
20,1,$1+$1,$8,$9,$2,$3,0*%
G04 Aperture macros list end*
%TA.AperFunction,ComponentPad*%
%ADD10R,1.700000X1.700000*%
%TD*%
%TA.AperFunction,ComponentPad*%
%ADD11C,1.700000*%
%TD*%
%TA.AperFunction,ComponentPad*%
%ADD12C,1.600000*%
%TD*%
%TA.AperFunction,ComponentPad*%
%ADD13RoundRect,0.250000X0.550000X-0.550000X0.550000X0.550000X-0.550000X0.550000X-0.550000X-0.550000X0*%
%TD*%
%TA.AperFunction,ComponentPad*%
%ADD14R,2.000000X2.000000*%
%TD*%
%TA.AperFunction,ComponentPad*%
%ADD15C,2.000000*%
%TD*%
%TA.AperFunction,HeatsinkPad*%
%ADD16O,1.000000X2.100000*%
%TD*%
%TA.AperFunction,HeatsinkPad*%
%ADD17O,1.000000X1.600000*%
%TD*%
%TA.AperFunction,ComponentPad*%
%ADD18RoundRect,0.249999X-0.850001X-0.850001X0.850001X-0.850001X0.850001X0.850001X-0.850001X0.850001X0*%
%TD*%
%TA.AperFunction,ComponentPad*%
%ADD19C,2.200000*%
%TD*%
%TA.AperFunction,ComponentPad*%
%ADD20RoundRect,0.250000X-0.550000X-0.550000X0.550000X-0.550000X0.550000X0.550000X-0.550000X0.550000X0*%
%TD*%
%TA.AperFunction,ViaPad*%
%ADD21C,0.600000*%
%TD*%
%TA.AperFunction,Conductor*%
%ADD22C,0.200000*%
%TD*%
%TA.AperFunction,Conductor*%
%ADD23C,0.400000*%
%TD*%
G04 APERTURE END LIST*
D10*
%TO.P,J4,1,Pin_1*%
%TO.N,GND*%
X58670000Y-53500000D03*
D11*
%TO.P,J4,2,Pin_2*%
%TO.N,+3V3*%
X61210000Y-53500000D03*
%TO.P,J4,3,Pin_3*%
%TO.N,SOIL_SIG*%
X63749999Y-53500000D03*
%TD*%
D10*
%TO.P,J5,1,Pin_1*%
%TO.N,SD_CS*%
X57710000Y-16250000D03*
D11*
%TO.P,J5,2,Pin_2*%
%TO.N,MOSI*%
X60250000Y-16250000D03*
%TO.P,J5,3,Pin_3*%
%TO.N,MISO*%
X62789999Y-16250000D03*
%TO.P,J5,4,Pin_4*%
%TO.N,SCK*%
X65330000Y-16250000D03*
%TD*%
D10*
%TO.P,J6,1,Pin_1*%
%TO.N,USB_5V*%
X60485000Y-57860000D03*
D11*
%TO.P,J6,2,Pin_2*%
%TO.N,VCC_5V*%
X63025000Y-57860000D03*
%TD*%
D12*
%TO.P,C3,1*%
%TO.N,+3V3*%
X56997600Y-20929600D03*
%TO.P,C3,2*%
%TO.N,GND*%
X54497600Y-20929600D03*
%TD*%
D10*
%TO.P,J2,1,Pin_1*%
%TO.N,GND*%
X44670000Y-53500000D03*
D11*
%TO.P,J2,2,Pin_2*%
%TO.N,+3V3*%
X47210000Y-53500000D03*
%TO.P,J2,3,Pin_3*%
%TO.N,I2C_SCL*%
X49749999Y-53500000D03*
%TO.P,J2,4,Pin_4*%
%TO.N,I2C_SDA*%
X52290000Y-53500000D03*
%TD*%
D12*
%TO.P,R1,1*%
%TO.N,GND*%
X18210000Y-60370000D03*
%TO.P,R1,2*%
%TO.N,USB_CC1*%
X18210000Y-52750000D03*
%TD*%
D13*
%TO.P,C1,1*%
%TO.N,VCC_5V*%
X31960000Y-64705112D03*
D12*
%TO.P,C1,2*%
%TO.N,GND*%
X31960000Y-62705111D03*
%TD*%
D14*
%TO.P,U2,1,3V3*%
%TO.N,+3V3*%
X57015000Y-23800000D03*
D15*
%TO.P,U2,2,GND*%
%TO.N,GND*%
X54475000Y-23799999D03*
%TO.P,U2,3,D15*%
%TO.N,SD_CS*%
X51935000Y-23800000D03*
%TO.P,U2,4,D2*%
%TO.N,LCD_DC*%
X49395000Y-23800000D03*
%TO.P,U2,5,D4*%
%TO.N,LCD_RESET*%
X46855000Y-23800000D03*
%TO.P,U2,6,RX2*%
%TO.N,unconnected-(U2-RX2-Pad6)*%
X44315000Y-23799999D03*
%TO.P,U2,7,TX2*%
%TO.N,unconnected-(U2-TX2-Pad7)*%
X41774999Y-23800000D03*
%TO.P,U2,8,D5*%
%TO.N,unconnected-(U2-D5-Pad8)*%
X39235000Y-23800000D03*
%TO.P,U2,9,D18*%
%TO.N,SCK*%
X36695000Y-23800000D03*
%TO.P,U2,10,D19*%
%TO.N,MISO*%
X34155000Y-23800000D03*
%TO.P,U2,11,D21*%
%TO.N,I2C_SDA*%
X31615000Y-23799999D03*
%TO.P,U2,12,RX0*%
%TO.N,unconnected-(U2-RX0-Pad12)*%
X29075000Y-23800000D03*
%TO.P,U2,13,TX0*%
%TO.N,unconnected-(U2-TX0-Pad13)*%
X26535000Y-23800000D03*
%TO.P,U2,14,D22*%
%TO.N,I2C_SCL*%
X23995000Y-23800000D03*
%TO.P,U2,15,D23*%
%TO.N,MOSI*%
X21455000Y-23799999D03*
%TO.P,U2,16,EN*%
%TO.N,unconnected-(U2-EN-Pad16)*%
X21455000Y-49200001D03*
%TO.P,U2,17,VP*%
%TO.N,unconnected-(U2-VP-Pad17)*%
X23995000Y-49200000D03*
%TO.P,U2,18,VN*%
%TO.N,unconnected-(U2-VN-Pad18)*%
X26535000Y-49200000D03*
%TO.P,U2,19,D34*%
%TO.N,SOIL_SIG*%
X29075000Y-49200000D03*
%TO.P,U2,20,D35*%
%TO.N,unconnected-(U2-D35-Pad20)*%
X31615000Y-49200001D03*
%TO.P,U2,21,D32*%
%TO.N,T_IRQ*%
X34155000Y-49200000D03*
%TO.P,U2,22,D33*%
%TO.N,T_CS*%
X36695000Y-49200000D03*
%TO.P,U2,23,D25*%
%TO.N,LCD_CS*%
X39235000Y-49200000D03*
%TO.P,U2,24,D26*%
%TO.N,unconnected-(U2-D26-Pad24)*%
X41774999Y-49200000D03*
%TO.P,U2,25,D27*%
%TO.N,unconnected-(U2-D27-Pad25)*%
X44315000Y-49200001D03*
%TO.P,U2,26,D14*%
%TO.N,unconnected-(U2-D14-Pad26)*%
X46855000Y-49200000D03*
%TO.P,U2,27,D12*%
%TO.N,unconnected-(U2-D12-Pad27)*%
X49395000Y-49200000D03*
%TO.P,U2,28,D13*%
%TO.N,unconnected-(U2-D13-Pad28)*%
X51935000Y-49200000D03*
%TO.P,U2,29,GND*%
%TO.N,GND*%
X54475000Y-49200001D03*
%TO.P,U2,30,VIN*%
%TO.N,unconnected-(U2-VIN-Pad30)*%
X57015000Y-49200000D03*
%TD*%
D16*
%TO.P,J1,S1,SHIELD*%
%TO.N,GND*%
X17140000Y-64180000D03*
D17*
X17140000Y-68360000D03*
D16*
X25780000Y-64180000D03*
D17*
X25780000Y-68360000D03*
%TD*%
D18*
%TO.P,D1,1,K*%
%TO.N,VCC_5V*%
X36982400Y-63855600D03*
D19*
%TO.P,D1,2,A*%
%TO.N,USB_5V*%
X47142400Y-63855600D03*
%TD*%
D12*
%TO.P,R2,1*%
%TO.N,GND*%
X24710000Y-60370000D03*
%TO.P,R2,2*%
%TO.N,USB_CC2*%
X24710000Y-52750000D03*
%TD*%
D20*
%TO.P,C2,1*%
%TO.N,+3V3*%
X38004888Y-55000000D03*
D12*
%TO.P,C2,2*%
%TO.N,GND*%
X40004889Y-55000000D03*
%TD*%
D10*
%TO.P,J3,1,Pin_1*%
%TO.N,VCC_5V*%
X50740000Y-16250000D03*
D11*
%TO.P,J3,2,Pin_2*%
%TO.N,GND*%
X48200000Y-16250000D03*
%TO.P,J3,3,Pin_3*%
%TO.N,LCD_CS*%
X45660001Y-16250000D03*
%TO.P,J3,4,Pin_4*%
%TO.N,LCD_RESET*%
X43120000Y-16250000D03*
%TO.P,J3,5,Pin_5*%
%TO.N,LCD_DC*%
X40580000Y-16250000D03*
%TO.P,J3,6,Pin_6*%
%TO.N,MOSI*%
X38040000Y-16250000D03*
%TO.P,J3,7,Pin_7*%
%TO.N,SCK*%
X35500000Y-16250000D03*
%TO.P,J3,8,Pin_8*%
%TO.N,+3V3*%
X32959999Y-16250000D03*
%TO.P,J3,9,Pin_9*%
%TO.N,MISO*%
X30420000Y-16250000D03*
%TO.P,J3,10,Pin_10*%
%TO.N,SCK*%
X27880000Y-16250000D03*
%TO.P,J3,11,Pin_11*%
%TO.N,T_CS*%
X25340000Y-16250000D03*
%TO.P,J3,12,Pin_12*%
%TO.N,MOSI*%
X22800001Y-16250000D03*
%TO.P,J3,13,Pin_13*%
%TO.N,MISO*%
X20260000Y-16250000D03*
%TO.P,J3,14,Pin_14*%
%TO.N,T_IRQ*%
X17720000Y-16250000D03*
%TD*%
D21*
%TO.N,GND*%
X55206905Y-49966758D03*
X49006633Y-16922194D03*
X19000000Y-60750000D03*
X25486916Y-60916719D03*
X55349706Y-20674853D03*
%TO.N,LCD_CS*%
X39497000Y-46650000D03*
X52431504Y-41929496D03*
X63400000Y-31115000D03*
X53721000Y-40640000D03*
%TO.N,SOIL_SIG*%
X58250000Y-47250000D03*
X59942529Y-47245471D03*
X34755000Y-47250000D03*
%TO.N,USB_5V*%
X23280000Y-67200000D03*
%TO.N,SD_CS*%
X53700735Y-17799265D03*
%TO.N,LCD_RESET*%
X42280736Y-18780735D03*
%TD*%
D22*
%TO.N,GND*%
X54497600Y-20929600D02*
X54497600Y-17747601D01*
X54497600Y-17747601D02*
X53949264Y-17199265D01*
X53949264Y-17199265D02*
X53452206Y-17199265D01*
X53452206Y-17199265D02*
X53251471Y-17400000D01*
X53251471Y-17400000D02*
X49350000Y-17400000D01*
X49350000Y-17400000D02*
X48200000Y-16250000D01*
X58670000Y-53395001D02*
X54475000Y-49200001D01*
X54475000Y-20952200D02*
X54497600Y-20929600D01*
X40004889Y-55000000D02*
X43170000Y-55000000D01*
X43170000Y-55000000D02*
X44670000Y-53500000D01*
X58670000Y-53500000D02*
X58670000Y-53395001D01*
X54475000Y-23799999D02*
X54475000Y-20952200D01*
%TO.N,LCD_DC*%
X42995000Y-17400000D02*
X49395000Y-23800000D01*
X40580000Y-16250000D02*
X41730000Y-17400000D01*
X41730000Y-17400000D02*
X42995000Y-17400000D01*
%TO.N,I2C_SCL*%
X59820000Y-47971471D02*
X36948529Y-25100000D01*
X50899999Y-54650000D02*
X59820000Y-54650000D01*
X49749999Y-53500000D02*
X50899999Y-54650000D01*
X59820000Y-54650000D02*
X59820000Y-47971471D01*
X36948529Y-25100000D02*
X25295000Y-25100000D01*
X25295000Y-25100000D02*
X23995000Y-23800000D01*
%TO.N,LCD_CS*%
X63246000Y-31115000D02*
X53721000Y-40640000D01*
X47711000Y-46650000D02*
X39497000Y-46650000D01*
X63400000Y-31115000D02*
X63246000Y-31115000D01*
X52431504Y-41929496D02*
X47711000Y-46650000D01*
%TO.N,SOIL_SIG*%
X63749999Y-53500000D02*
X63749999Y-51052941D01*
X58250000Y-47250000D02*
X34755000Y-47250000D01*
X63749999Y-51052941D02*
X59942529Y-47245471D01*
D23*
%TO.N,USB_5V*%
X47142400Y-63855600D02*
X45092888Y-65905112D01*
X24574888Y-65905112D02*
X23280000Y-67200000D01*
X45092888Y-65905112D02*
X24574888Y-65905112D01*
%TO.N,+3V3*%
X57000000Y-19118630D02*
X52881370Y-15000000D01*
X56997600Y-20929600D02*
X57000000Y-20927200D01*
X34209999Y-15000000D02*
X32959999Y-16250000D01*
X52881370Y-15000000D02*
X34209999Y-15000000D01*
X57000000Y-20927200D02*
X57000000Y-19118630D01*
D22*
%TO.N,SD_CS*%
X51935000Y-23800000D02*
X51935000Y-19565000D01*
X51935000Y-19565000D02*
X53700735Y-17799265D01*
%TO.N,T_IRQ*%
X35855422Y-27490000D02*
X37211000Y-28845578D01*
X19875000Y-18405000D02*
X19875000Y-24320000D01*
X34506471Y-46650000D02*
X34155000Y-47001471D01*
X17720000Y-16250000D02*
X19875000Y-18405000D01*
X37211000Y-44442529D02*
X35003529Y-46650000D01*
X35003529Y-46650000D02*
X34506471Y-46650000D01*
X19875000Y-24320000D02*
X23045000Y-27490000D01*
X37211000Y-28845578D02*
X37211000Y-44442529D01*
X23045000Y-27490000D02*
X35855422Y-27490000D01*
X34155000Y-47001471D02*
X34155000Y-49200000D01*
%TO.N,LCD_RESET*%
X42500001Y-19445001D02*
X46855000Y-23800000D01*
X42500001Y-19000000D02*
X42500001Y-19445001D01*
X42280736Y-18780735D02*
X42500001Y-19000000D01*
%TO.N,SCK*%
X31750000Y-16666347D02*
X32483653Y-17400000D01*
X34350000Y-17400000D02*
X35500000Y-16250000D01*
X65330000Y-16250000D02*
X63580000Y-14500000D01*
X31750000Y-15593654D02*
X31750000Y-16666347D01*
X63580000Y-14500000D02*
X32843654Y-14500000D01*
X32483653Y-17400000D02*
X34350000Y-17400000D01*
X32843654Y-14500000D02*
X31750000Y-15593654D01*
%TO.N,MISO*%
X32570000Y-14100000D02*
X30420000Y-16250000D01*
X29270000Y-15100000D02*
X30420000Y-16250000D01*
X34155000Y-19985000D02*
X34155000Y-23800000D01*
X64806346Y-14100000D02*
X32570000Y-14100000D01*
X21410000Y-15100000D02*
X29270000Y-15100000D01*
X66480000Y-16726346D02*
X66480000Y-15773654D01*
X66480000Y-15773654D02*
X64806346Y-14100000D01*
X62789999Y-16250000D02*
X63939999Y-17400000D01*
X30420000Y-16250000D02*
X34155000Y-19985000D01*
X65806346Y-17400000D02*
X66480000Y-16726346D01*
X63939999Y-17400000D02*
X65806346Y-17400000D01*
X20260000Y-16250000D02*
X21410000Y-15100000D01*
%TO.N,MOSI*%
X21455000Y-17595001D02*
X21455000Y-23799999D01*
X22800001Y-16250000D02*
X21455000Y-17595001D01*
%TD*%
%TA.AperFunction,Conductor*%
%TO.N,GND*%
G36*
X31600542Y-14007585D02*
G01*
X31646297Y-14060389D01*
X31656241Y-14129547D01*
X31627216Y-14193103D01*
X31621184Y-14199581D01*
X30904522Y-14916241D01*
X30843199Y-14949726D01*
X30778523Y-14946491D01*
X30736245Y-14932754D01*
X30596272Y-14910584D01*
X30526287Y-14899500D01*
X30313713Y-14899500D01*
X30285006Y-14904046D01*
X30103757Y-14932753D01*
X30061473Y-14946492D01*
X29991632Y-14948486D01*
X29935476Y-14916241D01*
X29757590Y-14738355D01*
X29757588Y-14738352D01*
X29638717Y-14619481D01*
X29638716Y-14619480D01*
X29551904Y-14569360D01*
X29551904Y-14569359D01*
X29551900Y-14569358D01*
X29501785Y-14540423D01*
X29349057Y-14499499D01*
X29190943Y-14499499D01*
X29183347Y-14499499D01*
X29183331Y-14499500D01*
X21496670Y-14499500D01*
X21496654Y-14499499D01*
X21489058Y-14499499D01*
X21330943Y-14499499D01*
X21254579Y-14519961D01*
X21178214Y-14540423D01*
X21178209Y-14540426D01*
X21041290Y-14619475D01*
X21041282Y-14619481D01*
X20744522Y-14916241D01*
X20683199Y-14949726D01*
X20618523Y-14946491D01*
X20576245Y-14932754D01*
X20436272Y-14910584D01*
X20366287Y-14899500D01*
X20153713Y-14899500D01*
X20105042Y-14907208D01*
X19943760Y-14932753D01*
X19741585Y-14998444D01*
X19552179Y-15094951D01*
X19380213Y-15219890D01*
X19229890Y-15370213D01*
X19104949Y-15542182D01*
X19100484Y-15550946D01*
X19052509Y-15601742D01*
X18984688Y-15618536D01*
X18918553Y-15595998D01*
X18879516Y-15550946D01*
X18875050Y-15542182D01*
X18750109Y-15370213D01*
X18599786Y-15219890D01*
X18427820Y-15094951D01*
X18238414Y-14998444D01*
X18238413Y-14998443D01*
X18238412Y-14998443D01*
X18036243Y-14932754D01*
X18036241Y-14932753D01*
X18036240Y-14932753D01*
X17874957Y-14907208D01*
X17826287Y-14899500D01*
X17613713Y-14899500D01*
X17565042Y-14907208D01*
X17403760Y-14932753D01*
X17201585Y-14998444D01*
X17012179Y-15094951D01*
X16840213Y-15219890D01*
X16689890Y-15370213D01*
X16564951Y-15542179D01*
X16468444Y-15731585D01*
X16402753Y-15933760D01*
X16401291Y-15942993D01*
X16369500Y-16143713D01*
X16369500Y-16356287D01*
X16402754Y-16566243D01*
X16450000Y-16711652D01*
X16468444Y-16768414D01*
X16564951Y-16957820D01*
X16689890Y-17129786D01*
X16840213Y-17280109D01*
X17012179Y-17405048D01*
X17012181Y-17405049D01*
X17012184Y-17405051D01*
X17201588Y-17501557D01*
X17403757Y-17567246D01*
X17613713Y-17600500D01*
X17613714Y-17600500D01*
X17826286Y-17600500D01*
X17826287Y-17600500D01*
X18036243Y-17567246D01*
X18078523Y-17553507D01*
X18148362Y-17551511D01*
X18204522Y-17583757D01*
X19238181Y-18617416D01*
X19271666Y-18678739D01*
X19274500Y-18705097D01*
X19274500Y-22720871D01*
X19254815Y-22787910D01*
X19202011Y-22833665D01*
X19132853Y-22843609D01*
X19075014Y-22819247D01*
X18999612Y-22761389D01*
X18819622Y-22657472D01*
X18800890Y-22646657D01*
X18800876Y-22646650D01*
X18588887Y-22558842D01*
X18508766Y-22537374D01*
X18367238Y-22499452D01*
X18329215Y-22494446D01*
X18139741Y-22469500D01*
X18139734Y-22469500D01*
X17910266Y-22469500D01*
X17910258Y-22469500D01*
X17693715Y-22498009D01*
X17682762Y-22499452D01*
X17609053Y-22519202D01*
X17461112Y-22558842D01*
X17249123Y-22646650D01*
X17249109Y-22646657D01*
X17050382Y-22761392D01*
X16868338Y-22901081D01*
X16706081Y-23063338D01*
X16566392Y-23245382D01*
X16451657Y-23444109D01*
X16451650Y-23444123D01*
X16363842Y-23656112D01*
X16304453Y-23877759D01*
X16304451Y-23877770D01*
X16274500Y-24105258D01*
X16274500Y-24334741D01*
X16299446Y-24524215D01*
X16304452Y-24562238D01*
X16352853Y-24742875D01*
X16363842Y-24783887D01*
X16451650Y-24995876D01*
X16451657Y-24995890D01*
X16494642Y-25070342D01*
X16564052Y-25190565D01*
X16566392Y-25194617D01*
X16706081Y-25376661D01*
X16706089Y-25376670D01*
X16868330Y-25538911D01*
X16868338Y-25538918D01*
X17050382Y-25678607D01*
X17050385Y-25678608D01*
X17050388Y-25678611D01*
X17249112Y-25793344D01*
X17249117Y-25793346D01*
X17249123Y-25793349D01*
X17340480Y-25831190D01*
X17461113Y-25881158D01*
X17682762Y-25940548D01*
X17910266Y-25970500D01*
X17910273Y-25970500D01*
X18139727Y-25970500D01*
X18139734Y-25970500D01*
X18367238Y-25940548D01*
X18588887Y-25881158D01*
X18800888Y-25793344D01*
X18999612Y-25678611D01*
X19181661Y-25538919D01*
X19181665Y-25538914D01*
X19181670Y-25538911D01*
X19343911Y-25376670D01*
X19343914Y-25376665D01*
X19343919Y-25376661D01*
X19483611Y-25194612D01*
X19555360Y-25070337D01*
X19605923Y-25022126D01*
X19674530Y-25008902D01*
X19739395Y-25034870D01*
X19750425Y-25044660D01*
X22084084Y-27378319D01*
X22117569Y-27439642D01*
X22112585Y-27509334D01*
X22070713Y-27565267D01*
X22005249Y-27589684D01*
X21996403Y-27590000D01*
X15517000Y-27590000D01*
X15517000Y-45280000D01*
X35168170Y-45337122D01*
X35235151Y-45357001D01*
X35280753Y-45409938D01*
X35290495Y-45479125D01*
X35261286Y-45542596D01*
X35255490Y-45548802D01*
X34791113Y-46013181D01*
X34729790Y-46046666D01*
X34703432Y-46049500D01*
X34585528Y-46049500D01*
X34427414Y-46049500D01*
X34274686Y-46090423D01*
X34274685Y-46090423D01*
X34274683Y-46090424D01*
X34274680Y-46090425D01*
X34224567Y-46119359D01*
X34224566Y-46119360D01*
X34189324Y-46139707D01*
X34137756Y-46169479D01*
X34137753Y-46169481D01*
X33674479Y-46632755D01*
X33664812Y-46649500D01*
X33641186Y-46690423D01*
X33618304Y-46730054D01*
X33595423Y-46769685D01*
X33595423Y-46769686D01*
X33554499Y-46922414D01*
X33554499Y-46922416D01*
X33554499Y-47090517D01*
X33554500Y-47090530D01*
X33554500Y-47745931D01*
X33534815Y-47812970D01*
X33486796Y-47856415D01*
X33368568Y-47916655D01*
X33244116Y-48007076D01*
X33177490Y-48055483D01*
X33177488Y-48055485D01*
X33177487Y-48055485D01*
X33010485Y-48222487D01*
X33010480Y-48222493D01*
X32985315Y-48257129D01*
X32929984Y-48299793D01*
X32860371Y-48305771D01*
X32798577Y-48273163D01*
X32784682Y-48257128D01*
X32759517Y-48222491D01*
X32592510Y-48055484D01*
X32401433Y-47916658D01*
X32397406Y-47914606D01*
X32190996Y-47809434D01*
X31966368Y-47736447D01*
X31733097Y-47699501D01*
X31733092Y-47699501D01*
X31496908Y-47699501D01*
X31496903Y-47699501D01*
X31263631Y-47736447D01*
X31039003Y-47809434D01*
X30828566Y-47916658D01*
X30747987Y-47975203D01*
X30637490Y-48055484D01*
X30637488Y-48055486D01*
X30637487Y-48055486D01*
X30470482Y-48222491D01*
X30445317Y-48257128D01*
X30389986Y-48299793D01*
X30320372Y-48305771D01*
X30258578Y-48273164D01*
X30244682Y-48257127D01*
X30219517Y-48222490D01*
X30052510Y-48055483D01*
X29861433Y-47916657D01*
X29857408Y-47914606D01*
X29650996Y-47809433D01*
X29426368Y-47736446D01*
X29193097Y-47699500D01*
X29193092Y-47699500D01*
X28956908Y-47699500D01*
X28956903Y-47699500D01*
X28723631Y-47736446D01*
X28499003Y-47809433D01*
X28288566Y-47916657D01*
X28184664Y-47992147D01*
X28097490Y-48055483D01*
X28097488Y-48055485D01*
X28097487Y-48055485D01*
X27930484Y-48222488D01*
X27930480Y-48222494D01*
X27905319Y-48257126D01*
X27905318Y-48257127D01*
X27849987Y-48299792D01*
X27780374Y-48305771D01*
X27718579Y-48273165D01*
X27704682Y-48257127D01*
X27679517Y-48222490D01*
X27512510Y-48055483D01*
X27321433Y-47916657D01*
X27317408Y-47914606D01*
X27110996Y-47809433D01*
X26886368Y-47736446D01*
X26653097Y-47699500D01*
X26653092Y-47699500D01*
X26416908Y-47699500D01*
X26416903Y-47699500D01*
X26183631Y-47736446D01*
X25959003Y-47809433D01*
X25748566Y-47916657D01*
X25644664Y-47992147D01*
X25557490Y-48055483D01*
X25557488Y-48055485D01*
X25557487Y-48055485D01*
X25390484Y-48222488D01*
X25390480Y-48222494D01*
X25365319Y-48257126D01*
X25365318Y-48257127D01*
X25309987Y-48299792D01*
X25240374Y-48305771D01*
X25178579Y-48273165D01*
X25164682Y-48257127D01*
X25139517Y-48222490D01*
X24972510Y-48055483D01*
X24781433Y-47916657D01*
X24777408Y-47914606D01*
X24570996Y-47809433D01*
X24346368Y-47736446D01*
X24113097Y-47699500D01*
X24113092Y-47699500D01*
X23876908Y-47699500D01*
X23876903Y-47699500D01*
X23643631Y-47736446D01*
X23419003Y-47809433D01*
X23208566Y-47916657D01*
X23104664Y-47992147D01*
X23017490Y-48055483D01*
X23017488Y-48055485D01*
X23017487Y-48055485D01*
X22850485Y-48222487D01*
X22850480Y-48222493D01*
X22825315Y-48257129D01*
X22769984Y-48299793D01*
X22700371Y-48305771D01*
X22638577Y-48273163D01*
X22624682Y-48257128D01*
X22599517Y-48222491D01*
X22432510Y-48055484D01*
X22241433Y-47916658D01*
X22237406Y-47914606D01*
X22030996Y-47809434D01*
X21806368Y-47736447D01*
X21573097Y-47699501D01*
X21573092Y-47699501D01*
X21336908Y-47699501D01*
X21336903Y-47699501D01*
X21103631Y-47736447D01*
X20879003Y-47809434D01*
X20668566Y-47916658D01*
X20587987Y-47975203D01*
X20477490Y-48055484D01*
X20477488Y-48055486D01*
X20477487Y-48055486D01*
X20310485Y-48222488D01*
X20310485Y-48222489D01*
X20310483Y-48222491D01*
X20260866Y-48290783D01*
X20171657Y-48413567D01*
X20064433Y-48624004D01*
X20017431Y-48768662D01*
X19977993Y-48826337D01*
X19913634Y-48853535D01*
X19844788Y-48841620D01*
X19793312Y-48794376D01*
X19775500Y-48730343D01*
X19775500Y-48615272D01*
X19775499Y-48615258D01*
X19748945Y-48413568D01*
X19745548Y-48387762D01*
X19686158Y-48166113D01*
X19625526Y-48019735D01*
X19598349Y-47954123D01*
X19598346Y-47954117D01*
X19598344Y-47954112D01*
X19483611Y-47755388D01*
X19483608Y-47755385D01*
X19483607Y-47755382D01*
X19343918Y-47573338D01*
X19343911Y-47573330D01*
X19181670Y-47411089D01*
X19181661Y-47411081D01*
X18999617Y-47271392D01*
X18800890Y-47156657D01*
X18800876Y-47156650D01*
X18588887Y-47068842D01*
X18367238Y-47009452D01*
X18329215Y-47004446D01*
X18139741Y-46979500D01*
X18139734Y-46979500D01*
X17910266Y-46979500D01*
X17910258Y-46979500D01*
X17693715Y-47008009D01*
X17682762Y-47009452D01*
X17673350Y-47011974D01*
X17461112Y-47068842D01*
X17249123Y-47156650D01*
X17249109Y-47156657D01*
X17050382Y-47271392D01*
X16868338Y-47411081D01*
X16706081Y-47573338D01*
X16566392Y-47755382D01*
X16451657Y-47954109D01*
X16451650Y-47954123D01*
X16363842Y-48166112D01*
X16332867Y-48281716D01*
X16304452Y-48387762D01*
X16303472Y-48395203D01*
X16274500Y-48615258D01*
X16274500Y-48844741D01*
X16280045Y-48886854D01*
X16304452Y-49072238D01*
X16356676Y-49267144D01*
X16363842Y-49293887D01*
X16451650Y-49505876D01*
X16451657Y-49505890D01*
X16566392Y-49704617D01*
X16706081Y-49886661D01*
X16706089Y-49886670D01*
X16868330Y-50048911D01*
X16868338Y-50048918D01*
X17050382Y-50188607D01*
X17050385Y-50188608D01*
X17050388Y-50188611D01*
X17249112Y-50303344D01*
X17249117Y-50303346D01*
X17249123Y-50303349D01*
X17340480Y-50341190D01*
X17461113Y-50391158D01*
X17682762Y-50450548D01*
X17910266Y-50480500D01*
X17910273Y-50480500D01*
X18139727Y-50480500D01*
X18139734Y-50480500D01*
X18367238Y-50450548D01*
X18588887Y-50391158D01*
X18800888Y-50303344D01*
X18999612Y-50188611D01*
X19181661Y-50048919D01*
X19181665Y-50048914D01*
X19181670Y-50048911D01*
X19343911Y-49886670D01*
X19343914Y-49886665D01*
X19343919Y-49886661D01*
X19483611Y-49704612D01*
X19598344Y-49505888D01*
X19686158Y-49293887D01*
X19710726Y-49202195D01*
X19747090Y-49142538D01*
X19809936Y-49112008D01*
X19879312Y-49120302D01*
X19933190Y-49164787D01*
X19954465Y-49231339D01*
X19954500Y-49234291D01*
X19954500Y-49318098D01*
X19991446Y-49551369D01*
X20064433Y-49775997D01*
X20171656Y-49986433D01*
X20171657Y-49986434D01*
X20310483Y-50177511D01*
X20477490Y-50344518D01*
X20668567Y-50483344D01*
X20767991Y-50534003D01*
X20879003Y-50590567D01*
X20879005Y-50590567D01*
X20879008Y-50590569D01*
X20999412Y-50629690D01*
X21103631Y-50663554D01*
X21336903Y-50700501D01*
X21336908Y-50700501D01*
X21573097Y-50700501D01*
X21806368Y-50663554D01*
X21807870Y-50663066D01*
X22030992Y-50590569D01*
X22241433Y-50483344D01*
X22432510Y-50344518D01*
X22599517Y-50177511D01*
X22624681Y-50142874D01*
X22680009Y-50100209D01*
X22749623Y-50094228D01*
X22811418Y-50126833D01*
X22825315Y-50142870D01*
X22850483Y-50177510D01*
X23017490Y-50344517D01*
X23208567Y-50483343D01*
X23307991Y-50534002D01*
X23419003Y-50590566D01*
X23419005Y-50590566D01*
X23419008Y-50590568D01*
X23539412Y-50629689D01*
X23643631Y-50663553D01*
X23876903Y-50700500D01*
X23876908Y-50700500D01*
X24113097Y-50700500D01*
X24346368Y-50663553D01*
X24347867Y-50663066D01*
X24570992Y-50590568D01*
X24781433Y-50483343D01*
X24972510Y-50344517D01*
X25139517Y-50177510D01*
X25164682Y-50142872D01*
X25220011Y-50100207D01*
X25289625Y-50094228D01*
X25351420Y-50126833D01*
X25365315Y-50142870D01*
X25390483Y-50177510D01*
X25557490Y-50344517D01*
X25748567Y-50483343D01*
X25847991Y-50534002D01*
X25959003Y-50590566D01*
X25959005Y-50590566D01*
X25959008Y-50590568D01*
X26079412Y-50629689D01*
X26183631Y-50663553D01*
X26416903Y-50700500D01*
X26416908Y-50700500D01*
X26653097Y-50700500D01*
X26886368Y-50663553D01*
X26887867Y-50663066D01*
X27110992Y-50590568D01*
X27321433Y-50483343D01*
X27512510Y-50344517D01*
X27679517Y-50177510D01*
X27704682Y-50142872D01*
X27760011Y-50100207D01*
X27829625Y-50094228D01*
X27891420Y-50126833D01*
X27905315Y-50142870D01*
X27930483Y-50177510D01*
X28097490Y-50344517D01*
X28288567Y-50483343D01*
X28387991Y-50534002D01*
X28499003Y-50590566D01*
X28499005Y-50590566D01*
X28499008Y-50590568D01*
X28619412Y-50629689D01*
X28723631Y-50663553D01*
X28956903Y-50700500D01*
X28956908Y-50700500D01*
X29193097Y-50700500D01*
X29426368Y-50663553D01*
X29427867Y-50663066D01*
X29650992Y-50590568D01*
X29861433Y-50483343D01*
X30052510Y-50344517D01*
X30219517Y-50177510D01*
X30244681Y-50142874D01*
X30300008Y-50100209D01*
X30369621Y-50094228D01*
X30431417Y-50126832D01*
X30445316Y-50142872D01*
X30470481Y-50177509D01*
X30470483Y-50177511D01*
X30637490Y-50344518D01*
X30828567Y-50483344D01*
X30927991Y-50534003D01*
X31039003Y-50590567D01*
X31039005Y-50590567D01*
X31039008Y-50590569D01*
X31159412Y-50629690D01*
X31263631Y-50663554D01*
X31496903Y-50700501D01*
X31496908Y-50700501D01*
X31733097Y-50700501D01*
X31966368Y-50663554D01*
X31967870Y-50663066D01*
X32190992Y-50590569D01*
X32401433Y-50483344D01*
X32592510Y-50344518D01*
X32759517Y-50177511D01*
X32784681Y-50142874D01*
X32840009Y-50100209D01*
X32909623Y-50094228D01*
X32971418Y-50126833D01*
X32985315Y-50142870D01*
X33010483Y-50177510D01*
X33177490Y-50344517D01*
X33368567Y-50483343D01*
X33467991Y-50534002D01*
X33579003Y-50590566D01*
X33579005Y-50590566D01*
X33579008Y-50590568D01*
X33699412Y-50629689D01*
X33803631Y-50663553D01*
X34036903Y-50700500D01*
X34036908Y-50700500D01*
X34273097Y-50700500D01*
X34506368Y-50663553D01*
X34507867Y-50663066D01*
X34730992Y-50590568D01*
X34941433Y-50483343D01*
X35132510Y-50344517D01*
X35299517Y-50177510D01*
X35324682Y-50142872D01*
X35380011Y-50100207D01*
X35449625Y-50094228D01*
X35511420Y-50126833D01*
X35525315Y-50142870D01*
X35550483Y-50177510D01*
X35717490Y-50344517D01*
X35908567Y-50483343D01*
X36007991Y-50534002D01*
X36119003Y-50590566D01*
X36119005Y-50590566D01*
X36119008Y-50590568D01*
X36239412Y-50629689D01*
X36343631Y-50663553D01*
X36576903Y-50700500D01*
X36576908Y-50700500D01*
X36813097Y-50700500D01*
X37046368Y-50663553D01*
X37047867Y-50663066D01*
X37270992Y-50590568D01*
X37481433Y-50483343D01*
X37672510Y-50344517D01*
X37839517Y-50177510D01*
X37864682Y-50142872D01*
X37920011Y-50100207D01*
X37989625Y-50094228D01*
X38051420Y-50126833D01*
X38065315Y-50142870D01*
X38090483Y-50177510D01*
X38257490Y-50344517D01*
X38448567Y-50483343D01*
X38547991Y-50534002D01*
X38659003Y-50590566D01*
X38659005Y-50590566D01*
X38659008Y-50590568D01*
X38779412Y-50629689D01*
X38883631Y-50663553D01*
X39116903Y-50700500D01*
X39116908Y-50700500D01*
X39353097Y-50700500D01*
X39586368Y-50663553D01*
X39587867Y-50663066D01*
X39810992Y-50590568D01*
X40021433Y-50483343D01*
X40212510Y-50344517D01*
X40379517Y-50177510D01*
X40404681Y-50142874D01*
X40460008Y-50100209D01*
X40529621Y-50094228D01*
X40591417Y-50126832D01*
X40605314Y-50142870D01*
X40630482Y-50177510D01*
X40797489Y-50344517D01*
X40988566Y-50483343D01*
X41087990Y-50534002D01*
X41199002Y-50590566D01*
X41199004Y-50590566D01*
X41199007Y-50590568D01*
X41319411Y-50629689D01*
X41423630Y-50663553D01*
X41656902Y-50700500D01*
X41656907Y-50700500D01*
X41893096Y-50700500D01*
X42126367Y-50663553D01*
X42127866Y-50663066D01*
X42350991Y-50590568D01*
X42561432Y-50483343D01*
X42752509Y-50344517D01*
X42919516Y-50177510D01*
X42944680Y-50142873D01*
X43000008Y-50100208D01*
X43069622Y-50094227D01*
X43131417Y-50126832D01*
X43145316Y-50142872D01*
X43170483Y-50177511D01*
X43337490Y-50344518D01*
X43528567Y-50483344D01*
X43627991Y-50534003D01*
X43739003Y-50590567D01*
X43739005Y-50590567D01*
X43739008Y-50590569D01*
X43859412Y-50629690D01*
X43963631Y-50663554D01*
X44196903Y-50700501D01*
X44196908Y-50700501D01*
X44433097Y-50700501D01*
X44666368Y-50663554D01*
X44667870Y-50663066D01*
X44890992Y-50590569D01*
X45101433Y-50483344D01*
X45292510Y-50344518D01*
X45459517Y-50177511D01*
X45484681Y-50142874D01*
X45540009Y-50100209D01*
X45609623Y-50094228D01*
X45671418Y-50126833D01*
X45685315Y-50142870D01*
X45710483Y-50177510D01*
X45877490Y-50344517D01*
X46068567Y-50483343D01*
X46167991Y-50534002D01*
X46279003Y-50590566D01*
X46279005Y-50590566D01*
X46279008Y-50590568D01*
X46399412Y-50629689D01*
X46503631Y-50663553D01*
X46736903Y-50700500D01*
X46736908Y-50700500D01*
X46973097Y-50700500D01*
X47206368Y-50663553D01*
X47207867Y-50663066D01*
X47430992Y-50590568D01*
X47641433Y-50483343D01*
X47832510Y-50344517D01*
X47999517Y-50177510D01*
X48024682Y-50142872D01*
X48080011Y-50100207D01*
X48149625Y-50094228D01*
X48211420Y-50126833D01*
X48225315Y-50142870D01*
X48250483Y-50177510D01*
X48417490Y-50344517D01*
X48608567Y-50483343D01*
X48707991Y-50534002D01*
X48819003Y-50590566D01*
X48819005Y-50590566D01*
X48819008Y-50590568D01*
X48939412Y-50629689D01*
X49043631Y-50663553D01*
X49276903Y-50700500D01*
X49276908Y-50700500D01*
X49513097Y-50700500D01*
X49746368Y-50663553D01*
X49747867Y-50663066D01*
X49970992Y-50590568D01*
X50181433Y-50483343D01*
X50372510Y-50344517D01*
X50539517Y-50177510D01*
X50564682Y-50142872D01*
X50620011Y-50100207D01*
X50689625Y-50094228D01*
X50751420Y-50126833D01*
X50765315Y-50142870D01*
X50790483Y-50177510D01*
X50957490Y-50344517D01*
X51148567Y-50483343D01*
X51247991Y-50534002D01*
X51359003Y-50590566D01*
X51359005Y-50590566D01*
X51359008Y-50590568D01*
X51479412Y-50629689D01*
X51583631Y-50663553D01*
X51816903Y-50700500D01*
X51816908Y-50700500D01*
X52053097Y-50700500D01*
X52286368Y-50663553D01*
X52287867Y-50663066D01*
X52510992Y-50590568D01*
X52721433Y-50483343D01*
X52912510Y-50344517D01*
X53079517Y-50177510D01*
X53126374Y-50113016D01*
X53130712Y-50108199D01*
X53155146Y-50093144D01*
X53177873Y-50075619D01*
X53185391Y-50074510D01*
X53190198Y-50071549D01*
X53203731Y-50071806D01*
X53232594Y-50067551D01*
X53252341Y-50069105D01*
X53983871Y-49337575D01*
X53999755Y-49396854D01*
X54066898Y-49513148D01*
X54161853Y-49608103D01*
X54278147Y-49675246D01*
X54337425Y-49691129D01*
X53605893Y-50422659D01*
X53688828Y-50482915D01*
X53899197Y-50590103D01*
X54123752Y-50663066D01*
X54123751Y-50663066D01*
X54356948Y-50700001D01*
X54593052Y-50700001D01*
X54826247Y-50663066D01*
X55050802Y-50590103D01*
X55261163Y-50482919D01*
X55261169Y-50482915D01*
X55344104Y-50422659D01*
X55344105Y-50422659D01*
X54612574Y-49691129D01*
X54671853Y-49675246D01*
X54788147Y-49608103D01*
X54883102Y-49513148D01*
X54950245Y-49396854D01*
X54966128Y-49337575D01*
X55697657Y-50069105D01*
X55717405Y-50067551D01*
X55785782Y-50081915D01*
X55827452Y-50118283D01*
X55870483Y-50177510D01*
X56037490Y-50344517D01*
X56228567Y-50483343D01*
X56327991Y-50534002D01*
X56439003Y-50590566D01*
X56439005Y-50590566D01*
X56439008Y-50590568D01*
X56559412Y-50629689D01*
X56663631Y-50663553D01*
X56896903Y-50700500D01*
X56896908Y-50700500D01*
X57133097Y-50700500D01*
X57366368Y-50663553D01*
X57367867Y-50663066D01*
X57590992Y-50590568D01*
X57801433Y-50483343D01*
X57992510Y-50344517D01*
X58159517Y-50177510D01*
X58298343Y-49986433D01*
X58405568Y-49775992D01*
X58478553Y-49551368D01*
X58483986Y-49517068D01*
X58515500Y-49318097D01*
X58515500Y-49081902D01*
X58478553Y-48848631D01*
X58405566Y-48624003D01*
X58349002Y-48512991D01*
X58298343Y-48413567D01*
X58177602Y-48247383D01*
X58154124Y-48181580D01*
X58169949Y-48113526D01*
X58220055Y-48064831D01*
X58277922Y-48050500D01*
X58328844Y-48050500D01*
X58328845Y-48050499D01*
X58483497Y-48019737D01*
X58629179Y-47959394D01*
X58742092Y-47883947D01*
X58808768Y-47863070D01*
X58876148Y-47881554D01*
X58898663Y-47899369D01*
X59183181Y-48183887D01*
X59216666Y-48245210D01*
X59219500Y-48271568D01*
X59219500Y-52026000D01*
X59199815Y-52093039D01*
X59147011Y-52138794D01*
X59095500Y-52150000D01*
X58920000Y-52150000D01*
X58920000Y-53066988D01*
X58862993Y-53034075D01*
X58735826Y-53000000D01*
X58604174Y-53000000D01*
X58477007Y-53034075D01*
X58420000Y-53066988D01*
X58420000Y-52150000D01*
X57772155Y-52150000D01*
X57712627Y-52156401D01*
X57712620Y-52156403D01*
X57577913Y-52206645D01*
X57577906Y-52206649D01*
X57462812Y-52292809D01*
X57462809Y-52292812D01*
X57376649Y-52407906D01*
X57376645Y-52407913D01*
X57326403Y-52542620D01*
X57326401Y-52542627D01*
X57320000Y-52602155D01*
X57320000Y-53250000D01*
X58236988Y-53250000D01*
X58204075Y-53307007D01*
X58170000Y-53434174D01*
X58170000Y-53565826D01*
X58204075Y-53692993D01*
X58236988Y-53750000D01*
X57320000Y-53750000D01*
X57320000Y-53925500D01*
X57300315Y-53992539D01*
X57247511Y-54038294D01*
X57196000Y-54049500D01*
X53702127Y-54049500D01*
X53635088Y-54029815D01*
X53589333Y-53977011D01*
X53579389Y-53907853D01*
X53584196Y-53887182D01*
X53592286Y-53862284D01*
X53607246Y-53816243D01*
X53640500Y-53606287D01*
X53640500Y-53393713D01*
X53607246Y-53183757D01*
X53541557Y-52981588D01*
X53445051Y-52792184D01*
X53445049Y-52792181D01*
X53445048Y-52792179D01*
X53357542Y-52671736D01*
X53320109Y-52620214D01*
X53320105Y-52620209D01*
X53169786Y-52469890D01*
X52997820Y-52344951D01*
X52808414Y-52248444D01*
X52808413Y-52248443D01*
X52808412Y-52248443D01*
X52606243Y-52182754D01*
X52606241Y-52182753D01*
X52606240Y-52182753D01*
X52444957Y-52157208D01*
X52396287Y-52149500D01*
X52183713Y-52149500D01*
X52135042Y-52157208D01*
X51973760Y-52182753D01*
X51771585Y-52248444D01*
X51582179Y-52344951D01*
X51410213Y-52469890D01*
X51259890Y-52620213D01*
X51134948Y-52792184D01*
X51134946Y-52792187D01*
X51130481Y-52800950D01*
X51082505Y-52851744D01*
X51014683Y-52868537D01*
X50948549Y-52845997D01*
X50909513Y-52800944D01*
X50909512Y-52800942D01*
X50905050Y-52792184D01*
X50905048Y-52792181D01*
X50905047Y-52792179D01*
X50780108Y-52620213D01*
X50629785Y-52469890D01*
X50457819Y-52344951D01*
X50268413Y-52248444D01*
X50268412Y-52248443D01*
X50268411Y-52248443D01*
X50066242Y-52182754D01*
X50066240Y-52182753D01*
X50066239Y-52182753D01*
X49904956Y-52157208D01*
X49856286Y-52149500D01*
X49643712Y-52149500D01*
X49595041Y-52157208D01*
X49433759Y-52182753D01*
X49231584Y-52248444D01*
X49042178Y-52344951D01*
X48870212Y-52469890D01*
X48719889Y-52620213D01*
X48594947Y-52792183D01*
X48590481Y-52800949D01*
X48542505Y-52851742D01*
X48474683Y-52868535D01*
X48408549Y-52845995D01*
X48369513Y-52800942D01*
X48365051Y-52792184D01*
X48365049Y-52792181D01*
X48365048Y-52792179D01*
X48240109Y-52620213D01*
X48089786Y-52469890D01*
X47917820Y-52344951D01*
X47728414Y-52248444D01*
X47728413Y-52248443D01*
X47728412Y-52248443D01*
X47526243Y-52182754D01*
X47526241Y-52182753D01*
X47526240Y-52182753D01*
X47364957Y-52157208D01*
X47316287Y-52149500D01*
X47103713Y-52149500D01*
X47055042Y-52157208D01*
X46893760Y-52182753D01*
X46691585Y-52248444D01*
X46502179Y-52344951D01*
X46330215Y-52469889D01*
X46216285Y-52583819D01*
X46154962Y-52617303D01*
X46085270Y-52612319D01*
X46029337Y-52570447D01*
X46012422Y-52539470D01*
X45963354Y-52407913D01*
X45963350Y-52407906D01*
X45877190Y-52292812D01*
X45877187Y-52292809D01*
X45762093Y-52206649D01*
X45762086Y-52206645D01*
X45627379Y-52156403D01*
X45627372Y-52156401D01*
X45567844Y-52150000D01*
X44920000Y-52150000D01*
X44920000Y-53066988D01*
X44862993Y-53034075D01*
X44735826Y-53000000D01*
X44604174Y-53000000D01*
X44477007Y-53034075D01*
X44420000Y-53066988D01*
X44420000Y-52150000D01*
X43772155Y-52150000D01*
X43712627Y-52156401D01*
X43712620Y-52156403D01*
X43577913Y-52206645D01*
X43577906Y-52206649D01*
X43462812Y-52292809D01*
X43462809Y-52292812D01*
X43376649Y-52407906D01*
X43376645Y-52407913D01*
X43326403Y-52542620D01*
X43326401Y-52542627D01*
X43320000Y-52602155D01*
X43320000Y-53250000D01*
X44236988Y-53250000D01*
X44204075Y-53307007D01*
X44170000Y-53434174D01*
X44170000Y-53565826D01*
X44204075Y-53692993D01*
X44236988Y-53750000D01*
X43320000Y-53750000D01*
X43320000Y-54397844D01*
X43326401Y-54457372D01*
X43326403Y-54457379D01*
X43376645Y-54592086D01*
X43376649Y-54592093D01*
X43462809Y-54707187D01*
X43462812Y-54707190D01*
X43577906Y-54793350D01*
X43577913Y-54793354D01*
X43712620Y-54843596D01*
X43712627Y-54843598D01*
X43772155Y-54849999D01*
X43772172Y-54850000D01*
X44420000Y-54850000D01*
X44420000Y-53933012D01*
X44477007Y-53965925D01*
X44604174Y-54000000D01*
X44735826Y-54000000D01*
X44862993Y-53965925D01*
X44920000Y-53933012D01*
X44920000Y-54850000D01*
X45567828Y-54850000D01*
X45567844Y-54849999D01*
X45627372Y-54843598D01*
X45627379Y-54843596D01*
X45762086Y-54793354D01*
X45762093Y-54793350D01*
X45877187Y-54707190D01*
X45877190Y-54707187D01*
X45963350Y-54592093D01*
X45963354Y-54592086D01*
X46012422Y-54460529D01*
X46054293Y-54404595D01*
X46119757Y-54380178D01*
X46188030Y-54395030D01*
X46216285Y-54416181D01*
X46330213Y-54530109D01*
X46502179Y-54655048D01*
X46502181Y-54655049D01*
X46502184Y-54655051D01*
X46691588Y-54751557D01*
X46893757Y-54817246D01*
X47103713Y-54850500D01*
X47103714Y-54850500D01*
X47316286Y-54850500D01*
X47316287Y-54850500D01*
X47526243Y-54817246D01*
X47728412Y-54751557D01*
X47917816Y-54655051D01*
X48004471Y-54592093D01*
X48089786Y-54530109D01*
X48089788Y-54530106D01*
X48089792Y-54530104D01*
X48240104Y-54379792D01*
X48240106Y-54379788D01*
X48240109Y-54379786D01*
X48365048Y-54207820D01*
X48365050Y-54207817D01*
X48365051Y-54207816D01*
X48369512Y-54199058D01*
X48417483Y-54148262D01*
X48485303Y-54131464D01*
X48551440Y-54153998D01*
X48590483Y-54199054D01*
X48594948Y-54207817D01*
X48719889Y-54379786D01*
X48870212Y-54530109D01*
X49042178Y-54655048D01*
X49042180Y-54655049D01*
X49042183Y-54655051D01*
X49231587Y-54751557D01*
X49433756Y-54817246D01*
X49643712Y-54850500D01*
X49643713Y-54850500D01*
X49856285Y-54850500D01*
X49856286Y-54850500D01*
X50066242Y-54817246D01*
X50108522Y-54803507D01*
X50178361Y-54801511D01*
X50234520Y-54833756D01*
X50531283Y-55130520D01*
X50531285Y-55130521D01*
X50531289Y-55130524D01*
X50572634Y-55154394D01*
X50668215Y-55209577D01*
X50820942Y-55250501D01*
X50820944Y-55250501D01*
X50986653Y-55250501D01*
X50986669Y-55250500D01*
X59899055Y-55250500D01*
X59899057Y-55250500D01*
X60051784Y-55209577D01*
X60188716Y-55130520D01*
X60300520Y-55018716D01*
X60379577Y-54881784D01*
X60408128Y-54775227D01*
X60444492Y-54715570D01*
X60507338Y-54685040D01*
X60576714Y-54693334D01*
X60584181Y-54696830D01*
X60691588Y-54751557D01*
X60893757Y-54817246D01*
X61103713Y-54850500D01*
X61103714Y-54850500D01*
X61316286Y-54850500D01*
X61316287Y-54850500D01*
X61526243Y-54817246D01*
X61728412Y-54751557D01*
X61917816Y-54655051D01*
X62004471Y-54592093D01*
X62089786Y-54530109D01*
X62089788Y-54530106D01*
X62089792Y-54530104D01*
X62240104Y-54379792D01*
X62240106Y-54379788D01*
X62240109Y-54379786D01*
X62365048Y-54207820D01*
X62365050Y-54207817D01*
X62365051Y-54207816D01*
X62369512Y-54199058D01*
X62417483Y-54148262D01*
X62485303Y-54131464D01*
X62551440Y-54153998D01*
X62590483Y-54199054D01*
X62594948Y-54207817D01*
X62719889Y-54379786D01*
X62870212Y-54530109D01*
X63042178Y-54655048D01*
X63042180Y-54655049D01*
X63042183Y-54655051D01*
X63231587Y-54751557D01*
X63433756Y-54817246D01*
X63643712Y-54850500D01*
X63643713Y-54850500D01*
X63856285Y-54850500D01*
X63856286Y-54850500D01*
X64066242Y-54817246D01*
X64268411Y-54751557D01*
X64457815Y-54655051D01*
X64544470Y-54592093D01*
X64629785Y-54530109D01*
X64629787Y-54530106D01*
X64629791Y-54530104D01*
X64780103Y-54379792D01*
X64780105Y-54379788D01*
X64780108Y-54379786D01*
X64905047Y-54207820D01*
X64905049Y-54207817D01*
X64905050Y-54207816D01*
X65001556Y-54018412D01*
X65067245Y-53816243D01*
X65100499Y-53606287D01*
X65100499Y-53393713D01*
X65067245Y-53183757D01*
X65001556Y-52981588D01*
X64905050Y-52792184D01*
X64905048Y-52792181D01*
X64905047Y-52792179D01*
X64780108Y-52620213D01*
X64629785Y-52469890D01*
X64457814Y-52344948D01*
X64457813Y-52344947D01*
X64418204Y-52324765D01*
X64367408Y-52276791D01*
X64350499Y-52214281D01*
X64350499Y-51142001D01*
X64350500Y-51141988D01*
X64350500Y-50973885D01*
X64309575Y-50821155D01*
X64309572Y-50821150D01*
X64230523Y-50684231D01*
X64230517Y-50684223D01*
X64038251Y-50491957D01*
X64004766Y-50430634D01*
X64009750Y-50360942D01*
X64051622Y-50305009D01*
X64117086Y-50280592D01*
X64185359Y-50295444D01*
X64187933Y-50296890D01*
X64199104Y-50303340D01*
X64199123Y-50303349D01*
X64290480Y-50341190D01*
X64411113Y-50391158D01*
X64632762Y-50450548D01*
X64860266Y-50480500D01*
X64860273Y-50480500D01*
X65089727Y-50480500D01*
X65089734Y-50480500D01*
X65317238Y-50450548D01*
X65538887Y-50391158D01*
X65750888Y-50303344D01*
X65949612Y-50188611D01*
X66131661Y-50048919D01*
X66131665Y-50048914D01*
X66131670Y-50048911D01*
X66293911Y-49886670D01*
X66293914Y-49886665D01*
X66293919Y-49886661D01*
X66433611Y-49704612D01*
X66548344Y-49505888D01*
X66636158Y-49293887D01*
X66695548Y-49072238D01*
X66725500Y-48844734D01*
X66725500Y-48615266D01*
X66695548Y-48387762D01*
X66636158Y-48166113D01*
X66575526Y-48019735D01*
X66548349Y-47954123D01*
X66548346Y-47954117D01*
X66548344Y-47954112D01*
X66433611Y-47755388D01*
X66433608Y-47755385D01*
X66433607Y-47755382D01*
X66293918Y-47573338D01*
X66293911Y-47573330D01*
X66131670Y-47411089D01*
X66131661Y-47411081D01*
X65949617Y-47271392D01*
X65750890Y-47156657D01*
X65750876Y-47156650D01*
X65538887Y-47068842D01*
X65317238Y-47009452D01*
X65279215Y-47004446D01*
X65089741Y-46979500D01*
X65089734Y-46979500D01*
X64860266Y-46979500D01*
X64860258Y-46979500D01*
X64643715Y-47008009D01*
X64632762Y-47009452D01*
X64623350Y-47011974D01*
X64411112Y-47068842D01*
X64199123Y-47156650D01*
X64199109Y-47156657D01*
X64000382Y-47271392D01*
X63818338Y-47411081D01*
X63656081Y-47573338D01*
X63516392Y-47755382D01*
X63401657Y-47954109D01*
X63401650Y-47954123D01*
X63313842Y-48166112D01*
X63282867Y-48281716D01*
X63254452Y-48387762D01*
X63253472Y-48395203D01*
X63224500Y-48615258D01*
X63224500Y-48844741D01*
X63230045Y-48886854D01*
X63254452Y-49072238D01*
X63306676Y-49267144D01*
X63313842Y-49293887D01*
X63401650Y-49505876D01*
X63401655Y-49505886D01*
X63408111Y-49517068D01*
X63424583Y-49584968D01*
X63401730Y-49650995D01*
X63346808Y-49694185D01*
X63277255Y-49700826D01*
X63215152Y-49668809D01*
X63213042Y-49666748D01*
X60777102Y-47230808D01*
X60743617Y-47169485D01*
X60743166Y-47167318D01*
X60712267Y-47011981D01*
X60712266Y-47011974D01*
X60675170Y-46922416D01*
X60651926Y-46866298D01*
X60651919Y-46866285D01*
X60564318Y-46735182D01*
X60564315Y-46735178D01*
X60452821Y-46623684D01*
X60452817Y-46623681D01*
X60321714Y-46536080D01*
X60321701Y-46536073D01*
X60176030Y-46475735D01*
X60176018Y-46475732D01*
X60021374Y-46444971D01*
X60021371Y-46444971D01*
X59863687Y-46444971D01*
X59863684Y-46444971D01*
X59709039Y-46475732D01*
X59709027Y-46475735D01*
X59563356Y-46536073D01*
X59563338Y-46536083D01*
X59450436Y-46611522D01*
X59383759Y-46632400D01*
X59316379Y-46613915D01*
X59293865Y-46596101D01*
X54175235Y-41477471D01*
X54141750Y-41416148D01*
X54146734Y-41346456D01*
X54188606Y-41290523D01*
X54194016Y-41286693D01*
X54231289Y-41261789D01*
X54342789Y-41150289D01*
X54430394Y-41019179D01*
X54490737Y-40873497D01*
X54521500Y-40718842D01*
X54521638Y-40718150D01*
X54554023Y-40656239D01*
X54555518Y-40654716D01*
X63258415Y-31951818D01*
X63319738Y-31918334D01*
X63346096Y-31915500D01*
X63478844Y-31915500D01*
X63478845Y-31915499D01*
X63633497Y-31884737D01*
X63779179Y-31824394D01*
X63910289Y-31736789D01*
X64021789Y-31625289D01*
X64109394Y-31494179D01*
X64169737Y-31348497D01*
X64200500Y-31193842D01*
X64200500Y-31036158D01*
X64200500Y-31036155D01*
X64200499Y-31036153D01*
X64169738Y-30881510D01*
X64169737Y-30881503D01*
X64160298Y-30858714D01*
X64109397Y-30735827D01*
X64109390Y-30735814D01*
X64021789Y-30604711D01*
X64021786Y-30604707D01*
X63910292Y-30493213D01*
X63910288Y-30493210D01*
X63779185Y-30405609D01*
X63779172Y-30405602D01*
X63633501Y-30345264D01*
X63633489Y-30345261D01*
X63478845Y-30314500D01*
X63478842Y-30314500D01*
X63321158Y-30314500D01*
X63321155Y-30314500D01*
X63166510Y-30345261D01*
X63166498Y-30345264D01*
X63020827Y-30405602D01*
X63020814Y-30405609D01*
X62889711Y-30493210D01*
X62889707Y-30493213D01*
X62778213Y-30604707D01*
X62778210Y-30604711D01*
X62690609Y-30735814D01*
X62690604Y-30735824D01*
X62639701Y-30858714D01*
X62612821Y-30898942D01*
X53706339Y-39805425D01*
X53645016Y-39838910D01*
X53642850Y-39839361D01*
X53487508Y-39870261D01*
X53487498Y-39870264D01*
X53341827Y-39930602D01*
X53341814Y-39930609D01*
X53210711Y-40018210D01*
X53210707Y-40018213D01*
X53099211Y-40129709D01*
X53074310Y-40166976D01*
X53020697Y-40211780D01*
X52951371Y-40220486D01*
X52888345Y-40190330D01*
X52883528Y-40185764D01*
X37745076Y-25047312D01*
X37742000Y-25041679D01*
X37736705Y-25038053D01*
X37725459Y-25011386D01*
X37711591Y-24985989D01*
X37712048Y-24979587D01*
X37709555Y-24973674D01*
X37714510Y-24945163D01*
X37716575Y-24916297D01*
X37720695Y-24909578D01*
X37721520Y-24904837D01*
X37736021Y-24884589D01*
X37741464Y-24875717D01*
X37743215Y-24873811D01*
X37839517Y-24777510D01*
X37868879Y-24737095D01*
X37873707Y-24731844D01*
X37897770Y-24717357D01*
X37920011Y-24700207D01*
X37927298Y-24699581D01*
X37933566Y-24695808D01*
X37961642Y-24696631D01*
X37989625Y-24694228D01*
X37996094Y-24697641D01*
X38003406Y-24697856D01*
X38026576Y-24713724D01*
X38051420Y-24726833D01*
X38059744Y-24736440D01*
X38061052Y-24737336D01*
X38061556Y-24738531D01*
X38065315Y-24742870D01*
X38090483Y-24777510D01*
X38257490Y-24944517D01*
X38448567Y-25083343D01*
X38547991Y-25134002D01*
X38659003Y-25190566D01*
X38659005Y-25190566D01*
X38659008Y-25190568D01*
X38751292Y-25220553D01*
X38883631Y-25263553D01*
X39116903Y-25300500D01*
X39116908Y-25300500D01*
X39353097Y-25300500D01*
X39586368Y-25263553D01*
X39587873Y-25263064D01*
X39810992Y-25190568D01*
X40021433Y-25083343D01*
X40212510Y-24944517D01*
X40379517Y-24777510D01*
X40404681Y-24742874D01*
X40460008Y-24700209D01*
X40529621Y-24694228D01*
X40591417Y-24726832D01*
X40605314Y-24742870D01*
X40630482Y-24777510D01*
X40797489Y-24944517D01*
X40988566Y-25083343D01*
X41087990Y-25134002D01*
X41199002Y-25190566D01*
X41199004Y-25190566D01*
X41199007Y-25190568D01*
X41291291Y-25220553D01*
X41423630Y-25263553D01*
X41656902Y-25300500D01*
X41656907Y-25300500D01*
X41893096Y-25300500D01*
X42126367Y-25263553D01*
X42127872Y-25263064D01*
X42350991Y-25190568D01*
X42561432Y-25083343D01*
X42752509Y-24944517D01*
X42919516Y-24777510D01*
X42944681Y-24742872D01*
X43000007Y-24700207D01*
X43069620Y-24694226D01*
X43131416Y-24726830D01*
X43145316Y-24742870D01*
X43170481Y-24777507D01*
X43170483Y-24777509D01*
X43337490Y-24944516D01*
X43528567Y-25083342D01*
X43627991Y-25134001D01*
X43739003Y-25190565D01*
X43739005Y-25190565D01*
X43739008Y-25190567D01*
X43831295Y-25220553D01*
X43963631Y-25263552D01*
X44196903Y-25300499D01*
X44196908Y-25300499D01*
X44433097Y-25300499D01*
X44666368Y-25263552D01*
X44727167Y-25243797D01*
X44890992Y-25190567D01*
X45101433Y-25083342D01*
X45292510Y-24944516D01*
X45459517Y-24777509D01*
X45484681Y-24742873D01*
X45540008Y-24700208D01*
X45609621Y-24694227D01*
X45671417Y-24726831D01*
X45685316Y-24742871D01*
X45710481Y-24777508D01*
X45710483Y-24777510D01*
X45877490Y-24944517D01*
X46068567Y-25083343D01*
X46167991Y-25134002D01*
X46279003Y-25190566D01*
X46279005Y-25190566D01*
X46279008Y-25190568D01*
X46371292Y-25220553D01*
X46503631Y-25263553D01*
X46736903Y-25300500D01*
X46736908Y-25300500D01*
X46973097Y-25300500D01*
X47206368Y-25263553D01*
X47207873Y-25263064D01*
X47430992Y-25190568D01*
X47641433Y-25083343D01*
X47832510Y-24944517D01*
X47999517Y-24777510D01*
X48024682Y-24742872D01*
X48080011Y-24700207D01*
X48149625Y-24694228D01*
X48211420Y-24726833D01*
X48225315Y-24742870D01*
X48250483Y-24777510D01*
X48417490Y-24944517D01*
X48608567Y-25083343D01*
X48707991Y-25134002D01*
X48819003Y-25190566D01*
X48819005Y-25190566D01*
X48819008Y-25190568D01*
X48911292Y-25220553D01*
X49043631Y-25263553D01*
X49276903Y-25300500D01*
X49276908Y-25300500D01*
X49513097Y-25300500D01*
X49746368Y-25263553D01*
X49747873Y-25263064D01*
X49970992Y-25190568D01*
X50181433Y-25083343D01*
X50372510Y-24944517D01*
X50539517Y-24777510D01*
X50564682Y-24742872D01*
X50620011Y-24700207D01*
X50689625Y-24694228D01*
X50751420Y-24726833D01*
X50765315Y-24742870D01*
X50790483Y-24777510D01*
X50957490Y-24944517D01*
X51148567Y-25083343D01*
X51247991Y-25134002D01*
X51359003Y-25190566D01*
X51359005Y-25190566D01*
X51359008Y-25190568D01*
X51451292Y-25220553D01*
X51583631Y-25263553D01*
X51816903Y-25300500D01*
X51816908Y-25300500D01*
X52053097Y-25300500D01*
X52286368Y-25263553D01*
X52287873Y-25263064D01*
X52510992Y-25190568D01*
X52721433Y-25083343D01*
X52912510Y-24944517D01*
X53079517Y-24777510D01*
X53122547Y-24718283D01*
X53177877Y-24675617D01*
X53232595Y-24667550D01*
X53252341Y-24669104D01*
X53983871Y-23937573D01*
X53999755Y-23996852D01*
X54066898Y-24113146D01*
X54161853Y-24208101D01*
X54278147Y-24275244D01*
X54337423Y-24291126D01*
X53605893Y-25022657D01*
X53688828Y-25082913D01*
X53899197Y-25190101D01*
X54123752Y-25263064D01*
X54123751Y-25263064D01*
X54356948Y-25299999D01*
X54593052Y-25299999D01*
X54826247Y-25263064D01*
X55050802Y-25190101D01*
X55261171Y-25082913D01*
X55384976Y-24992963D01*
X55450782Y-24969483D01*
X55518836Y-24985308D01*
X55566780Y-25034640D01*
X55566953Y-25034546D01*
X55567292Y-25035167D01*
X55567531Y-25035413D01*
X55568011Y-25036484D01*
X55571206Y-25042335D01*
X55657452Y-25157544D01*
X55657455Y-25157547D01*
X55772664Y-25243793D01*
X55772671Y-25243797D01*
X55907517Y-25294091D01*
X55907516Y-25294091D01*
X55914444Y-25294835D01*
X55967127Y-25300500D01*
X58062872Y-25300499D01*
X58122483Y-25294091D01*
X58257331Y-25243796D01*
X58372546Y-25157546D01*
X58458796Y-25042331D01*
X58509091Y-24907483D01*
X58515500Y-24847873D01*
X58515499Y-24105258D01*
X63224500Y-24105258D01*
X63224500Y-24334741D01*
X63249446Y-24524215D01*
X63254452Y-24562238D01*
X63302853Y-24742875D01*
X63313842Y-24783887D01*
X63401650Y-24995876D01*
X63401657Y-24995890D01*
X63444642Y-25070342D01*
X63514052Y-25190565D01*
X63516392Y-25194617D01*
X63656081Y-25376661D01*
X63656089Y-25376670D01*
X63818330Y-25538911D01*
X63818338Y-25538918D01*
X64000382Y-25678607D01*
X64000385Y-25678608D01*
X64000388Y-25678611D01*
X64199112Y-25793344D01*
X64199117Y-25793346D01*
X64199123Y-25793349D01*
X64290480Y-25831190D01*
X64411113Y-25881158D01*
X64632762Y-25940548D01*
X64860266Y-25970500D01*
X64860273Y-25970500D01*
X65089727Y-25970500D01*
X65089734Y-25970500D01*
X65317238Y-25940548D01*
X65538887Y-25881158D01*
X65750888Y-25793344D01*
X65949612Y-25678611D01*
X66131661Y-25538919D01*
X66131665Y-25538914D01*
X66131670Y-25538911D01*
X66293911Y-25376670D01*
X66293914Y-25376665D01*
X66293919Y-25376661D01*
X66433611Y-25194612D01*
X66548344Y-24995888D01*
X66636158Y-24783887D01*
X66695548Y-24562238D01*
X66725500Y-24334734D01*
X66725500Y-24105266D01*
X66695548Y-23877762D01*
X66636158Y-23656113D01*
X66566048Y-23486852D01*
X66548349Y-23444123D01*
X66548346Y-23444117D01*
X66548344Y-23444112D01*
X66433611Y-23245388D01*
X66433608Y-23245385D01*
X66433607Y-23245382D01*
X66293918Y-23063338D01*
X66293911Y-23063330D01*
X66131670Y-22901089D01*
X66131661Y-22901081D01*
X65949617Y-22761392D01*
X65750890Y-22646657D01*
X65750876Y-22646650D01*
X65538887Y-22558842D01*
X65458766Y-22537374D01*
X65317238Y-22499452D01*
X65279215Y-22494446D01*
X65089741Y-22469500D01*
X65089734Y-22469500D01*
X64860266Y-22469500D01*
X64860258Y-22469500D01*
X64643715Y-22498009D01*
X64632762Y-22499452D01*
X64559053Y-22519202D01*
X64411112Y-22558842D01*
X64199123Y-22646650D01*
X64199109Y-22646657D01*
X64000382Y-22761392D01*
X63818338Y-22901081D01*
X63656081Y-23063338D01*
X63516392Y-23245382D01*
X63401657Y-23444109D01*
X63401650Y-23444123D01*
X63313842Y-23656112D01*
X63254453Y-23877759D01*
X63254451Y-23877770D01*
X63224500Y-24105258D01*
X58515499Y-24105258D01*
X58515499Y-23799999D01*
X58515499Y-22752129D01*
X58515498Y-22752123D01*
X58509091Y-22692516D01*
X58458797Y-22557671D01*
X58458793Y-22557664D01*
X58372547Y-22442455D01*
X58372544Y-22442452D01*
X58257335Y-22356206D01*
X58257328Y-22356202D01*
X58122482Y-22305908D01*
X58122483Y-22305908D01*
X58062883Y-22299501D01*
X58062881Y-22299500D01*
X58062873Y-22299500D01*
X58062865Y-22299500D01*
X57690113Y-22299500D01*
X57623074Y-22279815D01*
X57577319Y-22227011D01*
X57567375Y-22157853D01*
X57596400Y-22094297D01*
X57633819Y-22065015D01*
X57641155Y-22061276D01*
X57679210Y-22041887D01*
X57728744Y-22005898D01*
X57844813Y-21921571D01*
X57844815Y-21921568D01*
X57844819Y-21921566D01*
X57989566Y-21776819D01*
X57989568Y-21776815D01*
X57989571Y-21776813D01*
X58042332Y-21704190D01*
X58109887Y-21611210D01*
X58202820Y-21428819D01*
X58266077Y-21234134D01*
X58298100Y-21031952D01*
X58298100Y-20827248D01*
X58289857Y-20775206D01*
X58266077Y-20625065D01*
X58235058Y-20529600D01*
X58202820Y-20430381D01*
X58202818Y-20430378D01*
X58202818Y-20430376D01*
X58160350Y-20347029D01*
X58109887Y-20247990D01*
X58077692Y-20203677D01*
X57989571Y-20082386D01*
X57844821Y-19937636D01*
X57844819Y-19937634D01*
X57751613Y-19869915D01*
X57708949Y-19814587D01*
X57700500Y-19769599D01*
X57700500Y-19049634D01*
X57673581Y-18914306D01*
X57673580Y-18914304D01*
X57673580Y-18914302D01*
X57661618Y-18885424D01*
X57644667Y-18844500D01*
X57620775Y-18786819D01*
X57620773Y-18786817D01*
X57620773Y-18786815D01*
X57544115Y-18672089D01*
X57501208Y-18629182D01*
X57446542Y-18574516D01*
X57082662Y-18210636D01*
X56680160Y-17808133D01*
X56646675Y-17746810D01*
X56651659Y-17677118D01*
X56693531Y-17621185D01*
X56758995Y-17596768D01*
X56781087Y-17597162D01*
X56812127Y-17600500D01*
X58607872Y-17600499D01*
X58667483Y-17594091D01*
X58802331Y-17543796D01*
X58917546Y-17457546D01*
X59003796Y-17342331D01*
X59052810Y-17210916D01*
X59094681Y-17154984D01*
X59160145Y-17130566D01*
X59228418Y-17145417D01*
X59256673Y-17166569D01*
X59370213Y-17280109D01*
X59542179Y-17405048D01*
X59542181Y-17405049D01*
X59542184Y-17405051D01*
X59731588Y-17501557D01*
X59933757Y-17567246D01*
X60143713Y-17600500D01*
X60143714Y-17600500D01*
X60356286Y-17600500D01*
X60356287Y-17600500D01*
X60566243Y-17567246D01*
X60768412Y-17501557D01*
X60957816Y-17405051D01*
X61044138Y-17342335D01*
X61129786Y-17280109D01*
X61129788Y-17280106D01*
X61129792Y-17280104D01*
X61280104Y-17129792D01*
X61280106Y-17129788D01*
X61280109Y-17129786D01*
X61405048Y-16957820D01*
X61405050Y-16957817D01*
X61405051Y-16957816D01*
X61409512Y-16949058D01*
X61457483Y-16898262D01*
X61525303Y-16881464D01*
X61591440Y-16903998D01*
X61630483Y-16949054D01*
X61634948Y-16957817D01*
X61759889Y-17129786D01*
X61910212Y-17280109D01*
X62082178Y-17405048D01*
X62082180Y-17405049D01*
X62082183Y-17405051D01*
X62271587Y-17501557D01*
X62473756Y-17567246D01*
X62683712Y-17600500D01*
X62683713Y-17600500D01*
X62896285Y-17600500D01*
X62896286Y-17600500D01*
X63106242Y-17567246D01*
X63148522Y-17553507D01*
X63218361Y-17551511D01*
X63274520Y-17583756D01*
X63571283Y-17880520D01*
X63571285Y-17880521D01*
X63571289Y-17880524D01*
X63708208Y-17959573D01*
X63708215Y-17959577D01*
X63860942Y-18000501D01*
X63860944Y-18000501D01*
X64026653Y-18000501D01*
X64026669Y-18000500D01*
X65719677Y-18000500D01*
X65719693Y-18000501D01*
X65727289Y-18000501D01*
X65885400Y-18000501D01*
X65885403Y-18000501D01*
X66038131Y-17959577D01*
X66098920Y-17924480D01*
X66175062Y-17880520D01*
X66286866Y-17768716D01*
X66286866Y-17768714D01*
X66297070Y-17758511D01*
X66297073Y-17758506D01*
X66960520Y-17095062D01*
X67009912Y-17009510D01*
X67060479Y-16961295D01*
X67129086Y-16948071D01*
X67193951Y-16974039D01*
X67234480Y-17030953D01*
X67241300Y-17071510D01*
X67241300Y-68048821D01*
X67240990Y-68057578D01*
X67226964Y-68255696D01*
X67224497Y-68273035D01*
X67183622Y-68462913D01*
X67178737Y-68479730D01*
X67111516Y-68661965D01*
X67104309Y-68677928D01*
X67012093Y-68848858D01*
X67002710Y-68863646D01*
X66887324Y-69019890D01*
X66875951Y-69033208D01*
X66739709Y-69171632D01*
X66726581Y-69183209D01*
X66720349Y-69187967D01*
X66688115Y-69200338D01*
X66678654Y-69205603D01*
X66675003Y-69205371D01*
X66655119Y-69213003D01*
X66586709Y-69198798D01*
X66536838Y-69149863D01*
X66525327Y-69121501D01*
X66521391Y-69106812D01*
X66492587Y-69056923D01*
X66455500Y-68992686D01*
X66362314Y-68899500D01*
X66274600Y-68848858D01*
X66248187Y-68833608D01*
X66182468Y-68815999D01*
X66120892Y-68799500D01*
X66120891Y-68799500D01*
X52846685Y-68799500D01*
X52782446Y-68799072D01*
X52780805Y-68799500D01*
X52779108Y-68799500D01*
X52717528Y-68815999D01*
X52716731Y-68816210D01*
X52654926Y-68832329D01*
X52653028Y-68833101D01*
X52653026Y-68833101D01*
X52651894Y-68833561D01*
X52596621Y-68865472D01*
X52595909Y-68865880D01*
X52540358Y-68897462D01*
X52538697Y-68898718D01*
X52538692Y-68898723D01*
X52537754Y-68899432D01*
X52492609Y-68944576D01*
X52492026Y-68945154D01*
X52446559Y-68990020D01*
X52445204Y-68991762D01*
X52444540Y-68992615D01*
X52412571Y-69047982D01*
X52412572Y-69047983D01*
X52412322Y-69048414D01*
X52379906Y-69103709D01*
X52379455Y-69105345D01*
X52378608Y-69106814D01*
X52378605Y-69106822D01*
X52378603Y-69106827D01*
X52362082Y-69168482D01*
X52362083Y-69168483D01*
X52361966Y-69168917D01*
X52344950Y-69230773D01*
X52344938Y-69232470D01*
X52344500Y-69234108D01*
X52344500Y-69234118D01*
X52344500Y-69297902D01*
X52344497Y-69298729D01*
X52343646Y-69426380D01*
X52323515Y-69493286D01*
X52270407Y-69538688D01*
X52219660Y-69549553D01*
X26601762Y-69551825D01*
X26534721Y-69532146D01*
X26488961Y-69479346D01*
X26479012Y-69410189D01*
X26508031Y-69346631D01*
X26514071Y-69340143D01*
X26556748Y-69297466D01*
X26556751Y-69297462D01*
X26666185Y-69133684D01*
X26666192Y-69133671D01*
X26741569Y-68951693D01*
X26741572Y-68951681D01*
X26779999Y-68758495D01*
X26780000Y-68758492D01*
X26780000Y-68610000D01*
X26080000Y-68610000D01*
X26080000Y-68110000D01*
X26780000Y-68110000D01*
X26780000Y-67961508D01*
X26779999Y-67961504D01*
X26741572Y-67768318D01*
X26741569Y-67768306D01*
X26666192Y-67586328D01*
X26666185Y-67586315D01*
X26556751Y-67422537D01*
X26556748Y-67422533D01*
X26417466Y-67283251D01*
X26417462Y-67283248D01*
X26253684Y-67173814D01*
X26253671Y-67173807D01*
X26071691Y-67098429D01*
X26071683Y-67098427D01*
X26030000Y-67090135D01*
X26030000Y-67893011D01*
X26020060Y-67875795D01*
X25964205Y-67819940D01*
X25895796Y-67780444D01*
X25819496Y-67760000D01*
X25740504Y-67760000D01*
X25664204Y-67780444D01*
X25595795Y-67819940D01*
X25539940Y-67875795D01*
X25530000Y-67893011D01*
X25530000Y-67090136D01*
X25529999Y-67090135D01*
X25488316Y-67098427D01*
X25488308Y-67098429D01*
X25306328Y-67173807D01*
X25306315Y-67173814D01*
X25142537Y-67283248D01*
X25142533Y-67283251D01*
X25003251Y-67422533D01*
X25003248Y-67422537D01*
X24893814Y-67586315D01*
X24893807Y-67586328D01*
X24818430Y-67768306D01*
X24818427Y-67768318D01*
X24780000Y-67961504D01*
X24780000Y-68110000D01*
X25480000Y-68110000D01*
X25480000Y-68610000D01*
X24780000Y-68610000D01*
X24780000Y-68758495D01*
X24818427Y-68951681D01*
X24818430Y-68951693D01*
X24893807Y-69133671D01*
X24893814Y-69133684D01*
X25003248Y-69297462D01*
X25003251Y-69297466D01*
X25046076Y-69340291D01*
X25079561Y-69401614D01*
X25074577Y-69471306D01*
X25032705Y-69527239D01*
X24967241Y-69551656D01*
X24958406Y-69551972D01*
X17960995Y-69552592D01*
X17893954Y-69532913D01*
X17848194Y-69480113D01*
X17838245Y-69410956D01*
X17867264Y-69347398D01*
X17873304Y-69340910D01*
X17916748Y-69297466D01*
X17916751Y-69297462D01*
X18026185Y-69133684D01*
X18026192Y-69133671D01*
X18101569Y-68951693D01*
X18101572Y-68951681D01*
X18139999Y-68758495D01*
X18140000Y-68758492D01*
X18140000Y-68610000D01*
X17440000Y-68610000D01*
X17440000Y-68110000D01*
X18140000Y-68110000D01*
X18140000Y-67961508D01*
X18139999Y-67961504D01*
X18101572Y-67768318D01*
X18101569Y-67768306D01*
X18026192Y-67586328D01*
X18026185Y-67586315D01*
X17916751Y-67422537D01*
X17916748Y-67422533D01*
X17777466Y-67283251D01*
X17777462Y-67283248D01*
X17680064Y-67218168D01*
X17613684Y-67173814D01*
X17613671Y-67173807D01*
X17486552Y-67121153D01*
X22479500Y-67121153D01*
X22479500Y-67278846D01*
X22510261Y-67433489D01*
X22510264Y-67433501D01*
X22570602Y-67579172D01*
X22570609Y-67579185D01*
X22658210Y-67710288D01*
X22658213Y-67710292D01*
X22769707Y-67821786D01*
X22769711Y-67821789D01*
X22900814Y-67909390D01*
X22900827Y-67909397D01*
X23026636Y-67961508D01*
X23046503Y-67969737D01*
X23201153Y-68000499D01*
X23201156Y-68000500D01*
X23201158Y-68000500D01*
X23358844Y-68000500D01*
X23358845Y-68000499D01*
X23513497Y-67969737D01*
X23659179Y-67909394D01*
X23659185Y-67909390D01*
X23744604Y-67852315D01*
X23790289Y-67821789D01*
X23901786Y-67710292D01*
X23901789Y-67710289D01*
X23989394Y-67579179D01*
X23989395Y-67579176D01*
X23989397Y-67579173D01*
X24049192Y-67434812D01*
X24076069Y-67394586D01*
X24828726Y-66641931D01*
X24890049Y-66608446D01*
X24916407Y-66605612D01*
X45161884Y-66605612D01*
X45252928Y-66587501D01*
X45297216Y-66578692D01*
X45360957Y-66552289D01*
X45424695Y-66525889D01*
X45424696Y-66525888D01*
X45424699Y-66525887D01*
X45539431Y-66449226D01*
X46566217Y-65422438D01*
X46627538Y-65388955D01*
X46692212Y-65392189D01*
X46767615Y-65416690D01*
X47016438Y-65456100D01*
X47016439Y-65456100D01*
X47268361Y-65456100D01*
X47268362Y-65456100D01*
X47517185Y-65416690D01*
X47756779Y-65338841D01*
X47981245Y-65224470D01*
X48185056Y-65076393D01*
X48363193Y-64898256D01*
X48511270Y-64694445D01*
X48625641Y-64469979D01*
X48703490Y-64230385D01*
X48742900Y-63981562D01*
X48742900Y-63729638D01*
X48703490Y-63480815D01*
X48625641Y-63241221D01*
X48625639Y-63241218D01*
X48625639Y-63241216D01*
X48582379Y-63156315D01*
X48511270Y-63016755D01*
X48463291Y-62950717D01*
X48363198Y-62812950D01*
X48363194Y-62812945D01*
X48185054Y-62634805D01*
X48185049Y-62634801D01*
X47981248Y-62486732D01*
X47981247Y-62486731D01*
X47981245Y-62486730D01*
X47911147Y-62451013D01*
X47756783Y-62372360D01*
X47517185Y-62294510D01*
X47268362Y-62255100D01*
X47016438Y-62255100D01*
X46950138Y-62265601D01*
X46767614Y-62294510D01*
X46528016Y-62372360D01*
X46303551Y-62486732D01*
X46099750Y-62634801D01*
X46099745Y-62634805D01*
X45921605Y-62812945D01*
X45921601Y-62812950D01*
X45773532Y-63016751D01*
X45659160Y-63241216D01*
X45581310Y-63480814D01*
X45541900Y-63729638D01*
X45541900Y-63981561D01*
X45581310Y-64230386D01*
X45581310Y-64230389D01*
X45605808Y-64305784D01*
X45607803Y-64375625D01*
X45575558Y-64431783D01*
X44839050Y-65168293D01*
X44777727Y-65201778D01*
X44751369Y-65204612D01*
X38628070Y-65204612D01*
X38561031Y-65184927D01*
X38515276Y-65132123D01*
X38505332Y-65062965D01*
X38515687Y-65028209D01*
X38517209Y-65024941D01*
X38517214Y-65024935D01*
X38572399Y-64858398D01*
X38582900Y-64755610D01*
X38582900Y-62955590D01*
X38572399Y-62852802D01*
X38517214Y-62686265D01*
X38425112Y-62536944D01*
X38301056Y-62412888D01*
X38151735Y-62320786D01*
X37985198Y-62265601D01*
X37985196Y-62265600D01*
X37882417Y-62255100D01*
X37882410Y-62255100D01*
X36082390Y-62255100D01*
X36082382Y-62255100D01*
X35979603Y-62265600D01*
X35979602Y-62265601D01*
X35897069Y-62292949D01*
X35813067Y-62320785D01*
X35813062Y-62320787D01*
X35663742Y-62412889D01*
X35539689Y-62536942D01*
X35447587Y-62686262D01*
X35447586Y-62686265D01*
X35392401Y-62852802D01*
X35392401Y-62852803D01*
X35392400Y-62852803D01*
X35381900Y-62955582D01*
X35381900Y-64755617D01*
X35392400Y-64858396D01*
X35447586Y-65024935D01*
X35449113Y-65028209D01*
X35449486Y-65030669D01*
X35449858Y-65031790D01*
X35449666Y-65031853D01*
X35459604Y-65097287D01*
X35431083Y-65161070D01*
X35372606Y-65199309D01*
X35336730Y-65204612D01*
X33384500Y-65204612D01*
X33317461Y-65184927D01*
X33271706Y-65132123D01*
X33260500Y-65080612D01*
X33260499Y-64105110D01*
X33260498Y-64105092D01*
X33249999Y-64002315D01*
X33249998Y-64002312D01*
X33226036Y-63930000D01*
X33194814Y-63835778D01*
X33102712Y-63686456D01*
X33033487Y-63617231D01*
X33000003Y-63555909D01*
X33004987Y-63486217D01*
X33020852Y-63456664D01*
X33071859Y-63386461D01*
X33164755Y-63204142D01*
X33227990Y-63009528D01*
X33260000Y-62807428D01*
X33260000Y-62602793D01*
X33227990Y-62400693D01*
X33164755Y-62206079D01*
X33071859Y-62023761D01*
X33039474Y-61979188D01*
X33039474Y-61979187D01*
X32360000Y-62658662D01*
X32360000Y-62652450D01*
X32332741Y-62550717D01*
X32280080Y-62459505D01*
X32205606Y-62385031D01*
X32114394Y-62332370D01*
X32012661Y-62305111D01*
X32006446Y-62305111D01*
X32685922Y-61625635D01*
X32685921Y-61625634D01*
X32641359Y-61593258D01*
X32641350Y-61593252D01*
X32459031Y-61500355D01*
X32264417Y-61437120D01*
X32062317Y-61405111D01*
X31857683Y-61405111D01*
X31655582Y-61437120D01*
X31460968Y-61500355D01*
X31278644Y-61593254D01*
X31234077Y-61625634D01*
X31234077Y-61625635D01*
X31913554Y-62305111D01*
X31907339Y-62305111D01*
X31805606Y-62332370D01*
X31714394Y-62385031D01*
X31639920Y-62459505D01*
X31587259Y-62550717D01*
X31560000Y-62652450D01*
X31560000Y-62658664D01*
X30880524Y-61979188D01*
X30880523Y-61979188D01*
X30848143Y-62023755D01*
X30755244Y-62206079D01*
X30692009Y-62400693D01*
X30660000Y-62602793D01*
X30660000Y-62807428D01*
X30692009Y-63009528D01*
X30755244Y-63204142D01*
X30848142Y-63386463D01*
X30899147Y-63456666D01*
X30922627Y-63522472D01*
X30906802Y-63590526D01*
X30886511Y-63617231D01*
X30817289Y-63686454D01*
X30725187Y-63835775D01*
X30725186Y-63835778D01*
X30670001Y-64002315D01*
X30670001Y-64002316D01*
X30670000Y-64002316D01*
X30659500Y-64105095D01*
X30659500Y-64105103D01*
X30659500Y-64634236D01*
X30659501Y-65080612D01*
X30639817Y-65147651D01*
X30587013Y-65193406D01*
X30535501Y-65204612D01*
X26851381Y-65204612D01*
X26784342Y-65184927D01*
X26738587Y-65132123D01*
X26728643Y-65062965D01*
X26736819Y-65033161D01*
X26741570Y-65021688D01*
X26741572Y-65021681D01*
X26779999Y-64828495D01*
X26780000Y-64828492D01*
X26780000Y-64430000D01*
X26080000Y-64430000D01*
X26080000Y-63930000D01*
X26780000Y-63930000D01*
X26780000Y-63531508D01*
X26779999Y-63531504D01*
X26741572Y-63338318D01*
X26741569Y-63338306D01*
X26666192Y-63156328D01*
X26666185Y-63156315D01*
X26556751Y-62992537D01*
X26556748Y-62992533D01*
X26417466Y-62853251D01*
X26417462Y-62853248D01*
X26253684Y-62743814D01*
X26253671Y-62743807D01*
X26071691Y-62668429D01*
X26071683Y-62668427D01*
X26030000Y-62660135D01*
X26030000Y-63463011D01*
X26020060Y-63445795D01*
X25964205Y-63389940D01*
X25895796Y-63350444D01*
X25819496Y-63330000D01*
X25740504Y-63330000D01*
X25664204Y-63350444D01*
X25595795Y-63389940D01*
X25539940Y-63445795D01*
X25530000Y-63463011D01*
X25530000Y-62660136D01*
X25529999Y-62660135D01*
X25488316Y-62668427D01*
X25488308Y-62668429D01*
X25306328Y-62743807D01*
X25306315Y-62743814D01*
X25142537Y-62853248D01*
X25142533Y-62853251D01*
X25003251Y-62992533D01*
X25003248Y-62992537D01*
X24893814Y-63156315D01*
X24893807Y-63156328D01*
X24818430Y-63338306D01*
X24818427Y-63338318D01*
X24780000Y-63531504D01*
X24780000Y-63930000D01*
X25480000Y-63930000D01*
X25480000Y-64430000D01*
X24924464Y-64430000D01*
X24857425Y-64410315D01*
X24817077Y-64368000D01*
X24810517Y-64356638D01*
X24810513Y-64356633D01*
X24703367Y-64249487D01*
X24703365Y-64249485D01*
X24637750Y-64211602D01*
X24572136Y-64173719D01*
X24498950Y-64154109D01*
X24425766Y-64134500D01*
X24274234Y-64134500D01*
X24127863Y-64173719D01*
X23996635Y-64249485D01*
X23996632Y-64249487D01*
X23889487Y-64356632D01*
X23889485Y-64356635D01*
X23813719Y-64487863D01*
X23774500Y-64634234D01*
X23774500Y-64785765D01*
X23813719Y-64932136D01*
X23835615Y-64970060D01*
X23889485Y-65063365D01*
X23996635Y-65170515D01*
X24060946Y-65207645D01*
X24109162Y-65258211D01*
X24122386Y-65326818D01*
X24096418Y-65391683D01*
X24086628Y-65402713D01*
X23085412Y-66403929D01*
X23045184Y-66430809D01*
X22900823Y-66490604D01*
X22900814Y-66490609D01*
X22769711Y-66578210D01*
X22769707Y-66578213D01*
X22658213Y-66689707D01*
X22658210Y-66689711D01*
X22570609Y-66820814D01*
X22570602Y-66820827D01*
X22510264Y-66966498D01*
X22510261Y-66966510D01*
X22479500Y-67121153D01*
X17486552Y-67121153D01*
X17431691Y-67098429D01*
X17431683Y-67098427D01*
X17390000Y-67090135D01*
X17390000Y-67893011D01*
X17380060Y-67875795D01*
X17324205Y-67819940D01*
X17255796Y-67780444D01*
X17179496Y-67760000D01*
X17100504Y-67760000D01*
X17024204Y-67780444D01*
X16955795Y-67819940D01*
X16899940Y-67875795D01*
X16890000Y-67893011D01*
X16890000Y-67090136D01*
X16889999Y-67090135D01*
X16848316Y-67098427D01*
X16848308Y-67098429D01*
X16666328Y-67173807D01*
X16666315Y-67173814D01*
X16502537Y-67283248D01*
X16502533Y-67283251D01*
X16363251Y-67422533D01*
X16363248Y-67422537D01*
X16253814Y-67586315D01*
X16253807Y-67586328D01*
X16178430Y-67768306D01*
X16178427Y-67768318D01*
X16140000Y-67961504D01*
X16140000Y-68110000D01*
X16840000Y-68110000D01*
X16840000Y-68610000D01*
X16140000Y-68610000D01*
X16140000Y-68758495D01*
X16178427Y-68951681D01*
X16178430Y-68951693D01*
X16253807Y-69133671D01*
X16253814Y-69133684D01*
X16332423Y-69251330D01*
X16341910Y-69281628D01*
X16353005Y-69311374D01*
X16352274Y-69314730D01*
X16353301Y-69318008D01*
X16344903Y-69348616D01*
X16338154Y-69379647D01*
X16335724Y-69382076D01*
X16334816Y-69385388D01*
X16311201Y-69406600D01*
X16288749Y-69429053D01*
X16285392Y-69429783D01*
X16282838Y-69432078D01*
X16251500Y-69437155D01*
X16220476Y-69443905D01*
X16215939Y-69442918D01*
X16213868Y-69443254D01*
X16185989Y-69436403D01*
X16142795Y-69420293D01*
X16126700Y-69412943D01*
X15954491Y-69318909D01*
X15939608Y-69309344D01*
X15782535Y-69191761D01*
X15769164Y-69180175D01*
X15630424Y-69041435D01*
X15618838Y-69028064D01*
X15501255Y-68870991D01*
X15491690Y-68856108D01*
X15487731Y-68848858D01*
X15397653Y-68683894D01*
X15390309Y-68667811D01*
X15321736Y-68483960D01*
X15316754Y-68466990D01*
X15315867Y-68462913D01*
X15275047Y-68275263D01*
X15272530Y-68257756D01*
X15258216Y-68057618D01*
X15257900Y-68048772D01*
X15257900Y-63531504D01*
X16140000Y-63531504D01*
X16140000Y-63930000D01*
X16840000Y-63930000D01*
X16840000Y-64430000D01*
X16140000Y-64430000D01*
X16140000Y-64828495D01*
X16178427Y-65021681D01*
X16178430Y-65021693D01*
X16253807Y-65203671D01*
X16253814Y-65203684D01*
X16363248Y-65367462D01*
X16363251Y-65367466D01*
X16502533Y-65506748D01*
X16502537Y-65506751D01*
X16666315Y-65616185D01*
X16666328Y-65616192D01*
X16848308Y-65691569D01*
X16890000Y-65699862D01*
X16890000Y-64896988D01*
X16899940Y-64914205D01*
X16955795Y-64970060D01*
X17024204Y-65009556D01*
X17100504Y-65030000D01*
X17179496Y-65030000D01*
X17255796Y-65009556D01*
X17324205Y-64970060D01*
X17380060Y-64914205D01*
X17390000Y-64896988D01*
X17390000Y-65699862D01*
X17431690Y-65691569D01*
X17431692Y-65691569D01*
X17613671Y-65616192D01*
X17613684Y-65616185D01*
X17777462Y-65506751D01*
X17777466Y-65506748D01*
X17916748Y-65367466D01*
X17916751Y-65367462D01*
X18029574Y-65198613D01*
X18031007Y-65199570D01*
X18074198Y-65155580D01*
X18142332Y-65140103D01*
X18208018Y-65163919D01*
X18210089Y-65165697D01*
X18210189Y-65165568D01*
X18216630Y-65170510D01*
X18216635Y-65170515D01*
X18347865Y-65246281D01*
X18494234Y-65285500D01*
X18494236Y-65285500D01*
X18645764Y-65285500D01*
X18645766Y-65285500D01*
X18792135Y-65246281D01*
X18923365Y-65170515D01*
X19030515Y-65063365D01*
X19106281Y-64932135D01*
X19145500Y-64785766D01*
X19145500Y-64634234D01*
X19106281Y-64487865D01*
X19030515Y-64356635D01*
X18923365Y-64249485D01*
X18857750Y-64211602D01*
X18792136Y-64173719D01*
X18718950Y-64154109D01*
X18645766Y-64134500D01*
X18494234Y-64134500D01*
X18347863Y-64173719D01*
X18216635Y-64249485D01*
X18216632Y-64249487D01*
X18109486Y-64356633D01*
X18109482Y-64356638D01*
X18102923Y-64368000D01*
X18052356Y-64416216D01*
X17995536Y-64430000D01*
X17440000Y-64430000D01*
X17440000Y-63930000D01*
X18140000Y-63930000D01*
X18140000Y-63531508D01*
X18139999Y-63531504D01*
X18101572Y-63338318D01*
X18101569Y-63338306D01*
X18026192Y-63156328D01*
X18026185Y-63156315D01*
X17916751Y-62992537D01*
X17916748Y-62992533D01*
X17777466Y-62853251D01*
X17777462Y-62853248D01*
X17613684Y-62743814D01*
X17613671Y-62743807D01*
X17431691Y-62668429D01*
X17431683Y-62668427D01*
X17390000Y-62660135D01*
X17390000Y-63463011D01*
X17380060Y-63445795D01*
X17324205Y-63389940D01*
X17255796Y-63350444D01*
X17179496Y-63330000D01*
X17100504Y-63330000D01*
X17024204Y-63350444D01*
X16955795Y-63389940D01*
X16899940Y-63445795D01*
X16890000Y-63463011D01*
X16890000Y-62660136D01*
X16889999Y-62660135D01*
X16848316Y-62668427D01*
X16848308Y-62668429D01*
X16666328Y-62743807D01*
X16666315Y-62743814D01*
X16502537Y-62853248D01*
X16502533Y-62853251D01*
X16363251Y-62992533D01*
X16363248Y-62992537D01*
X16253814Y-63156315D01*
X16253807Y-63156328D01*
X16178430Y-63338306D01*
X16178427Y-63338318D01*
X16140000Y-63531504D01*
X15257900Y-63531504D01*
X15257900Y-60267682D01*
X16910000Y-60267682D01*
X16910000Y-60472317D01*
X16942009Y-60674417D01*
X17005244Y-60869031D01*
X17098141Y-61051350D01*
X17098147Y-61051359D01*
X17130523Y-61095921D01*
X17130524Y-61095922D01*
X17810000Y-60416446D01*
X17810000Y-60422661D01*
X17837259Y-60524394D01*
X17889920Y-60615606D01*
X17964394Y-60690080D01*
X18055606Y-60742741D01*
X18157339Y-60770000D01*
X18163553Y-60770000D01*
X17484076Y-61449474D01*
X17528650Y-61481859D01*
X17710968Y-61574755D01*
X17905582Y-61637990D01*
X18107683Y-61670000D01*
X18312317Y-61670000D01*
X18514417Y-61637990D01*
X18709031Y-61574755D01*
X18891349Y-61481859D01*
X18935921Y-61449474D01*
X18256447Y-60770000D01*
X18262661Y-60770000D01*
X18364394Y-60742741D01*
X18455606Y-60690080D01*
X18530080Y-60615606D01*
X18582741Y-60524394D01*
X18610000Y-60422661D01*
X18610000Y-60416447D01*
X19289474Y-61095921D01*
X19321859Y-61051349D01*
X19414755Y-60869031D01*
X19477990Y-60674417D01*
X19510000Y-60472317D01*
X19510000Y-60267682D01*
X23410000Y-60267682D01*
X23410000Y-60472317D01*
X23442009Y-60674417D01*
X23505244Y-60869031D01*
X23598141Y-61051350D01*
X23598147Y-61051359D01*
X23630523Y-61095921D01*
X23630524Y-61095922D01*
X24310000Y-60416446D01*
X24310000Y-60422661D01*
X24337259Y-60524394D01*
X24389920Y-60615606D01*
X24464394Y-60690080D01*
X24555606Y-60742741D01*
X24657339Y-60770000D01*
X24663553Y-60770000D01*
X23984076Y-61449474D01*
X24028650Y-61481859D01*
X24210968Y-61574755D01*
X24405582Y-61637990D01*
X24607683Y-61670000D01*
X24812317Y-61670000D01*
X25014417Y-61637990D01*
X25209034Y-61574754D01*
X25233260Y-61562410D01*
X25233262Y-61562409D01*
X25391349Y-61481859D01*
X25435921Y-61449474D01*
X24756447Y-60770000D01*
X24762661Y-60770000D01*
X24864394Y-60742741D01*
X24955606Y-60690080D01*
X25030080Y-60615606D01*
X25082741Y-60524394D01*
X25110000Y-60422661D01*
X25110000Y-60416448D01*
X25789474Y-61095922D01*
X25789474Y-61095921D01*
X25821859Y-61051349D01*
X25914755Y-60869031D01*
X25977990Y-60674417D01*
X26010000Y-60472317D01*
X26010000Y-60267682D01*
X25977990Y-60065582D01*
X25914755Y-59870968D01*
X25821859Y-59688650D01*
X25789474Y-59644077D01*
X25789474Y-59644076D01*
X25110000Y-60323551D01*
X25110000Y-60317339D01*
X25082741Y-60215606D01*
X25030080Y-60124394D01*
X24955606Y-60049920D01*
X24864394Y-59997259D01*
X24762661Y-59970000D01*
X24756446Y-59970000D01*
X25435922Y-59290524D01*
X25435921Y-59290523D01*
X25391359Y-59258147D01*
X25391350Y-59258141D01*
X25209031Y-59165244D01*
X25014417Y-59102009D01*
X24812317Y-59070000D01*
X24607683Y-59070000D01*
X24405582Y-59102009D01*
X24210968Y-59165244D01*
X24028644Y-59258143D01*
X23984077Y-59290523D01*
X23984077Y-59290524D01*
X24663554Y-59970000D01*
X24657339Y-59970000D01*
X24555606Y-59997259D01*
X24464394Y-60049920D01*
X24389920Y-60124394D01*
X24337259Y-60215606D01*
X24310000Y-60317339D01*
X24310000Y-60323553D01*
X23630524Y-59644077D01*
X23630523Y-59644077D01*
X23598143Y-59688644D01*
X23505244Y-59870968D01*
X23442009Y-60065582D01*
X23410000Y-60267682D01*
X19510000Y-60267682D01*
X19477990Y-60065582D01*
X19414755Y-59870968D01*
X19321859Y-59688650D01*
X19289474Y-59644077D01*
X19289474Y-59644076D01*
X18610000Y-60323551D01*
X18610000Y-60317339D01*
X18582741Y-60215606D01*
X18530080Y-60124394D01*
X18455606Y-60049920D01*
X18364394Y-59997259D01*
X18262661Y-59970000D01*
X18256446Y-59970000D01*
X18935922Y-59290524D01*
X18935921Y-59290523D01*
X18891359Y-59258147D01*
X18891350Y-59258141D01*
X18709031Y-59165244D01*
X18514417Y-59102009D01*
X18312317Y-59070000D01*
X18107683Y-59070000D01*
X17905582Y-59102009D01*
X17710968Y-59165244D01*
X17528644Y-59258143D01*
X17484077Y-59290523D01*
X17484077Y-59290524D01*
X18163554Y-59970000D01*
X18157339Y-59970000D01*
X18055606Y-59997259D01*
X17964394Y-60049920D01*
X17889920Y-60124394D01*
X17837259Y-60215606D01*
X17810000Y-60317339D01*
X17810000Y-60323553D01*
X17130524Y-59644077D01*
X17130523Y-59644077D01*
X17098143Y-59688644D01*
X17005244Y-59870968D01*
X16942009Y-60065582D01*
X16910000Y-60267682D01*
X15257900Y-60267682D01*
X15257900Y-56962135D01*
X59134500Y-56962135D01*
X59134500Y-58757870D01*
X59134501Y-58757876D01*
X59140908Y-58817483D01*
X59191202Y-58952328D01*
X59191206Y-58952335D01*
X59277452Y-59067544D01*
X59277455Y-59067547D01*
X59392664Y-59153793D01*
X59392671Y-59153797D01*
X59527517Y-59204091D01*
X59527516Y-59204091D01*
X59534444Y-59204835D01*
X59587127Y-59210500D01*
X61382872Y-59210499D01*
X61442483Y-59204091D01*
X61577331Y-59153796D01*
X61692546Y-59067546D01*
X61778796Y-58952331D01*
X61827810Y-58820916D01*
X61869681Y-58764984D01*
X61935145Y-58740566D01*
X62003418Y-58755417D01*
X62031673Y-58776569D01*
X62145213Y-58890109D01*
X62317179Y-59015048D01*
X62317181Y-59015049D01*
X62317184Y-59015051D01*
X62506588Y-59111557D01*
X62708757Y-59177246D01*
X62918713Y-59210500D01*
X62918714Y-59210500D01*
X63131286Y-59210500D01*
X63131287Y-59210500D01*
X63341243Y-59177246D01*
X63543412Y-59111557D01*
X63732816Y-59015051D01*
X63819138Y-58952335D01*
X63904786Y-58890109D01*
X63904788Y-58890106D01*
X63904792Y-58890104D01*
X64055104Y-58739792D01*
X64055106Y-58739788D01*
X64055109Y-58739786D01*
X64180048Y-58567820D01*
X64180047Y-58567820D01*
X64180051Y-58567816D01*
X64276557Y-58378412D01*
X64342246Y-58176243D01*
X64375500Y-57966287D01*
X64375500Y-57753713D01*
X64342246Y-57543757D01*
X64276557Y-57341588D01*
X64180051Y-57152184D01*
X64180049Y-57152181D01*
X64180048Y-57152179D01*
X64055109Y-56980213D01*
X63904786Y-56829890D01*
X63732820Y-56704951D01*
X63543414Y-56608444D01*
X63543413Y-56608443D01*
X63543412Y-56608443D01*
X63341243Y-56542754D01*
X63341241Y-56542753D01*
X63341240Y-56542753D01*
X63179957Y-56517208D01*
X63131287Y-56509500D01*
X62918713Y-56509500D01*
X62870042Y-56517208D01*
X62708760Y-56542753D01*
X62506585Y-56608444D01*
X62317179Y-56704951D01*
X62145215Y-56829889D01*
X62031673Y-56943431D01*
X61970350Y-56976915D01*
X61900658Y-56971931D01*
X61844725Y-56930059D01*
X61827810Y-56899082D01*
X61778797Y-56767671D01*
X61778793Y-56767664D01*
X61692547Y-56652455D01*
X61692544Y-56652452D01*
X61577335Y-56566206D01*
X61577328Y-56566202D01*
X61442482Y-56515908D01*
X61442483Y-56515908D01*
X61382883Y-56509501D01*
X61382881Y-56509500D01*
X61382873Y-56509500D01*
X61382864Y-56509500D01*
X59587129Y-56509500D01*
X59587123Y-56509501D01*
X59527516Y-56515908D01*
X59392671Y-56566202D01*
X59392664Y-56566206D01*
X59277455Y-56652452D01*
X59277452Y-56652455D01*
X59191206Y-56767664D01*
X59191202Y-56767671D01*
X59140908Y-56902517D01*
X59134501Y-56962116D01*
X59134500Y-56962135D01*
X15257900Y-56962135D01*
X15257900Y-54399983D01*
X36704388Y-54399983D01*
X36704388Y-55600001D01*
X36704389Y-55600018D01*
X36714888Y-55702796D01*
X36714889Y-55702799D01*
X36770073Y-55869331D01*
X36770074Y-55869334D01*
X36862176Y-56018656D01*
X36986232Y-56142712D01*
X37135554Y-56234814D01*
X37302091Y-56289999D01*
X37404879Y-56300500D01*
X38604896Y-56300499D01*
X38707685Y-56289999D01*
X38874222Y-56234814D01*
X39023544Y-56142712D01*
X39092767Y-56073489D01*
X39154090Y-56040004D01*
X39223782Y-56044988D01*
X39253334Y-56060852D01*
X39323539Y-56111859D01*
X39505857Y-56204755D01*
X39700471Y-56267990D01*
X39902572Y-56300000D01*
X40107206Y-56300000D01*
X40309306Y-56267990D01*
X40503920Y-56204755D01*
X40686238Y-56111859D01*
X40730810Y-56079474D01*
X40051336Y-55400000D01*
X40057550Y-55400000D01*
X40159283Y-55372741D01*
X40250495Y-55320080D01*
X40324969Y-55245606D01*
X40377630Y-55154394D01*
X40404889Y-55052661D01*
X40404889Y-55046447D01*
X41084363Y-55725921D01*
X41116748Y-55681349D01*
X41209644Y-55499031D01*
X41272879Y-55304417D01*
X41304889Y-55102317D01*
X41304889Y-54897682D01*
X41272879Y-54695582D01*
X41209644Y-54500968D01*
X41116748Y-54318650D01*
X41084363Y-54274077D01*
X41084363Y-54274076D01*
X40404889Y-54953551D01*
X40404889Y-54947339D01*
X40377630Y-54845606D01*
X40324969Y-54754394D01*
X40250495Y-54679920D01*
X40159283Y-54627259D01*
X40057550Y-54600000D01*
X40051335Y-54600000D01*
X40730811Y-53920524D01*
X40730810Y-53920523D01*
X40686248Y-53888147D01*
X40686239Y-53888141D01*
X40531157Y-53809123D01*
X40503920Y-53795244D01*
X40309306Y-53732009D01*
X40107206Y-53700000D01*
X39902572Y-53700000D01*
X39700471Y-53732009D01*
X39505857Y-53795244D01*
X39323538Y-53888141D01*
X39323531Y-53888145D01*
X39253331Y-53939148D01*
X39187524Y-53962627D01*
X39119471Y-53946801D01*
X39092766Y-53926510D01*
X39023545Y-53857289D01*
X39023544Y-53857288D01*
X38874222Y-53765186D01*
X38707685Y-53710001D01*
X38707683Y-53710000D01*
X38604898Y-53699500D01*
X37404886Y-53699500D01*
X37404869Y-53699501D01*
X37302091Y-53710000D01*
X37302088Y-53710001D01*
X37135556Y-53765185D01*
X37135551Y-53765187D01*
X36986230Y-53857289D01*
X36862177Y-53981342D01*
X36770075Y-54130663D01*
X36770073Y-54130668D01*
X36747412Y-54199054D01*
X36714889Y-54297203D01*
X36714889Y-54297204D01*
X36714888Y-54297204D01*
X36704388Y-54399983D01*
X15257900Y-54399983D01*
X15257900Y-52647648D01*
X16909500Y-52647648D01*
X16909500Y-52852352D01*
X16913878Y-52879995D01*
X16941522Y-53054534D01*
X17004781Y-53249223D01*
X17068691Y-53374653D01*
X17078403Y-53393713D01*
X17097715Y-53431613D01*
X17218028Y-53597213D01*
X17362786Y-53741971D01*
X17465015Y-53816243D01*
X17528390Y-53862287D01*
X17642684Y-53920523D01*
X17710776Y-53955218D01*
X17710778Y-53955218D01*
X17710781Y-53955220D01*
X17815137Y-53989127D01*
X17905465Y-54018477D01*
X17977050Y-54029815D01*
X18107648Y-54050500D01*
X18107649Y-54050500D01*
X18312351Y-54050500D01*
X18312352Y-54050500D01*
X18514534Y-54018477D01*
X18709219Y-53955220D01*
X18891610Y-53862287D01*
X19025258Y-53765187D01*
X19057213Y-53741971D01*
X19057215Y-53741968D01*
X19057219Y-53741966D01*
X19201966Y-53597219D01*
X19201968Y-53597215D01*
X19201971Y-53597213D01*
X19272599Y-53500000D01*
X19322287Y-53431610D01*
X19415220Y-53249219D01*
X19478477Y-53054534D01*
X19510500Y-52852352D01*
X19510500Y-52647648D01*
X23409500Y-52647648D01*
X23409500Y-52852352D01*
X23413878Y-52879995D01*
X23441522Y-53054534D01*
X23504781Y-53249223D01*
X23568691Y-53374653D01*
X23578403Y-53393713D01*
X23597715Y-53431613D01*
X23718028Y-53597213D01*
X23862786Y-53741971D01*
X23965015Y-53816243D01*
X24028390Y-53862287D01*
X24142684Y-53920523D01*
X24210776Y-53955218D01*
X24210778Y-53955218D01*
X24210781Y-53955220D01*
X24315137Y-53989127D01*
X24405465Y-54018477D01*
X24477050Y-54029815D01*
X24607648Y-54050500D01*
X24607649Y-54050500D01*
X24812351Y-54050500D01*
X24812352Y-54050500D01*
X25014534Y-54018477D01*
X25209219Y-53955220D01*
X25391610Y-53862287D01*
X25525258Y-53765187D01*
X25557213Y-53741971D01*
X25557215Y-53741968D01*
X25557219Y-53741966D01*
X25701966Y-53597219D01*
X25701968Y-53597215D01*
X25701971Y-53597213D01*
X25772599Y-53500000D01*
X25822287Y-53431610D01*
X25915220Y-53249219D01*
X25978477Y-53054534D01*
X26010500Y-52852352D01*
X26010500Y-52647648D01*
X25978477Y-52445466D01*
X25915220Y-52250781D01*
X25915218Y-52250778D01*
X25915218Y-52250776D01*
X25863869Y-52150000D01*
X25822287Y-52068390D01*
X25791489Y-52026000D01*
X25701971Y-51902786D01*
X25557213Y-51758028D01*
X25391613Y-51637715D01*
X25391612Y-51637714D01*
X25391610Y-51637713D01*
X25334653Y-51608691D01*
X25209223Y-51544781D01*
X25014534Y-51481522D01*
X24839995Y-51453878D01*
X24812352Y-51449500D01*
X24607648Y-51449500D01*
X24583329Y-51453351D01*
X24405465Y-51481522D01*
X24210776Y-51544781D01*
X24028386Y-51637715D01*
X23862786Y-51758028D01*
X23718028Y-51902786D01*
X23597715Y-52068386D01*
X23504781Y-52250776D01*
X23441522Y-52445465D01*
X23414306Y-52617303D01*
X23409500Y-52647648D01*
X19510500Y-52647648D01*
X19493366Y-52539470D01*
X19478477Y-52445465D01*
X19439259Y-52324765D01*
X19415220Y-52250781D01*
X19415218Y-52250778D01*
X19415218Y-52250776D01*
X19363869Y-52150000D01*
X19322287Y-52068390D01*
X19291489Y-52026000D01*
X19201971Y-51902786D01*
X19057213Y-51758028D01*
X18891613Y-51637715D01*
X18891612Y-51637714D01*
X18891610Y-51637713D01*
X18834653Y-51608691D01*
X18709223Y-51544781D01*
X18514534Y-51481522D01*
X18339995Y-51453878D01*
X18312352Y-51449500D01*
X18107648Y-51449500D01*
X18083329Y-51453351D01*
X17905465Y-51481522D01*
X17710776Y-51544781D01*
X17528386Y-51637715D01*
X17362786Y-51758028D01*
X17218028Y-51902786D01*
X17097715Y-52068386D01*
X17004781Y-52250776D01*
X16941522Y-52445465D01*
X16914306Y-52617303D01*
X16909500Y-52647648D01*
X15257900Y-52647648D01*
X15257900Y-15491827D01*
X15258216Y-15482981D01*
X15272530Y-15282836D01*
X15275046Y-15265338D01*
X15316756Y-15073600D01*
X15321735Y-15056642D01*
X15390311Y-14872782D01*
X15397651Y-14856710D01*
X15491694Y-14684483D01*
X15501250Y-14669614D01*
X15618843Y-14512528D01*
X15630417Y-14499171D01*
X15769171Y-14360417D01*
X15782528Y-14348843D01*
X15939614Y-14231250D01*
X15954483Y-14221694D01*
X16126710Y-14127651D01*
X16142782Y-14120311D01*
X16326642Y-14051735D01*
X16343600Y-14046756D01*
X16535338Y-14005046D01*
X16552836Y-14002530D01*
X16752982Y-13988216D01*
X16761828Y-13987900D01*
X16823292Y-13987900D01*
X31533503Y-13987900D01*
X31600542Y-14007585D01*
G37*
%TD.AperFunction*%
%TA.AperFunction,Conductor*%
G36*
X53548773Y-47870185D02*
G01*
X53594528Y-47922989D01*
X53603756Y-47975203D01*
X54337425Y-48708872D01*
X54278147Y-48724756D01*
X54161853Y-48791899D01*
X54066898Y-48886854D01*
X53999755Y-49003148D01*
X53983871Y-49062425D01*
X53252340Y-48330894D01*
X53232592Y-48332448D01*
X53164215Y-48318083D01*
X53122547Y-48281716D01*
X53079517Y-48222490D01*
X52919208Y-48062181D01*
X52885723Y-48000858D01*
X52890707Y-47931166D01*
X52932579Y-47875233D01*
X52998043Y-47850816D01*
X53006889Y-47850500D01*
X53481734Y-47850500D01*
X53548773Y-47870185D01*
G37*
%TD.AperFunction*%
%TA.AperFunction,Conductor*%
G36*
X56010150Y-47870185D02*
G01*
X56055905Y-47922989D01*
X56065849Y-47992147D01*
X56036824Y-48055703D01*
X56030792Y-48062181D01*
X55870485Y-48222487D01*
X55870484Y-48222488D01*
X55827452Y-48281717D01*
X55772121Y-48324382D01*
X55717405Y-48332449D01*
X55697658Y-48330894D01*
X54966128Y-49062425D01*
X54950245Y-49003148D01*
X54883102Y-48886854D01*
X54788147Y-48791899D01*
X54671853Y-48724756D01*
X54612574Y-48708872D01*
X55346622Y-47974824D01*
X55359011Y-47915852D01*
X55408063Y-47866095D01*
X55468265Y-47850500D01*
X55943111Y-47850500D01*
X56010150Y-47870185D01*
G37*
%TD.AperFunction*%
%TA.AperFunction,Conductor*%
G36*
X54663242Y-17789701D02*
G01*
X54709670Y-17818957D01*
X56263181Y-19372467D01*
X56296666Y-19433790D01*
X56299500Y-19460148D01*
X56299500Y-19766111D01*
X56279815Y-19833150D01*
X56248385Y-19866429D01*
X56150387Y-19937628D01*
X56150382Y-19937632D01*
X56005628Y-20082386D01*
X55885314Y-20247986D01*
X55857803Y-20301979D01*
X55809827Y-20352774D01*
X55742006Y-20369568D01*
X55675872Y-20347029D01*
X55636834Y-20301976D01*
X55609461Y-20248252D01*
X55577074Y-20203677D01*
X55577074Y-20203676D01*
X54897600Y-20883151D01*
X54897600Y-20876939D01*
X54870341Y-20775206D01*
X54817680Y-20683994D01*
X54743206Y-20609520D01*
X54651994Y-20556859D01*
X54550261Y-20529600D01*
X54544046Y-20529600D01*
X55223522Y-19850124D01*
X55223521Y-19850123D01*
X55178959Y-19817747D01*
X55178950Y-19817741D01*
X54996631Y-19724844D01*
X54802017Y-19661609D01*
X54599917Y-19629600D01*
X54395283Y-19629600D01*
X54193182Y-19661609D01*
X53998568Y-19724844D01*
X53816244Y-19817743D01*
X53771677Y-19850123D01*
X53771677Y-19850124D01*
X54451154Y-20529600D01*
X54444939Y-20529600D01*
X54343206Y-20556859D01*
X54251994Y-20609520D01*
X54177520Y-20683994D01*
X54124859Y-20775206D01*
X54097600Y-20876939D01*
X54097600Y-20883153D01*
X53418124Y-20203677D01*
X53418123Y-20203677D01*
X53385743Y-20248244D01*
X53292844Y-20430568D01*
X53229609Y-20625182D01*
X53197600Y-20827282D01*
X53197600Y-21031917D01*
X53229609Y-21234017D01*
X53292844Y-21428631D01*
X53385741Y-21610950D01*
X53385747Y-21610959D01*
X53418123Y-21655521D01*
X53418124Y-21655522D01*
X54097600Y-20976046D01*
X54097600Y-20982261D01*
X54124859Y-21083994D01*
X54177520Y-21175206D01*
X54251994Y-21249680D01*
X54343206Y-21302341D01*
X54444939Y-21329600D01*
X54451153Y-21329600D01*
X53771676Y-22009074D01*
X53816250Y-22041459D01*
X53998567Y-22134354D01*
X54009939Y-22138049D01*
X54067615Y-22177485D01*
X54094814Y-22241844D01*
X54082902Y-22310690D01*
X54035658Y-22362167D01*
X54009942Y-22373912D01*
X53899196Y-22409896D01*
X53688830Y-22517083D01*
X53605894Y-22577339D01*
X54337425Y-23308870D01*
X54278147Y-23324754D01*
X54161853Y-23391897D01*
X54066898Y-23486852D01*
X53999755Y-23603146D01*
X53983871Y-23662423D01*
X53252340Y-22930892D01*
X53232593Y-22932447D01*
X53164215Y-22918083D01*
X53122547Y-22881716D01*
X53079517Y-22822490D01*
X52912510Y-22655483D01*
X52786237Y-22563740D01*
X52721431Y-22516655D01*
X52603204Y-22456415D01*
X52552409Y-22408441D01*
X52535500Y-22345931D01*
X52535500Y-19865097D01*
X52555185Y-19798058D01*
X52571819Y-19777416D01*
X53143579Y-19205656D01*
X53715397Y-18633837D01*
X53776718Y-18600354D01*
X53778885Y-18599903D01*
X53836820Y-18588378D01*
X53934232Y-18569002D01*
X54068326Y-18513459D01*
X54079907Y-18508662D01*
X54079907Y-18508661D01*
X54079914Y-18508659D01*
X54211024Y-18421054D01*
X54322524Y-18309554D01*
X54410129Y-18178444D01*
X54470472Y-18032762D01*
X54492874Y-17920139D01*
X54500372Y-17882447D01*
X54532757Y-17820536D01*
X54593472Y-17785962D01*
X54663242Y-17789701D01*
G37*
%TD.AperFunction*%
%TA.AperFunction,Conductor*%
G36*
X52606890Y-15720185D02*
G01*
X52627532Y-15736819D01*
X53681042Y-16790329D01*
X53714527Y-16851652D01*
X53709543Y-16921344D01*
X53667671Y-16977277D01*
X53617553Y-16999627D01*
X53467243Y-17029526D01*
X53467233Y-17029529D01*
X53321562Y-17089867D01*
X53321549Y-17089874D01*
X53190446Y-17177475D01*
X53190442Y-17177478D01*
X53078948Y-17288972D01*
X53078945Y-17288976D01*
X52991344Y-17420079D01*
X52991337Y-17420092D01*
X52930999Y-17565763D01*
X52930996Y-17565773D01*
X52900096Y-17721115D01*
X52867711Y-17783026D01*
X52866160Y-17784604D01*
X51454481Y-19196282D01*
X51454477Y-19196287D01*
X51433985Y-19231783D01*
X51433984Y-19231785D01*
X51375423Y-19333215D01*
X51334499Y-19485943D01*
X51334499Y-19485945D01*
X51334499Y-19654046D01*
X51334500Y-19654059D01*
X51334500Y-22345931D01*
X51314815Y-22412970D01*
X51266796Y-22456415D01*
X51148568Y-22516655D01*
X51025537Y-22606044D01*
X50957490Y-22655483D01*
X50957488Y-22655485D01*
X50957487Y-22655485D01*
X50790484Y-22822488D01*
X50782364Y-22833665D01*
X50765319Y-22857126D01*
X50765318Y-22857127D01*
X50709987Y-22899792D01*
X50640374Y-22905771D01*
X50578579Y-22873165D01*
X50564682Y-22857127D01*
X50539517Y-22822490D01*
X50372510Y-22655483D01*
X50181433Y-22516657D01*
X50181427Y-22516654D01*
X49970996Y-22409433D01*
X49746368Y-22336446D01*
X49513097Y-22299500D01*
X49513092Y-22299500D01*
X49276908Y-22299500D01*
X49276903Y-22299500D01*
X49043628Y-22336447D01*
X48917433Y-22377450D01*
X48847592Y-22379445D01*
X48791435Y-22347200D01*
X43942913Y-17498678D01*
X43909428Y-17437355D01*
X43914412Y-17367663D01*
X43956284Y-17311730D01*
X43957645Y-17310724D01*
X43999792Y-17280104D01*
X44150104Y-17129792D01*
X44150106Y-17129788D01*
X44150109Y-17129786D01*
X44275048Y-16957821D01*
X44275188Y-16957547D01*
X44279513Y-16949056D01*
X44327484Y-16898260D01*
X44395304Y-16881462D01*
X44461440Y-16903996D01*
X44500484Y-16949052D01*
X44504950Y-16957817D01*
X44629891Y-17129786D01*
X44780214Y-17280109D01*
X44952180Y-17405048D01*
X44952182Y-17405049D01*
X44952185Y-17405051D01*
X45141589Y-17501557D01*
X45343758Y-17567246D01*
X45553714Y-17600500D01*
X45553715Y-17600500D01*
X45766287Y-17600500D01*
X45766288Y-17600500D01*
X45976244Y-17567246D01*
X46178413Y-17501557D01*
X46367817Y-17405051D01*
X46454139Y-17342335D01*
X46539787Y-17280109D01*
X46539789Y-17280106D01*
X46539793Y-17280104D01*
X46690105Y-17129792D01*
X46690107Y-17129788D01*
X46690110Y-17129786D01*
X46815049Y-16957820D01*
X46815051Y-16957817D01*
X46815052Y-16957816D01*
X46819795Y-16948506D01*
X46867767Y-16897710D01*
X46935588Y-16880913D01*
X47001723Y-16903448D01*
X47040766Y-16948505D01*
X47045373Y-16957547D01*
X47084728Y-17011716D01*
X47717036Y-16379407D01*
X47734075Y-16442993D01*
X47799901Y-16557007D01*
X47892993Y-16650099D01*
X48007007Y-16715925D01*
X48070590Y-16732962D01*
X47438282Y-17365269D01*
X47438282Y-17365270D01*
X47492449Y-17404624D01*
X47681782Y-17501095D01*
X47883870Y-17566757D01*
X48093754Y-17600000D01*
X48306246Y-17600000D01*
X48516127Y-17566757D01*
X48516130Y-17566757D01*
X48718217Y-17501095D01*
X48907554Y-17404622D01*
X48961716Y-17365270D01*
X48961717Y-17365270D01*
X48329408Y-16732962D01*
X48392993Y-16715925D01*
X48507007Y-16650099D01*
X48600099Y-16557007D01*
X48665925Y-16442993D01*
X48682962Y-16379409D01*
X49353181Y-17049628D01*
X49386666Y-17110951D01*
X49389500Y-17137300D01*
X49389500Y-17147865D01*
X49389501Y-17147876D01*
X49395908Y-17207483D01*
X49446202Y-17342328D01*
X49446206Y-17342335D01*
X49532452Y-17457544D01*
X49532455Y-17457547D01*
X49647664Y-17543793D01*
X49647671Y-17543797D01*
X49782517Y-17594091D01*
X49782516Y-17594091D01*
X49789444Y-17594835D01*
X49842127Y-17600500D01*
X51637872Y-17600499D01*
X51697483Y-17594091D01*
X51832331Y-17543796D01*
X51947546Y-17457546D01*
X52033796Y-17342331D01*
X52084091Y-17207483D01*
X52090500Y-17147873D01*
X52090499Y-15824499D01*
X52110184Y-15757461D01*
X52162987Y-15711706D01*
X52214499Y-15700500D01*
X52539851Y-15700500D01*
X52606890Y-15720185D01*
G37*
%TD.AperFunction*%
%TA.AperFunction,Conductor*%
G36*
X55577074Y-21655521D02*
G01*
X55609459Y-21610949D01*
X55636833Y-21557224D01*
X55684807Y-21506427D01*
X55752628Y-21489631D01*
X55818763Y-21512167D01*
X55857803Y-21557221D01*
X55885313Y-21611211D01*
X56005628Y-21776813D01*
X56150386Y-21921571D01*
X56315988Y-22041886D01*
X56361381Y-22065015D01*
X56412178Y-22112989D01*
X56428973Y-22180810D01*
X56406436Y-22246945D01*
X56351721Y-22290397D01*
X56305087Y-22299500D01*
X55967129Y-22299500D01*
X55967123Y-22299501D01*
X55907516Y-22305908D01*
X55772671Y-22356202D01*
X55772664Y-22356206D01*
X55657455Y-22442452D01*
X55657452Y-22442455D01*
X55571206Y-22557664D01*
X55566953Y-22565454D01*
X55563814Y-22563740D01*
X55532092Y-22606044D01*
X55466608Y-22630407D01*
X55398347Y-22615500D01*
X55384978Y-22607034D01*
X55261174Y-22517086D01*
X55050802Y-22409896D01*
X54962658Y-22381256D01*
X54904982Y-22341818D01*
X54877784Y-22277460D01*
X54889699Y-22208613D01*
X54936943Y-22157138D01*
X54962658Y-22145394D01*
X54996629Y-22134355D01*
X55178949Y-22041459D01*
X55223521Y-22009074D01*
X54544047Y-21329600D01*
X54550261Y-21329600D01*
X54651994Y-21302341D01*
X54743206Y-21249680D01*
X54817680Y-21175206D01*
X54870341Y-21083994D01*
X54897600Y-20982261D01*
X54897600Y-20976047D01*
X55577074Y-21655521D01*
G37*
%TD.AperFunction*%
%TD*%
M02*
